<?xml version="1.0" encoding="UTF-8" standalone="no"?>
<!-- Created with Inkscape (http://www.inkscape.org/) -->

<svg
   xmlns:dc="http://purl.org/dc/elements/1.1/"
   xmlns:cc="http://creativecommons.org/ns#"
   xmlns:rdf="http://www.w3.org/1999/02/22-rdf-syntax-ns#"
   xmlns:svg="http://www.w3.org/2000/svg"
   xmlns="http://www.w3.org/2000/svg"
   version="1.1"
   width="1000"
   height="904.6814"
   id="svg2"
   xml:space="preserve"><metadata
     id="metadata8"><rdf:RDF><cc:Work
         rdf:about=""><dc:format>image/svg+xml</dc:format><dc:type
           rdf:resource="http://purl.org/dc/dcmitype/StillImage" /><dc:title></dc:title></cc:Work></rdf:RDF></metadata><defs
     id="defs6" /><g
     transform="matrix(1.25,0,0,-1.25,0,904.68139)"
     id="g10"><g
       transform="scale(0.25618117,0.25618117)"
       id="g12"><path
         d="m 0,0 3122.79,0 0,2825.13 L 0,2825.13 0,0 z"
         id="path14"
         style="fill:#efeff1;fill-opacity:1;fill-rule:nonzero;stroke:none" /><path
         d="m 849.258,1072.27 0,-325.059 193.802,0 0,-41 -242.501,0 0,366.059 48.699,0 z m 300.772,-366.059 -48.67,0 0,149.719 -141.536,216.34 57.936,0 109.73,-174.309 107.15,174.309 55.35,0 -139.96,-216.34 0,-149.719 z m 158.53,128.43 c 4.79,-17.95 12.31,-34.102 22.56,-48.461 10.27,-14.328 23.41,-25.879 39.47,-34.602 16.07,-8.719 35.19,-13.078 57.43,-13.078 22.19,0 41.36,4.359 57.41,13.078 16.05,8.723 29.22,20.274 39.48,34.602 10.26,14.359 17.76,30.511 22.56,48.461 4.79,17.929 7.19,36.148 7.19,54.589 0,18.461 -2.4,36.649 -7.19,54.61 -4.8,17.93 -12.3,34.09 -22.56,48.461 -10.26,14.329 -23.43,25.869 -39.48,34.599 -16.05,8.71 -35.22,13.08 -57.41,13.08 -22.24,0 -41.36,-4.37 -57.43,-13.08 -16.06,-8.73 -29.2,-20.27 -39.47,-34.599 -10.25,-14.371 -17.77,-30.531 -22.56,-48.461 -4.78,-17.961 -7.18,-36.149 -7.18,-54.61 0,-18.441 2.4,-36.66 7.18,-54.589 m -44.86,126.621 c 7.34,23.066 18.38,43.498 33.09,61.268 14.67,17.78 32.95,31.97 54.83,42.55 21.88,10.59 47.33,15.9 76.4,15.9 29.04,0 54.52,-5.31 76.37,-15.9 21.86,-10.58 40.17,-24.77 54.86,-42.55 14.71,-17.77 25.71,-38.202 33.08,-61.268 7.33,-23.063 11.01,-47.071 11.01,-72.032 0,-24.941 -3.68,-48.96 -11.01,-72.011 -7.37,-23.098 -18.37,-43.5 -33.08,-61.27 -14.69,-17.777 -33,-31.871 -54.86,-42.301 -21.85,-10.41 -47.33,-15.636 -76.37,-15.636 -29.07,0 -54.52,5.226 -76.4,15.636 -21.88,10.43 -40.16,24.524 -54.83,42.301 -14.71,17.77 -25.75,38.172 -33.09,61.27 -7.36,23.051 -11.02,47.07 -11.02,72.011 0,24.961 3.66,48.969 11.02,72.032 m 417.25,111.008 192.76,-296.848 1.07,0 0,296.848 46.14,0 0,-366.059 -53.33,0 -191.22,293.758 -1.07,0 0,-293.758 -46.14,0 0,366.059 51.79,0 z m 405.76,-96.52 c 5.26,17.059 13.23,31.96 23.84,44.73 10.58,12.76 23.9,22.7 40.01,29.8 16.05,7.13 34.54,10.7 55.4,10.7 15.88,0 31.05,-2.5 45.46,-7.46 14.4,-4.96 27.06,-12.08 37.99,-21.37 10.95,-9.29 19.63,-20.71 26.1,-34.279 6.46,-13.582 9.69,-28.82 9.69,-45.723 0,-17.527 -2.83,-32.617 -8.43,-45.207 -5.65,-12.57 -13.11,-23.75 -22.37,-33.523 -9.3,-9.789 -19.8,-18.637 -31.56,-26.598 -11.76,-7.941 -23.6,-15.82 -35.53,-23.601 -11.91,-7.789 -23.51,-16.149 -34.76,-25.078 -11.29,-8.961 -21.22,-19.391 -29.82,-31.321 l 164.45,0 0,-60.609 -255.38,0 c 0,20.199 2.89,37.758 8.71,52.668 5.78,14.91 13.65,28.23 23.6,39.992 9.92,11.777 21.61,22.609 35.02,32.551 13.41,9.93 27.57,20.027 42.48,30.308 7.61,5.309 15.7,10.68 24.35,16.141 8.6,5.469 16.45,11.539 23.6,18.149 7.1,6.621 13.06,14.07 17.86,22.339 4.82,8.301 7.24,17.743 7.24,28.321 0,16.898 -4.92,30.07 -14.69,39.5 -9.75,9.449 -22.27,14.16 -37.5,14.16 -10.27,0 -18.96,-2.379 -26.08,-7.18 -7.13,-4.808 -12.86,-11.101 -17.14,-18.879 -4.33,-7.812 -7.39,-16.422 -9.2,-25.851 -1.83,-9.442 -2.72,-18.801 -2.72,-28.078 l -67.57,0 c -0.71,19.898 1.63,38.347 6.95,55.398"
         id="path16"
         style="fill:#6ac857;fill-opacity:1;fill-rule:nonzero;stroke:none" /><path
         d="m 830.273,1603.96 0,-236.26 140.84,0 0,-29.82 -176.269,0 0,266.08 35.429,0 z m 347.307,-246.52 c -18.16,-17 -43.99,-25.51 -77.53,-25.51 -34.27,0 -61.05,8.11 -80.3,24.41 -19.26,16.26 -28.871,42.15 -28.871,77.69 l 0,169.93 35.401,0 0,-169.93 c 0,-23.85 6.33,-41.91 18.98,-54.24 12.67,-12.29 30.95,-18.44 54.79,-18.44 22.64,0 39.83,6.15 51.61,18.44 11.83,12.33 17.72,30.39 17.72,54.24 l 0,169.93 35.4,0 0,-169.93 c 0,-34.04 -9.08,-59.55 -27.2,-76.59 m 129.04,246.52 83.84,-223.6 84.23,223.6 48.44,0 0,-266.08 -33.53,0 0,221.35 -0.75,0 -83.11,-221.35 -30.19,0 -83.09,221.35 -0.74,0 0,-221.35 -33.53,0 0,266.08 48.43,0 z m 307.08,-266.08 -35.4,0 0,266.08 35.4,0 0,-266.08 z m 130.48,338.35 32.05,-53.26 -23.87,0 -48.82,53.26 40.64,0 z m 108.06,-72.27 0,-29.82 -148.3,0 0,-84.58 138.24,0 0,-29.82 -138.24,0 0,-92.04 149.42,0 0,-29.82 -184.84,0 0,266.08 183.72,0 z m 163.02,0 c 25.35,0 45.16,-6.22 59.45,-18.63 14.26,-12.43 21.43,-29.43 21.43,-51.04 0,-16.19 -3.68,-30.35 -11,-42.5 -7.33,-12.18 -19.06,-20.49 -35.2,-24.97 l 0,-0.75 c 7.7,-1.48 13.94,-3.97 18.81,-7.45 4.83,-3.47 8.69,-7.63 11.53,-12.48 2.87,-4.84 4.99,-10.24 6.36,-16.2 1.35,-5.97 2.42,-12.19 3.15,-18.66 0.51,-6.46 0.88,-13.03 1.13,-19.73 0.26,-6.71 0.88,-13.3 1.85,-19.74 1.02,-6.48 2.43,-12.62 4.3,-18.47 1.86,-5.84 4.66,-10.98 8.38,-15.46 l -39.5,0 c -2.49,2.74 -4.14,6.47 -5.03,11.19 -0.88,4.71 -1.43,9.99 -1.67,15.84 -0.27,5.84 -0.51,12.1 -0.75,18.82 -0.27,6.71 -1,13.28 -2.25,19.75 -0.98,6.44 -2.23,12.59 -3.71,18.44 -1.5,5.82 -3.84,10.93 -7.08,15.26 -3.24,4.37 -7.45,7.85 -12.68,10.45 -5.2,2.61 -12.17,3.91 -20.87,3.91 l -86.45,0 0,-113.66 -35.4,0 0,266.08 125.2,0 z m 7.46,-120.75 c 7.46,1.26 13.99,3.66 19.55,7.27 5.59,3.61 10.09,8.45 13.42,14.54 3.38,6.09 5.05,13.96 5.05,23.66 0,13.41 -3.75,24.36 -11.2,32.81 -7.45,8.42 -19.49,12.65 -36.12,12.65 l -87.96,0 0,-92.79 73.8,0 c 8.2,0 16,0.63 23.46,1.86 m 304.13,120.75 0,-29.82 -148.32,0 0,-84.58 138.24,0 0,-29.82 -138.24,0 0,-92.04 149.42,0 0,-29.82 -184.82,0 0,266.08 183.72,0"
         id="path18"
         style="fill:#6ac857;fill-opacity:1;fill-rule:nonzero;stroke:none" /><path
         d="m 938.586,1885.61 c -13.742,-12.9 -33.332,-19.35 -58.731,-19.35 -25.968,0 -46.234,6.19 -60.832,18.51 -14.597,12.31 -21.882,31.94 -21.882,58.85 l 0,128.74 26.824,0 0,-128.74 c 0,-18.07 4.785,-31.74 14.375,-41.07 9.621,-9.3 23.469,-13.98 41.515,-13.98 17.11,0 30.165,4.68 39.098,13.98 8.938,9.33 13.43,23 13.43,41.07 l 0,128.74 26.797,0 0,-128.74 c 0,-25.78 -6.856,-45.13 -20.594,-58.01 m 86.654,186.75 106.16,-163.48 0.54,0 0,163.48 25.41,0 0,-201.57 -29.35,0 -105.28,161.75 -0.57,0 0,-161.75 -25.404,0 0,201.57 28.494,0 z m 197.75,-201.57 -26.82,0 0,201.57 26.82,0 0,-201.57 z m 88.75,0 -70.89,201.57 28.81,0 57.59,-174.77 0.54,0 58.19,174.77 27.95,0 -71.71,-201.57 -30.48,0 z m 258.51,201.57 0,-22.59 -112.35,0 0,-64.09 104.75,0 0,-22.59 -104.75,0 0,-69.72 113.21,0 0,-22.58 -140.01,0 0,201.57 139.15,0 z m 121.07,0 c 19.19,0 34.21,-4.73 45.04,-14.13 10.8,-9.41 16.23,-22.31 16.23,-38.68 0,-12.23 -2.79,-22.96 -8.34,-32.17 -5.56,-9.22 -14.46,-15.53 -26.69,-18.91 l 0,-0.57 c 5.85,-1.13 10.61,-3.02 14.28,-5.65 3.68,-2.65 6.59,-5.77 8.75,-9.45 2.16,-3.67 3.75,-7.77 4.78,-12.29 1.04,-4.52 1.84,-9.22 2.41,-14.12 0.37,-4.89 0.66,-9.85 0.83,-14.95 0.21,-5.08 0.67,-10.08 1.42,-14.98 0.75,-4.89 1.85,-9.55 3.26,-13.96 1.42,-4.41 3.53,-8.32 6.36,-11.71 l -29.95,0 c -1.86,2.05 -3.14,4.88 -3.8,8.47 -0.67,3.58 -1.11,7.56 -1.28,11.99 -0.18,4.42 -0.37,9.16 -0.58,14.25 -0.17,5.08 -0.72,10.06 -1.67,14.98 -0.75,4.88 -1.7,9.55 -2.82,13.98 -1.15,4.39 -2.91,8.25 -5.36,11.56 -2.45,3.29 -5.65,5.94 -9.6,7.9 -3.96,1.98 -9.24,2.95 -15.81,2.95 l -65.48,0 0,-86.08 -26.84,0 0,201.57 94.86,0 z m 5.64,-91.47 c 5.65,0.93 10.59,2.77 14.83,5.51 4.23,2.71 7.62,6.4 10.18,10.99 2.52,4.61 3.8,10.61 3.8,17.95 0,10.15 -2.83,18.41 -8.48,24.84 -5.64,6.39 -14.77,9.59 -27.39,9.59 l -66.6,0 0,-70.31 55.89,0 c 6.22,0 12.13,0.49 17.77,1.43 m 189.17,63.94 c -8.93,6.5 -20.38,9.72 -34.29,9.72 -5.65,0 -11.21,-0.54 -16.67,-1.69 -5.45,-1.13 -10.29,-3 -14.54,-5.65 -4.21,-2.63 -7.61,-6.15 -10.17,-10.57 -2.51,-4.43 -3.79,-9.92 -3.79,-16.51 0,-6.22 1.85,-11.25 5.49,-15.09 3.68,-3.88 8.58,-7.04 14.69,-9.46 6.11,-2.47 13.03,-4.47 20.75,-6.08 7.72,-1.62 15.57,-3.36 23.58,-5.21 8.01,-1.92 15.86,-4.1 23.58,-6.66 7.69,-2.52 14.64,-5.98 20.73,-10.28 6.13,-4.35 11.02,-9.82 14.69,-16.39 3.66,-6.59 5.51,-14.88 5.51,-24.83 0,-10.75 -2.4,-19.9 -7.21,-27.55 -4.79,-7.61 -10.96,-13.81 -18.48,-18.62 -7.55,-4.78 -15.97,-8.29 -25.25,-10.42 -9.36,-2.19 -18.62,-3.28 -27.82,-3.28 -11.3,0 -21.99,1.42 -32.05,4.24 -10.08,2.82 -18.92,7.1 -26.55,12.84 -7.63,5.73 -13.63,13.08 -18.04,22.04 -4.46,8.92 -6.67,19.49 -6.67,31.73 l 25.41,0 c 0,-8.47 1.66,-15.75 4.94,-21.85 3.32,-6.12 7.64,-11.17 13.02,-15.11 5.33,-3.95 11.6,-6.88 18.74,-8.76 7.17,-1.87 14.51,-2.82 22.01,-2.82 6.05,0 12.13,0.54 18.23,1.7 6.13,1.12 11.64,3.06 16.54,5.8 4.87,2.71 8.82,6.43 11.85,11.13 3.01,4.7 4.51,10.72 4.51,18.07 0,6.94 -1.85,12.59 -5.51,16.93 -3.68,4.33 -8.56,7.85 -14.69,10.6 -6.11,2.73 -13.02,4.93 -20.73,6.63 -7.73,1.7 -15.58,3.45 -23.6,5.23 -7.98,1.79 -15.83,3.86 -23.56,6.19 -7.71,2.36 -14.62,5.47 -20.73,9.34 -6.13,3.84 -11.03,8.84 -14.69,14.95 -3.68,6.13 -5.52,13.78 -5.52,23.03 0,10.14 2.08,18.94 6.22,26.39 4.14,7.42 9.62,13.55 16.51,18.33 6.87,4.81 14.69,8.38 23.44,10.73 8.74,2.35 17.73,3.52 26.97,3.52 10.32,0 19.94,-1.21 28.79,-3.66 8.84,-2.45 16.6,-6.31 23.29,-11.58 6.68,-5.27 11.93,-11.91 15.81,-19.9 3.86,-8 5.96,-17.55 6.36,-28.67 l -25.41,0 c -1.53,14.51 -6.75,25.01 -15.69,31.5 m 104.52,-174.04 -26.81,0 0,201.57 26.81,0 0,-201.57 z m 18.16,178.98 0,22.59 161.2,0 0,-22.59 -67.21,0 0,-178.98 -26.83,0 0,178.98 -67.16,0 z m 280.83,77.35 -36.96,-40.39 -18.09,0 24.28,40.39 30.77,0 z m 36.98,-54.76 0,-22.59 -112.37,0 0,-64.09 104.74,0 0,-22.59 -104.74,0 0,-69.72 113.21,0 0,-22.58 -140.03,0 0,201.57 139.19,0"
         id="path20"
         style="fill:#6ac857;fill-opacity:1;fill-rule:nonzero;stroke:none" /></g></g></svg>