<?xml version="1.0" encoding="UTF-8" standalone="no"?>
<svg
   xmlns:dc="http://purl.org/dc/elements/1.1/"
   xmlns:cc="http://creativecommons.org/ns#"
   xmlns:rdf="http://www.w3.org/1999/02/22-rdf-syntax-ns#"
   xmlns:svg="http://www.w3.org/2000/svg"
   xmlns="http://www.w3.org/2000/svg"
   width="999.99945mm"
   height="633.76202mm"
   viewBox="0 0 999.99945 633.76202"
   version="1.1"
   id="svg966">
  <defs
     id="defs960" />
  <metadata
     id="metadata963">
    <rdf:RDF>
      <cc:Work
         rdf:about="">
        <dc:format>image/svg+xml</dc:format>
        <dc:type
           rdf:resource="http://purl.org/dc/dcmitype/StillImage" />
        <dc:title></dc:title>
      </cc:Work>
    </rdf:RDF>
  </metadata>
  <g
     id="layer1"
     transform="translate(74.173562,-50.348308)">
    <g
       id="g889"
       transform="matrix(4.5644792,0,0,-4.5644792,-101.6224,795.52236)">
      <g
         id="g388"
         transform="translate(99.1339,134.3873)">
        <path
           d="m 0,0 c -12.724,-0.713 -35.426,-2.34 -41.773,-15.69 -5.574,-11.727 9.622,-17.818 17.508,-22.459 7.923,-4.665 16.839,-10.483 18.819,-20.153 2.982,-14.561 -8.849,-27.151 -20.732,-33.18 -17.792,-9.028 -39.013,-9.865 -58.589,-9.861 -1.091,0 -1.092,-1.696 0,-1.696 26.086,-0.004 85.272,3.69 81.298,42.942 -1.517,14.985 -17.091,21.175 -28.177,28.174 -11.112,7.016 -12.675,16.624 0.702,23.583 9.235,4.803 20.709,6.07 30.944,6.644 C 1.084,-1.634 1.092,0.061 0,0"
           style="fill:#97be0d;fill-opacity:1;fill-rule:nonzero;stroke:none"
           id="path390" />
      </g>
      <g
         id="g392"
         transform="translate(98.7573,129.1129)">
        <path
           d="m 0,0 c -12.724,-0.713 -35.426,-2.339 -41.773,-15.69 -5.574,-11.727 9.622,-17.818 17.508,-22.459 7.922,-4.665 16.839,-10.483 18.819,-20.152 2.982,-14.561 -8.849,-27.151 -20.732,-33.181 -17.792,-9.028 -39.013,-9.864 -58.589,-9.86 -1.091,0 -1.092,-1.695 0,-1.695 26.086,-0.005 85.272,3.688 81.297,42.942 -1.516,14.983 -17.09,21.175 -28.176,28.172 -11.112,7.016 -12.675,16.624 0.702,23.583 9.235,4.803 20.709,6.07 30.944,6.645 C 1.084,-1.634 1.091,0.061 0,0"
           style="fill:#1a171b;fill-opacity:1;fill-rule:nonzero;stroke:none"
           id="path394" />
      </g>
      <g
         id="g396"
         transform="translate(91.5992,137.7777)">
        <path
           d="m 0,0 c -12.724,-0.713 -35.426,-2.339 -41.773,-15.69 -5.574,-11.727 9.622,-17.818 17.508,-22.459 7.923,-4.665 16.839,-10.483 18.819,-20.153 2.982,-14.561 -8.849,-27.151 -20.732,-33.18 -17.792,-9.028 -39.013,-9.865 -58.589,-9.861 -1.091,0 -1.092,-1.696 0,-1.696 26.086,-0.004 85.272,3.69 81.298,42.943 -1.517,14.984 -17.091,21.174 -28.177,28.174 -11.112,7.015 -12.675,16.623 0.702,23.582 9.235,4.803 20.709,6.07 30.944,6.645 C 1.084,-1.634 1.092,0.061 0,0"
           style="fill:#3aaadc;fill-opacity:1;fill-rule:nonzero;stroke:none"
           id="path398" />
      </g>
      <g
         id="g400"
         transform="translate(132.0359,127.3598)">
        <path
           d="m 0,0 c -4.673,-15.255 -8.52,-31.395 -10.092,-47.289 -1.655,-16.738 -2.61,-38.394 5.279,-53.953 0.495,-0.974 1.957,-0.116 1.465,0.855 -8.195,16.162 -6.889,39.346 -4.601,56.765 1.907,14.519 5.295,29.17 9.583,43.172 C 1.954,0.596 0.319,1.042 0,0"
           style="fill:#1a171b;fill-opacity:1;fill-rule:nonzero;stroke:none"
           id="path402" />
      </g>
      <g
         id="g404"
         transform="translate(130.529,134.1411)">
        <path
           d="m 0,0 c -4.671,-15.255 -8.521,-31.395 -10.092,-47.289 -1.655,-16.737 -2.611,-38.395 5.279,-53.953 0.495,-0.974 1.957,-0.116 1.465,0.855 -8.197,16.161 -6.887,39.348 -4.601,56.765 1.907,14.519 5.295,29.17 9.583,43.172 C 1.954,0.596 0.319,1.042 0,0"
           style="fill:#97be0d;fill-opacity:1;fill-rule:nonzero;stroke:none"
           id="path406" />
      </g>
      <g
         id="g408"
         transform="translate(127.8919,140.5454)">
        <path
           d="m 0,0 c -4.671,-15.255 -8.521,-31.395 -10.093,-47.288 -1.655,-16.738 -2.608,-38.396 5.28,-53.954 0.494,-0.973 1.957,-0.116 1.465,0.855 -8.194,16.161 -6.89,39.348 -4.601,56.765 1.907,14.519 5.295,29.17 9.583,43.172 C 1.954,0.596 0.319,1.042 0,0"
           style="fill:#3aaadc;fill-opacity:1;fill-rule:nonzero;stroke:none"
           id="path410" />
      </g>
      <g
         id="g412"
         transform="translate(166.4461,36.7536)">
        <path
           d="m 0,0 c -6.375,21.29 -10.909,41.307 -6.404,63.685 2.16,10.739 5.345,23.393 13.229,31.454 11.327,11.581 28.16,9.838 42.842,9.652 1.092,-0.014 1.092,1.682 0,1.696 C 36.04,106.659 21.542,108.084 9.758,99.773 1.103,93.669 -2.908,83.448 -5.736,73.605 -13.143,47.817 -9.133,24.59 -1.634,-0.45 -1.322,-1.493 0.314,-1.049 0,0"
           style="fill:#3aaadc;fill-opacity:1;fill-rule:nonzero;stroke:none"
           id="path414" />
      </g>
      <g
         id="g416"
         transform="translate(163.4322,30.7259)">
        <path
           d="m 0,0 c -6.374,21.289 -10.909,41.307 -6.406,63.685 2.162,10.739 5.347,23.393 13.231,31.454 11.327,11.581 28.159,9.838 42.84,9.652 1.092,-0.014 1.092,1.682 0,1.696 C 36.038,106.658 21.542,108.084 9.758,99.773 1.103,93.669 -2.908,83.448 -5.736,73.605 -13.145,47.817 -9.132,24.589 -1.634,-0.45 -1.322,-1.493 0.314,-1.049 0,0"
           style="fill:#97be0d;fill-opacity:1;fill-rule:nonzero;stroke:none"
           id="path418" />
      </g>
      <g
         id="g420"
         transform="translate(160.0417,25.4528)">
        <path
           d="m 0,0 c -6.376,21.289 -10.909,41.307 -6.406,63.684 2.162,10.739 5.346,23.392 13.231,31.454 11.327,11.581 28.158,9.838 42.84,9.652 1.092,-0.014 1.092,1.681 0,1.695 C 36.038,106.657 21.542,108.083 9.757,99.771 1.103,93.668 -2.908,83.447 -5.736,73.603 -13.145,47.817 -9.133,24.589 -1.634,-0.45 -1.322,-1.493 0.314,-1.049 0,0"
           style="fill:#1a171b;fill-opacity:1;fill-rule:nonzero;stroke:none"
           id="path422" />
      </g>
      <g
         id="g424"
         transform="translate(187.7046,100.2618)">
        <path
           d="m 0,0 c -9.033,1.494 -19.95,1.585 -27.777,-3.852 -0.89,-0.618 -0.044,-2.089 0.855,-1.465 7.454,5.178 17.842,5.11 26.472,3.683 C 0.617,-1.81 1.076,-0.178 0,0"
           style="fill:#97be0d;fill-opacity:1;fill-rule:nonzero;stroke:none"
           id="path426" />
      </g>
      <g
         id="g428"
         transform="translate(183.3721,97.4365)">
        <path
           d="m 0,0 c -9.033,1.495 -19.949,1.583 -27.776,-3.852 -0.89,-0.618 -0.044,-2.089 0.855,-1.465 7.454,5.178 17.842,5.11 26.471,3.683 C 0.617,-1.811 1.076,-0.178 0,0"
           style="fill:#1a171b;fill-opacity:1;fill-rule:nonzero;stroke:none"
           id="path430" />
      </g>
      <g
         id="g432"
         transform="translate(189.3998,102.7108)">
        <path
           d="m 0,0 c -9.033,1.494 -19.95,1.585 -27.777,-3.852 -0.89,-0.618 -0.044,-2.089 0.855,-1.465 7.454,5.178 17.842,5.11 26.472,3.683 C 0.617,-1.811 1.076,-0.178 0,0"
           style="fill:#3aaadc;fill-opacity:1;fill-rule:nonzero;stroke:none"
           id="path434" />
      </g>
      <g
         id="g436"
         transform="translate(155.2805,152.6188)">
        <path
           d="m 0,0 c -1.378,-3.367 -4.26,-5.763 -8.001,-5.785 -2.619,-0.016 -5.777,1.269 -5.939,4.254 -0.059,1.086 -1.754,1.093 -1.696,0 0.202,-3.714 3.615,-5.768 7.077,-5.935 4.761,-0.231 8.452,2.763 10.193,7.016 C 2.048,0.559 0.409,0.998 0,0"
           style="fill:#3aaadc;fill-opacity:1;fill-rule:nonzero;stroke:none"
           id="path438" />
      </g>
      <g
         id="g440"
         transform="translate(153.3733,153.6783)">
        <path
           d="m 0,0 c -1.378,-3.367 -4.261,-5.763 -8.001,-5.785 -2.619,-0.015 -5.777,1.269 -5.939,4.255 -0.059,1.085 -1.754,1.092 -1.696,0 0.202,-3.715 3.615,-5.769 7.077,-5.936 4.761,-0.231 8.452,2.763 10.193,7.016 C 2.048,0.559 0.409,0.998 0,0"
           style="fill:#97be0d;fill-opacity:1;fill-rule:nonzero;stroke:none"
           id="path442" />
      </g>
      <g
         id="g444"
         transform="translate(148.9937,154.8793)">
        <path
           d="m 0,0 c -1.378,-3.367 -4.262,-5.763 -8.001,-5.785 -2.619,-0.016 -5.778,1.269 -5.939,4.254 -0.059,1.086 -1.754,1.093 -1.696,0 0.202,-3.714 3.615,-5.768 7.077,-5.935 4.761,-0.231 8.452,2.763 10.193,7.016 C 2.047,0.559 0.409,0.998 0,0"
           style="fill:#1a171b;fill-opacity:1;fill-rule:nonzero;stroke:none"
           id="path446" />
      </g>
      <g
         id="g448"
         transform="translate(209.9804,135.0394)">
        <path
           d="m 0,0 c -0.496,0.24 -0.952,0.142 -1.018,-0.277 -0.066,-0.419 -0.603,-5.927 -0.617,-6.304 -0.016,-0.377 0.371,-0.742 0.923,-0.561 0.552,0.181 9.33,2.829 9.33,2.829 0,0 -8.121,4.074 -8.618,4.313"
           style="fill:#1a171b;fill-opacity:1;fill-rule:nonzero;stroke:none"
           id="path450" />
      </g>
      <g
         id="g452"
         transform="translate(213.3716,140.2665)">
        <path
           d="m 0,0 c -0.497,0.24 -0.952,0.143 -1.02,-0.277 -0.065,-0.419 -0.603,-5.927 -0.615,-6.304 -0.017,-0.377 0.369,-0.742 0.921,-0.56 0.552,0.18 9.331,2.829 9.331,2.829 0,0 -8.12,4.073 -8.617,4.312"
           style="fill:#97be0d;fill-opacity:1;fill-rule:nonzero;stroke:none"
           id="path454" />
      </g>
      <g
         id="g456"
         transform="translate(216.4795,146.3415)">
        <path
           d="m 0,0 c -0.497,0.24 -0.952,0.143 -1.02,-0.277 -0.065,-0.419 -0.603,-5.927 -0.615,-6.303 -0.017,-0.378 0.369,-0.742 0.921,-0.562 0.552,0.181 9.331,2.829 9.331,2.829 0,0 -8.12,4.074 -8.617,4.313"
           style="fill:#3aaadc;fill-opacity:1;fill-rule:nonzero;stroke:none"
           id="path458" />
      </g>
      <g
         id="g460"
         transform="translate(146.5086,155.788)">
        <path
           d="M 0,0 C -0.343,-0.432 -0.347,-0.898 0.047,-1.055 0.443,-1.211 5.7,-2.937 6.064,-3.034 6.429,-3.132 6.868,-2.835 6.814,-2.256 6.758,-1.678 6.091,7.467 6.091,7.467 6.091,7.467 0.341,0.432 0,0"
           style="fill:#1a171b;fill-opacity:1;fill-rule:nonzero;stroke:none"
           id="path462" />
      </g>
      <g
         id="g464"
         transform="translate(151.7545,154.8698)">
        <path
           d="m 0,0 c -0.341,-0.431 -0.347,-0.897 0.048,-1.054 0.395,-0.156 5.653,-1.884 6.016,-1.98 0.365,-0.097 0.806,0.2 0.75,0.778 C 6.759,-1.676 6.093,7.466 6.093,7.466 6.093,7.466 0.343,0.432 0,0"
           style="fill:#97be0d;fill-opacity:1;fill-rule:nonzero;stroke:none"
           id="path466" />
      </g>
      <g
         id="g468"
         transform="translate(153.1462,153.862)">
        <path
           d="m 0,0 c -0.343,-0.431 -0.347,-0.898 0.047,-1.055 0.396,-0.155 5.654,-1.882 6.017,-1.979 0.365,-0.098 0.806,0.2 0.75,0.778 C 6.758,-1.678 6.093,7.467 6.093,7.467 6.093,7.467 0.343,0.432 0,0"
           style="fill:#3aaadc;fill-opacity:1;fill-rule:nonzero;stroke:none"
           id="path470" />
      </g>
      <g
         id="g472"
         transform="translate(184.4918,98.5748)">
        <path
           d="m 0,0 c -0.41,0.369 -0.876,0.4 -1.055,0.015 -0.18,-0.385 -2.214,-5.531 -2.332,-5.888 -0.119,-0.358 0.152,-0.816 0.732,-0.795 0.58,0.021 9.747,0.145 9.747,0.145 0,0 -6.68,6.157 -7.092,6.523"
           style="fill:#1a171b;fill-opacity:1;fill-rule:nonzero;stroke:none"
           id="path474" />
      </g>
      <g
         id="g476"
         transform="translate(188.2049,102.5234)">
        <path
           d="m 0,0 c -0.412,0.366 -0.877,0.399 -1.057,0.014 -0.178,-0.385 -2.213,-5.531 -2.331,-5.889 -0.118,-0.357 0.152,-0.816 0.732,-0.794 0.58,0.021 9.748,0.146 9.748,0.146 0,0 -6.682,6.156 -7.092,6.523"
           style="fill:#97be0d;fill-opacity:1;fill-rule:nonzero;stroke:none"
           id="path478" />
      </g>
      <g
         id="g480"
         transform="translate(191.0317,105.8093)">
        <path
           d="m 0,0 c -0.411,0.367 -0.877,0.399 -1.056,0.014 -0.179,-0.384 -2.215,-5.53 -2.332,-5.889 -0.118,-0.357 0.152,-0.814 0.731,-0.793 0.581,0.021 9.749,0.145 9.749,0.145 0,0 -6.681,6.156 -7.092,6.523"
           style="fill:#3aaadc;fill-opacity:1;fill-rule:nonzero;stroke:none"
           id="path482" />
      </g>
      <g
         id="g484"
         transform="translate(129.2316,126.8253)">
        <path
           d="m 0,0 c -0.345,-0.43 -0.352,-0.896 0.042,-1.055 0.394,-0.159 5.642,-1.915 6.006,-2.013 0.364,-0.1 0.805,0.194 0.753,0.774 C 6.75,-1.716 6.135,7.431 6.135,7.431 6.135,7.431 0.345,0.43 0,0"
           style="fill:#1a171b;fill-opacity:1;fill-rule:nonzero;stroke:none"
           id="path486" />
      </g>
      <g
         id="g488"
         transform="translate(126.1682,130.1712)">
        <path
           d="M 0,0 C -0.344,-0.43 -0.352,-0.897 0.042,-1.056 0.437,-1.214 5.684,-2.97 6.048,-3.069 6.412,-3.168 6.853,-2.874 6.801,-2.296 6.749,-1.716 6.135,7.431 6.135,7.431 6.135,7.431 0.345,0.43 0,0"
           style="fill:#97be0d;fill-opacity:1;fill-rule:nonzero;stroke:none"
           id="path490" />
      </g>
      <g
         id="g492"
         transform="translate(123.7702,136.3979)">
        <path
           d="M 0,0 C -0.344,-0.43 -0.352,-0.897 0.042,-1.055 0.436,-1.214 5.683,-2.97 6.048,-3.069 6.412,-3.168 6.853,-2.874 6.801,-2.296 6.749,-1.717 6.135,7.431 6.135,7.431 6.135,7.431 0.345,0.43 0,0"
           style="fill:#3aaadc;fill-opacity:1;fill-rule:nonzero;stroke:none"
           id="path494" />
      </g>
      <g
         id="g496"
         transform="translate(95.5985,130.5914)">
        <path
           d="m 0,0 c -0.535,0.137 -0.962,-0.051 -0.943,-0.474 0.019,-0.424 0.593,-5.928 0.655,-6.3 0.061,-0.373 0.512,-0.653 1.016,-0.366 0.505,0.287 8.577,4.635 8.577,4.635 0,0 -8.772,2.37 -9.305,2.505"
           style="fill:#1a171b;fill-opacity:1;fill-rule:nonzero;stroke:none"
           id="path498" />
      </g>
      <g
         id="g500"
         transform="translate(96.6051,137.3799)">
        <path
           d="m 0,0 c -0.535,0.137 -0.962,-0.051 -0.943,-0.474 0.019,-0.424 0.593,-5.928 0.655,-6.3 0.061,-0.374 0.512,-0.654 1.016,-0.367 0.505,0.288 8.576,4.636 8.576,4.636 0,0 -8.771,2.37 -9.304,2.505"
           style="fill:#97be0d;fill-opacity:1;fill-rule:nonzero;stroke:none"
           id="path502" />
      </g>
      <g
         id="g504"
         transform="translate(91.9385,141.1282)">
        <path
           d="m 0,0 c -0.535,0.136 -0.962,-0.05 -0.943,-0.475 0.019,-0.424 0.593,-5.928 0.654,-6.3 0.062,-0.372 0.512,-0.654 1.016,-0.366 0.506,0.287 8.577,4.636 8.577,4.636 0,0 -8.771,2.37 -9.304,2.505"
           style="fill:#3aaadc;fill-opacity:1;fill-rule:nonzero;stroke:none"
           id="path506" />
      </g>
    </g>
  </g>
</svg>
