<?xml version="1.0" encoding="UTF-8" standalone="no"?>
<svg
   xmlns:dc="http://purl.org/dc/elements/1.1/"
   xmlns:cc="http://creativecommons.org/ns#"
   xmlns:rdf="http://www.w3.org/1999/02/22-rdf-syntax-ns#"
   xmlns:svg="http://www.w3.org/2000/svg"
   xmlns="http://www.w3.org/2000/svg"
   width="264.58334mm"
   height="140.18332mm"
   viewBox="0 0 264.58334 140.18332"
   version="1.1"
   id="svg3380">
  <defs
     id="defs3374">
    <clipPath
       clipPathUnits="userSpaceOnUse"
       id="clipPath388">
      <path
         d="M 0,0 H 595.276 V 841.89 H 0 Z"
         id="path386" />
    </clipPath>
    <clipPath
       clipPathUnits="userSpaceOnUse"
       id="clipPath372">
      <path
         d="M 0,0 H 595.276 V 841.89 H 0 Z"
         id="path370" />
    </clipPath>
    <clipPath
       clipPathUnits="userSpaceOnUse"
       id="clipPath352">
      <path
         d="M 0,0 H 595.276 V 841.89 H 0 Z"
         id="path350" />
    </clipPath>
    <clipPath
       clipPathUnits="userSpaceOnUse"
       id="clipPath316">
      <path
         d="M 0,0 H 595.276 V 841.89 H 0 Z"
         id="path314" />
    </clipPath>
    <clipPath
       clipPathUnits="userSpaceOnUse"
       id="clipPath292">
      <path
         d="M 0,0 H 595.276 V 841.89 H 0 Z"
         id="path290" />
    </clipPath>
    <clipPath
       clipPathUnits="userSpaceOnUse"
       id="clipPath236">
      <path
         d="M 0,0 H 595.276 V 841.89 H 0 Z"
         id="path234" />
    </clipPath>
  </defs>
  <metadata
     id="metadata3377">
    <rdf:RDF>
      <cc:Work
         rdf:about="">
        <dc:format>image/svg+xml</dc:format>
        <dc:type
           rdf:resource="http://purl.org/dc/dcmitype/StillImage" />
        <dc:title></dc:title>
      </cc:Work>
    </rdf:RDF>
  </metadata>
  <g
     id="layer1"
     transform="matrix(0.26458333,0,0,0.26458333,44.681448,124.36144)">
    <g
       id="g3644"
       transform="matrix(19.230847,0,0,19.230847,3078.7324,-1090.1909)">
      <g
         id="g230"
         transform="matrix(0.35277777,0,0,-0.35277777,-251.07494,271.43084)">
        <g
           clip-path="url(#clipPath236)"
           id="g232">
          <g
             transform="translate(345.9771,639.8691)"
             id="g238">
            <path
               id="path240"
               style="fill:#ffffff;fill-opacity:1;fill-rule:nonzero;stroke:none"
               d="m 0,0 c -1.98,0 -3.353,-1.098 -3.718,-3.018 0,0 -0.098,-0.61 -0.086,-1.289 l 4.567,1.289 0.476,0.134 2.063,0.582 C 2.866,-0.942 1.827,0 0,0" />
          </g>
          <g
             transform="translate(369.6985,664.813)"
             id="g242">
            <path
               id="path244"
               style="fill:#ffffff;fill-opacity:1;fill-rule:nonzero;stroke:none"
               d="m 0,0 0.46,0.184 1.99,0.794 c -0.575,1.307 -1.707,2.135 -3.524,1.944 -1.97,-0.207 -3.219,-1.443 -3.382,-3.39 0,0 -0.034,-0.617 0.049,-1.291 z" />
          </g>
          <g
             transform="translate(300.3931,619.9272)"
             id="g246">
            <path
               id="path248"
               style="fill:#ffffff;fill-opacity:1;fill-rule:nonzero;stroke:none"
               d="m 0,0 c -2.274,0.239 -3.901,-1.245 -4.147,-3.579 -0.245,-2.334 1.035,-4.155 3.309,-4.394 2.274,-0.239 3.874,1.279 4.119,3.613 C 3.527,-2.026 2.274,-0.239 0,0" />
          </g>
          <g
             transform="translate(313.5593,658.9294)"
             id="g250">
            <path
               id="path252"
               style="fill:#ffffff;fill-opacity:1;fill-rule:nonzero;stroke:none"
               d="m 0,0 0.46,0.184 1.99,0.794 c -0.575,1.307 -1.707,2.135 -3.524,1.944 -1.97,-0.207 -3.219,-1.443 -3.382,-3.39 0,0 -0.034,-0.617 0.049,-1.291 z" />
          </g>
          <g
             transform="translate(378.968,648.7766)"
             id="g254">
            <path
               id="path256"
               style="fill:#ffffff;fill-opacity:1;fill-rule:nonzero;stroke:none"
               d="m 0,0 h -21.195 v 1.652 l 20.9,2.197 c 0.38,0.04 0.729,0.229 0.969,0.526 0.241,0.298 0.354,0.678 0.314,1.058 L -1.377,27.93 c -0.083,0.792 -0.79,1.366 -1.584,1.283 L -144.669,14.274 c -0.792,-0.084 -1.366,-0.793 -1.283,-1.585 l 0.422,-16.272 v -18.394 l -0.176,-13.93 c -0.04,-0.38 0.073,-0.76 0.313,-1.058 0.241,-0.297 0.59,-0.486 0.97,-0.526 L -36.61,-48.868 c 0.051,-0.005 0.102,-0.008 0.152,-0.008 0.729,0 1.354,0.55 1.432,1.291 l 2.383,22.673 H 0 c 0.796,0 1.441,0.646 1.441,1.442 V -1.441 C 1.441,-0.645 0.796,0 0,0 m -9.502,26.698 0.266,-2.42 -3.828,-1.688 -0.179,1.628 z m -1.139,-5.197 c 3.037,0.319 5.313,-1.04 6.494,-3.419 0.324,-0.652 0.563,-1.379 0.715,-2.171 l -4.783,-1.909 -4.626,-1.847 c 0.761,-0.985 1.989,-1.495 3.688,-1.316 1.668,0.175 2.81,0.969 3.465,1.743 l 1.986,-1.693 C -4.76,9.583 -6.305,8.531 -8.851,8.264 c -3.022,-0.318 -5.443,0.795 -6.782,2.777 -0.417,0.617 -0.723,1.321 -0.914,2.09 -0.082,0.329 -0.15,0.666 -0.187,1.018 -0.398,3.788 2.273,6.95 6.093,7.352 m -7.888,-1.071 0.265,-2.513 -2.936,-0.309 1.085,-10.327 -2.83,-0.297 -1.085,10.327 -2.915,-0.306 -0.264,2.513 z m -15.51,-1.652 2.818,0.296 1.674,0.176 0.263,-2.504 -1.673,-0.175 0.818,-7.779 1.673,0.176 0.263,-2.504 -1.673,-0.176 -2.819,-0.296 -1.674,-0.176 -0.263,2.504 1.674,0.176 -0.818,7.778 -1.673,-0.176 -0.264,2.504 z m 2.705,-22.152 -0.007,-1.638 -3.984,1.279 0.012,2.435 z m -11.75,13.728 c -1.934,0.317 -3.906,0.999 -4.171,3.516 -0.267,2.545 1.636,3.971 4.153,4.236 2.031,0.213 3.545,-0.485 4.626,-1.444 l -1.603,-1.947 c -0.68,0.634 -1.616,1.087 -2.768,0.966 -1.152,-0.121 -1.745,-0.613 -1.665,-1.37 0.102,-0.97 0.913,-1.099 2.968,-1.405 2.054,-0.304 4.32,-0.863 4.604,-3.562 0.229,-2.182 -0.917,-4.112 -4.524,-4.491 -2.91,-0.306 -4.984,0.764 -5.977,2.039 l 1.94,1.675 c 0.905,-1.038 2.142,-1.431 3.597,-1.277 1.546,0.162 2.189,0.752 2.1,1.601 -0.109,1.03 -1.065,1.083 -3.28,1.463 m -5.453,-27.249 h 1.682 v 7.822 h -1.682 v 2.518 h 1.682 2.834 1.683 v -2.518 h -1.682 v -7.822 h 1.682 v -2.517 h -1.682 -2.834 -1.683 z m -35.436,30.431 3.169,-5.369 c 0.597,-1.01 1.076,-1.776 1.076,-1.776 0,0 0.278,0.846 0.622,1.954 l 1.984,5.911 3.122,0.328 -5.09,-13.686 -0.394,-0.041 -7.885,12.322 z m 3.644,-30.588 c 1.59,0 2.364,0.846 2.364,2.584 v 7.934 h 2.837 v -8.006 c 0,-3.134 -1.984,-5.08 -5.177,-5.08 -3.287,0 -5.249,1.898 -5.249,5.08 v 8.006 h 2.836 v -7.934 c 0,-1.738 0.781,-2.584 2.389,-2.584 m -7.021,0.118 v -2.455 h -7.584 v 12.87 h 2.814 v -10.415 z m -6.247,29.469 2.819,0.296 1.674,0.176 0.263,-2.504 -1.673,-0.175 0.818,-7.779 1.673,0.176 0.263,-2.504 -1.673,-0.176 -2.819,-0.296 -1.674,-0.176 -0.263,2.504 1.673,0.176 -0.818,7.778 -1.672,-0.176 -0.264,2.504 z m -13.481,-1.428 0.188,-2.372 c 0.613,1.751 2.118,2.889 4.027,3.09 2.82,0.296 4.971,-1.501 5.334,-4.956 l 0.793,-7.549 -3.062,-0.321 -0.768,7.305 c -0.191,1.819 -1.152,2.791 -2.939,2.603 -2.002,-0.21 -3.178,-1.56 -2.961,-3.622 l 0.726,-6.911 -3.062,-0.322 -1.338,12.733 z m 5.473,-23.623 v -2.7 h -39.269 l 0.005,2.7 z m -19.239,22.154 0.829,-7.89 c 0.182,-1.73 1.047,-2.488 2.647,-2.321 1.581,0.167 2.263,1.088 2.081,2.818 l -0.829,7.89 2.82,0.296 0.837,-7.963 c 0.327,-3.115 -1.441,-5.258 -4.616,-5.592 -3.269,-0.344 -5.419,1.34 -5.752,4.502 l -0.837,7.964 z m -6.937,-6.714 0.282,-2.685 -13.132,-1.38 -0.302,2.682 z m 15.589,-33.487 -28.742,3.021 0.239,2.689 28.786,-3.026 z m 13.685,-6.657 -7.541,0.793 1.345,12.799 2.799,-0.294 -1.089,-10.357 4.743,-0.499 z m 6.771,-0.692 -2.802,0.295 0.429,4.078 -3.838,9.125 3.184,-0.335 1.743,-4.296 c 0.298,-0.715 0.523,-1.404 0.646,-1.809 0.209,0.379 0.575,1.019 0.985,1.636 l 2.572,3.844 3.014,-0.316 -5.499,-8.094 z m 19.595,4.371 c -0.398,-3.789 -3.669,-6.326 -7.549,-5.919 -3.85,0.405 -6.583,3.573 -6.184,7.363 0.398,3.789 3.73,6.32 7.58,5.916 3.88,-0.408 6.551,-3.57 6.153,-7.36 m -0.546,40.789 c -0.082,0.328 -0.149,0.665 -0.186,1.017 -0.398,3.789 2.273,6.951 6.093,7.352 3.037,0.319 5.313,-1.039 6.494,-3.419 0.323,-0.651 0.563,-1.379 0.715,-2.17 l -4.783,-1.91 -4.626,-1.847 c 0.761,-0.985 1.99,-1.494 3.688,-1.316 1.668,0.176 2.811,0.969 3.465,1.743 l 1.986,-1.692 C -60.899,3.7 -62.444,2.648 -64.99,2.38 c -3.022,-0.317 -5.443,0.796 -6.782,2.777 -0.417,0.617 -0.723,1.322 -0.915,2.091 m 15.976,-41.216 -0.794,-7.548 -3.062,0.322 0.768,7.306 c 0.191,1.819 -0.546,2.969 -2.334,3.157 -2.002,0.21 -3.433,-0.865 -3.649,-2.927 l -0.727,-6.912 -3.062,0.322 1.339,12.732 3.061,-0.321 -0.308,-2.359 c 0.963,1.585 2.671,2.387 4.581,2.186 2.82,-0.296 4.55,-2.501 4.187,-5.958 m 4.761,14.579 h -3.079 v 7.498 c 0,1.769 -0.639,2.744 -2.407,2.744 -1.799,0 -2.866,-1.098 -2.866,-3.232 v -7.01 h -3.078 v 7.498 c 0,1.769 -0.61,2.744 -2.378,2.744 -1.829,0 -2.896,-1.098 -2.896,-3.232 v -7.01 h -3.079 v 12.802 h 3.079 l -0.061,-2.194 c 0.853,1.615 2.165,2.469 3.81,2.469 1.859,0 3.08,-0.885 3.75,-2.438 1.005,1.523 2.53,2.438 4.389,2.438 3.018,0 4.816,-2.012 4.816,-5.274 z m 0.569,33.683 c -1.819,-0.191 -2.95,-1.383 -2.651,-4.232 l 0.65,-6.185 -3.062,-0.322 -1.338,12.733 3.062,0.322 0.221,-2.398 c 0.639,2.089 2.028,2.879 3.422,3.026 0.909,0.095 1.568,-0.05 2.149,-0.327 l -0.741,-2.866 c -0.511,0.191 -1.015,0.322 -1.712,0.249 m 13.242,-48.866 c -0.162,-1.536 -1.261,-3.061 -3.267,-4.535 l -1.256,-0.928 c -0.266,-0.193 -0.643,-0.415 -0.948,-0.588 0.329,-0.009 0.719,-0.025 0.946,-0.048 l 4.061,-0.427 -0.256,-2.438 -10.341,1.088 0.049,0.466 0.051,0.041 5.412,4.315 c 1.711,1.363 2.537,2.068 2.657,3.209 0.109,1.032 -0.521,1.747 -1.643,1.865 -1.134,0.119 -1.964,-0.48 -2.614,-1.886 l -0.061,-0.136 -2.554,1.016 0.052,0.143 c 0.878,2.408 2.905,3.688 5.423,3.424 2.822,-0.297 4.545,-2.138 4.289,-4.581 m 5.484,17.465 c 1.676,0 2.896,0.67 3.627,1.371 l 1.799,-1.89 c -1.189,-1.189 -2.835,-2.073 -5.396,-2.073 -3.038,0 -5.33,1.36 -6.454,3.47 -0.35,0.657 -0.581,1.39 -0.691,2.175 -0.047,0.335 -0.079,0.677 -0.079,1.031 0,3.81 2.987,6.675 6.828,6.675 3.054,0 5.175,-1.589 6.101,-4.079 0.254,-0.682 0.416,-1.431 0.484,-2.234 l -4.956,-1.398 -4.794,-1.354 c 0.654,-1.059 1.822,-1.694 3.531,-1.694 m 14.769,7.868 c -1.829,0 -3.079,-1.067 -3.079,-3.932 v -6.218 h -3.078 v 12.802 h 3.078 l -0.03,-2.407 c 0.853,2.011 2.317,2.651 3.719,2.651 0.914,0 1.554,-0.213 2.103,-0.548 l -1.036,-2.775 c -0.489,0.245 -0.976,0.427 -1.677,0.427 m 9.893,-7.868 c 1.677,0 2.896,0.67 3.628,1.371 l 1.798,-1.89 c -1.188,-1.189 -2.834,-2.073 -5.395,-2.073 -3.038,0 -5.33,1.36 -6.454,3.47 -0.35,0.657 -0.581,1.39 -0.691,2.175 -0.048,0.335 -0.08,0.677 -0.08,1.031 0,3.81 2.988,6.675 6.829,6.675 3.053,0 5.175,-1.589 6.101,-4.079 0.253,-0.682 0.416,-1.431 0.484,-2.234 l -4.956,-1.398 -4.795,-1.354 c 0.655,-1.059 1.823,-1.694 3.531,-1.694" />
          </g>
          <g
             transform="translate(370.6396,639.8691)"
             id="g258">
            <path
               id="path260"
               style="fill:#ffffff;fill-opacity:1;fill-rule:nonzero;stroke:none"
               d="m 0,0 c -1.98,0 -3.353,-1.098 -3.718,-3.018 0,0 -0.098,-0.61 -0.086,-1.289 l 4.567,1.289 0.476,0.134 2.063,0.582 C 2.866,-0.942 1.827,0 0,0" />
          </g>
          <g
             transform="translate(261.8926,645.6526)"
             id="g262">
            <path
               id="path264"
               style="fill:#ef3645;fill-opacity:1;fill-rule:nonzero;stroke:none"
               d="M 0,0 C 3.175,0.334 4.943,2.477 4.616,5.592 L 3.779,13.555 0.959,13.259 1.788,5.369 C 1.97,3.639 1.289,2.718 -0.293,2.552 -1.892,2.384 -2.757,3.142 -2.939,4.872 l -0.829,7.89 -2.82,-0.296 0.837,-7.964 C -5.419,1.34 -3.269,-0.344 0,0" />
          </g>
          <g
             transform="translate(273.2283,647.1506)"
             id="g266">
            <path
               id="path268"
               style="fill:#ef3645;fill-opacity:1;fill-rule:nonzero;stroke:none"
               d="m 0,0 -0.726,6.911 c -0.217,2.062 0.959,3.412 2.96,3.622 1.788,0.188 2.749,-0.784 2.94,-2.603 L 5.942,0.625 9.004,0.946 8.21,8.495 C 7.847,11.95 5.697,13.747 2.877,13.451 0.967,13.25 -0.537,12.112 -1.15,10.361 L -1.338,12.733 -4.4,12.411 -3.062,-0.322 Z" />
          </g>
          <g
             transform="translate(299.8782,649.675)"
             id="g270">
            <path
               id="path272"
               style="fill:#ef3645;fill-opacity:1;fill-rule:nonzero;stroke:none"
               d="M 0,0 5.09,13.686 1.968,13.357 -0.016,7.447 C -0.36,6.338 -0.638,5.493 -0.638,5.493 c 0,0 -0.479,0.766 -1.076,1.775 l -3.169,5.369 -3.396,-0.357 7.885,-12.322 z" />
          </g>
          <g
             transform="translate(327.8906,666.0142)"
             id="g274">
            <path
               id="path276"
               style="fill:#ef3645;fill-opacity:1;fill-rule:nonzero;stroke:none"
               d="m 0,0 c -1.394,-0.146 -2.783,-0.936 -3.421,-3.026 l -0.222,2.399 -3.061,-0.322 1.338,-12.733 3.062,0.321 -0.65,6.185 c -0.3,2.85 0.832,4.041 2.651,4.232 0.697,0.073 1.2,-0.057 1.712,-0.248 L 2.15,-0.326 C 1.569,-0.05 0.909,0.096 0,0" />
          </g>
          <g
             transform="translate(337.0637,656.0662)"
             id="g278">
            <path
               id="path280"
               style="fill:#ef3645;fill-opacity:1;fill-rule:nonzero;stroke:none"
               d="m 0,0 c -1.454,-0.153 -2.691,0.239 -3.597,1.277 l -1.94,-1.674 c 0.993,-1.276 3.067,-2.345 5.977,-2.04 3.608,0.38 4.754,2.309 4.524,4.492 C 4.681,4.754 2.415,5.312 0.36,5.616 -1.694,5.922 -2.506,6.052 -2.608,7.021 -2.687,7.779 -2.095,8.27 -0.943,8.391 0.209,8.512 1.146,8.06 1.825,7.425 L 3.428,9.373 C 2.347,10.331 0.833,11.03 -1.198,10.816 -3.715,10.552 -5.618,9.126 -5.351,6.58 -5.086,4.063 -3.114,3.381 -1.179,3.064 1.036,2.684 1.992,2.631 2.1,1.601 2.189,0.752 1.546,0.162 0,0" />
          </g>
        </g>
      </g>
      <g
         transform="matrix(0.35277777,0,0,-0.35277777,-150.30952,39.018067)"
         id="g282">
        <path
           id="path284"
           style="fill:#ef3645;fill-opacity:1;fill-rule:nonzero;stroke:none"
           d="m 0,0 0.818,-7.779 -1.673,-0.175 0.263,-2.504 1.674,0.176 2.819,0.296 L 5.573,-9.81 5.31,-7.306 3.638,-7.482 2.82,0.296 4.493,0.472 4.23,2.976 2.556,2.8 -0.263,2.504 -1.936,2.328 -1.673,-0.176 Z" />
      </g>
      <g
         id="g286"
         transform="matrix(0.35277777,0,0,-0.35277777,-251.07494,271.43084)">
        <g
           clip-path="url(#clipPath292)"
           id="g288">
          <g
             transform="translate(313.978,651.157)"
             id="g294">
            <path
               id="path296"
               style="fill:#ef3645;fill-opacity:1;fill-rule:nonzero;stroke:none"
               d="M 0,0 C 2.546,0.268 4.091,1.319 5.149,2.625 L 3.163,4.318 C 2.509,3.544 1.366,2.75 -0.302,2.575 -2,2.396 -3.229,2.906 -3.99,3.891 L 0.636,5.738 5.419,7.647 C 5.267,8.439 5.027,9.167 4.704,9.818 3.523,12.197 1.247,13.556 -1.79,13.237 -5.61,12.835 -8.281,9.674 -7.883,5.885 -7.846,5.533 -7.779,5.196 -7.697,4.867 -7.505,4.098 -7.199,3.394 -6.782,2.777 -5.443,0.795 -3.022,-0.318 0,0 m -4.875,7.304 c 0.163,1.948 1.413,3.184 3.383,3.391 1.816,0.19 2.949,-0.638 3.523,-1.944 L 0.041,7.956 -0.419,7.772 -4.826,6.013 c -0.082,0.674 -0.049,1.291 -0.049,1.291" />
          </g>
        </g>
      </g>
      <g
         transform="matrix(0.35277777,0,0,-0.35277777,-125.86071,36.449949)"
         id="g298">
        <path
           id="path300"
           style="fill:#ef3645;fill-opacity:1;fill-rule:nonzero;stroke:none"
           d="M 0,0 1.085,-10.327 3.916,-10.03 2.83,0.297 5.766,0.606 5.501,3.119 -3.179,2.207 -2.915,-0.306 Z" />
      </g>
      <g
         transform="matrix(0.35277777,0,0,-0.35277777,-129.29874,36.815641)"
         id="g302">
        <path
           id="path304"
           style="fill:#ef3645;fill-opacity:1;fill-rule:nonzero;stroke:none"
           d="m 0,0 0.818,-7.779 -1.674,-0.176 0.263,-2.503 1.674,0.176 L 3.9,-9.986 5.573,-9.81 5.309,-7.307 3.636,-7.482 2.819,0.296 4.492,0.472 4.229,2.976 2.555,2.8 -0.263,2.503 -1.937,2.328 -1.674,-0.176 Z" />
      </g>
      <g
         transform="matrix(0.35277777,0,0,-0.35277777,-120.64182,33.992219)"
         id="g306">
        <path
           id="path308"
           style="fill:#ef3645;fill-opacity:1;fill-rule:nonzero;stroke:none"
           d="m 0,0 -0.266,2.42 -3.741,-2.48 0.179,-1.628 z" />
      </g>
      <g
         id="g310"
         transform="matrix(0.35277777,0,0,-0.35277777,-251.07494,271.43084)">
        <g
           clip-path="url(#clipPath316)"
           id="g312">
          <g
             transform="translate(362.4207,661.908)"
             id="g318">
            <path
               id="path320"
               style="fill:#ef3645;fill-opacity:1;fill-rule:nonzero;stroke:none"
               d="m 0,0 c 0.192,-0.769 0.498,-1.473 0.915,-2.091 1.338,-1.981 3.76,-3.094 6.781,-2.776 2.547,0.267 4.091,1.319 5.149,2.625 L 10.859,-0.55 C 10.205,-1.323 9.063,-2.117 7.395,-2.292 5.696,-2.471 4.467,-1.962 3.706,-0.976 L 8.333,0.871 13.115,2.78 C 12.964,3.571 12.724,4.299 12.401,4.95 11.219,7.33 8.943,8.688 5.907,8.369 2.087,7.968 -0.585,4.806 -0.187,1.018 -0.15,0.666 -0.082,0.329 0,0 M 2.822,2.437 C 2.984,4.385 4.234,5.62 6.204,5.827 8.021,6.018 9.153,5.19 9.728,3.883 L 7.738,3.089 7.278,2.905 2.871,1.146 C 2.788,1.82 2.822,2.437 2.822,2.437" />
          </g>
          <g
             transform="translate(290.1511,623.4028)"
             id="g322">
            <path
               id="path324"
               style="fill:#ef3645;fill-opacity:1;fill-rule:nonzero;stroke:none"
               d="m 0,0 -2.572,-3.844 c -0.41,-0.617 -0.776,-1.258 -0.985,-1.636 -0.123,0.405 -0.348,1.093 -0.646,1.809 l -1.743,4.296 -3.184,0.335 3.838,-9.125 -0.429,-4.079 2.802,-0.294 0.434,4.127 5.499,8.094 z" />
          </g>
          <g
             transform="translate(300.6736,622.5952)"
             id="g326">
            <path
               id="path328"
               style="fill:#ef3645;fill-opacity:1;fill-rule:nonzero;stroke:none"
               d="m 0,0 c -3.85,0.405 -7.182,-2.126 -7.58,-5.916 -0.398,-3.789 2.335,-6.958 6.184,-7.362 3.881,-0.408 7.151,2.129 7.55,5.919 C 6.552,-3.57 3.88,-0.408 0,0 m 3.001,-7.028 c -0.245,-2.334 -1.845,-3.852 -4.12,-3.613 -2.273,0.239 -3.554,2.06 -3.308,4.394 0.245,2.334 1.873,3.818 4.146,3.579 2.274,-0.239 3.527,-2.026 3.282,-4.36" />
          </g>
          <g
             transform="translate(318.0698,620.7668)"
             id="g330">
            <path
               id="path332"
               style="fill:#ef3645;fill-opacity:1;fill-rule:nonzero;stroke:none"
               d="m 0,0 c -1.909,0.201 -3.618,-0.601 -4.581,-2.186 l 0.309,2.358 -3.062,0.322 -1.338,-12.732 3.061,-0.322 0.727,6.912 c 0.217,2.062 1.647,3.137 3.649,2.927 1.788,-0.188 2.526,-1.338 2.334,-3.158 l -0.767,-7.305 3.061,-0.322 0.794,7.548 C 4.55,-2.502 2.82,-0.297 0,0" />
          </g>
          <g
             transform="translate(336.5398,618.7854)"
             id="g334">
            <path
               id="path336"
               style="fill:#ef3645;fill-opacity:1;fill-rule:nonzero;stroke:none"
               d="m 0,0 c -2.518,0.264 -4.545,-1.016 -5.422,-3.424 l -0.053,-0.143 2.554,-1.016 0.062,0.136 c 0.649,1.406 1.48,2.005 2.613,1.886 1.122,-0.118 1.752,-0.832 1.643,-1.864 -0.12,-1.141 -0.946,-1.847 -2.657,-3.21 l -5.411,-4.315 -0.052,-0.041 -0.049,-0.466 10.342,-1.087 0.256,2.437 -4.061,0.427 c -0.228,0.024 -0.617,0.039 -0.947,0.049 0.306,0.172 0.682,0.394 0.949,0.587 l 1.255,0.928 c 2.006,1.474 3.105,2.999 3.267,4.535 C 4.546,-2.138 2.822,-0.297 0,0" />
          </g>
        </g>
      </g>
      <g
         transform="matrix(0.35277777,0,0,-0.35277777,-153.33303,50.996)"
         id="g338">
        <path
           id="path340"
           style="fill:#ef3645;fill-opacity:1;fill-rule:nonzero;stroke:none"
           d="m 0,0 -2.799,0.294 -1.345,-12.799 7.542,-0.793 0.257,2.442 -4.744,0.499 z" />
      </g>
      <g
         transform="matrix(0.35277777,0,0,-0.35277777,-150.87392,44.856749)"
         id="g342">
        <path
           id="path344"
           style="fill:#ef3645;fill-opacity:1;fill-rule:nonzero;stroke:none"
           d="m 0,0 v -12.87 h 7.583 v 2.456 H 2.814 V 0 Z" />
      </g>
      <g
         id="g346"
         transform="matrix(0.35277777,0,0,-0.35277777,-251.07494,271.43084)">
        <g
           clip-path="url(#clipPath352)"
           id="g348">
          <g
             transform="translate(322.2019,642.4648)"
             id="g354">
            <path
               id="path356"
               style="fill:#ef3645;fill-opacity:1;fill-rule:nonzero;stroke:none"
               d="M 0,0 C -1.859,0 -3.384,-0.916 -4.389,-2.438 -5.059,-0.885 -6.28,0 -8.139,0 c -1.645,0 -2.957,-0.854 -3.809,-2.469 l 0.06,2.194 h -3.079 v -12.803 h 3.079 v 7.011 c 0,2.134 1.067,3.231 2.896,3.231 1.768,0 2.378,-0.975 2.378,-2.743 v -7.499 h 3.079 v 7.011 c 0,2.134 1.066,3.231 2.865,3.231 1.768,0 2.408,-0.975 2.408,-2.743 v -7.499 h 3.078 v 7.804 C 4.816,-2.013 3.018,0 0,0" />
          </g>
          <g
             transform="translate(361.6917,642.4338)"
             id="g358">
            <path
               id="path360"
               style="fill:#ef3645;fill-opacity:1;fill-rule:nonzero;stroke:none"
               d="m 0,0 c -1.402,0 -2.865,-0.64 -3.719,-2.652 l 0.031,2.408 h -3.079 v -12.803 h 3.079 v 6.218 c 0,2.866 1.25,3.933 3.078,3.933 0.701,0 1.189,-0.183 1.677,-0.427 l 1.037,2.775 C 1.555,-0.213 0.915,0 0,0" />
          </g>
        </g>
      </g>
      <g
         transform="matrix(0.35277777,0,0,-0.35277777,-132.91267,49.404973)"
         id="g362">
        <path
           id="path364"
           style="fill:#ef3645;fill-opacity:1;fill-rule:nonzero;stroke:none"
           d="M 0,0 H 1.682 V 2.517 H 0 v 7.821 h 1.682 v 2.519 h -1.683 -2.834 -1.683 v -2.519 h 1.683 V 2.517 H -4.518 V 0 h 1.684 z" />
      </g>
      <g
         id="g366"
         transform="matrix(0.35277777,0,0,-0.35277777,-251.07494,271.43084)">
        <g
           clip-path="url(#clipPath372)"
           id="g368">
          <g
             transform="translate(293.4143,642.2429)"
             id="g374">
            <path
               id="path376"
               style="fill:#ef3645;fill-opacity:1;fill-rule:nonzero;stroke:none"
               d="m 0,0 v -8.007 c 0,-3.181 1.962,-5.079 5.249,-5.079 3.193,0 5.177,1.946 5.177,5.079 V 0 H 7.589 v -7.934 c 0,-1.738 -0.774,-2.584 -2.364,-2.584 -1.609,0 -2.39,0.846 -2.39,2.584 V 0 Z" />
          </g>
        </g>
      </g>
      <g
         transform="matrix(0.35277777,0,0,-0.35277777,-129.84523,43.87384)"
         id="g378">
        <path
           id="path380"
           style="fill:#ef3645;fill-opacity:1;fill-rule:nonzero;stroke:none"
           d="M 0,0 3.983,-1.279 3.991,0.359 0.011,2.435 Z" />
      </g>
      <g
         id="g382"
         transform="matrix(0.35277777,0,0,-0.35277777,-251.07494,271.43084)">
        <g
           clip-path="url(#clipPath388)"
           id="g384">
          <g
             transform="translate(352.532,636.116)"
             id="g390">
            <path
               id="path392"
               style="fill:#ef3645;fill-opacity:1;fill-rule:nonzero;stroke:none"
               d="m 0,0 c -0.068,0.803 -0.23,1.552 -0.484,2.233 -0.926,2.49 -3.047,4.079 -6.101,4.079 -3.841,0 -6.828,-2.865 -6.828,-6.674 0,-0.354 0.032,-0.696 0.079,-1.032 0.11,-0.785 0.341,-1.517 0.691,-2.174 1.124,-2.111 3.416,-3.471 6.455,-3.471 2.56,0 4.206,0.885 5.395,2.073 l -1.799,1.89 c -0.731,-0.7 -1.95,-1.371 -3.627,-1.371 -1.708,0 -2.877,0.635 -3.531,1.695 l 4.794,1.353 z m -5.792,0.735 -4.567,-1.289 c -0.012,0.679 0.086,1.289 0.086,1.289 0.366,1.92 1.738,3.018 3.718,3.018 1.827,0 2.867,-0.942 3.302,-2.301 L -5.316,0.869 Z" />
          </g>
          <g
             transform="translate(377.1946,636.116)"
             id="g394">
            <path
               id="path396"
               style="fill:#ef3645;fill-opacity:1;fill-rule:nonzero;stroke:none"
               d="m 0,0 c -0.068,0.803 -0.23,1.552 -0.484,2.233 -0.926,2.49 -3.047,4.079 -6.1,4.079 -3.842,0 -6.829,-2.865 -6.829,-6.674 0,-0.354 0.032,-0.696 0.079,-1.032 0.11,-0.785 0.341,-1.517 0.691,-2.174 1.124,-2.111 3.416,-3.471 6.455,-3.471 2.56,0 4.206,0.885 5.395,2.073 l -1.799,1.89 c -0.731,-0.7 -1.95,-1.371 -3.627,-1.371 -1.708,0 -2.877,0.635 -3.531,1.695 l 4.794,1.353 z m -5.792,0.735 -4.567,-1.289 c -0.012,0.679 0.086,1.289 0.086,1.289 0.366,1.92 1.738,3.018 3.718,3.018 1.827,0 2.867,-0.942 3.302,-2.301 L -5.316,0.869 Z" />
          </g>
        </g>
      </g>
      <g
         transform="matrix(0.35277777,0,0,-0.35277777,-167.0805,47.924611)"
         id="g398">
        <path
           id="path400"
           style="fill:#231f20;fill-opacity:1;fill-rule:nonzero;stroke:none"
           d="M 0,0 H 39.268 V 2.699 H 0.004 Z" />
      </g>
      <g
         transform="matrix(0.35277777,0,0,-0.35277777,-162.36238,42.472466)"
         id="g402">
        <path
           id="path404"
           style="fill:#231f20;fill-opacity:1;fill-rule:nonzero;stroke:none"
           d="M 0,0 -0.282,2.684 -13.433,1.302 -13.132,-1.38 Z" />
      </g>
      <g
         transform="matrix(0.35277777,0,0,-0.35277777,-167.10177,52.273162)"
         id="g406">
        <path
           id="path408"
           style="fill:#231f20;fill-opacity:1;fill-rule:nonzero;stroke:none"
           d="M 0,0 28.742,-3.021 29.024,-0.337 0.239,2.689 Z" />
      </g>
    </g>
  </g>
</svg>
