<?xml version="1.0" encoding="UTF-8" standalone="no"?>
<svg
   xmlns:dc="http://purl.org/dc/elements/1.1/"
   xmlns:cc="http://creativecommons.org/ns#"
   xmlns:rdf="http://www.w3.org/1999/02/22-rdf-syntax-ns#"
   xmlns:svg="http://www.w3.org/2000/svg"
   xmlns="http://www.w3.org/2000/svg"
   id="svg238"
   version="1.1"
   viewBox="0 0 1000.0005 359.91599"
   height="359.91599mm"
   width="1000.0005mm">
  <defs
     id="defs232">
    <clipPath
       clipPathUnits="userSpaceOnUse"
       id="clipPath46">
      <path
         d="M 0,0 H 191 V 80 H 0 Z"
         id="path44" />
    </clipPath>
  </defs>
  <metadata
     id="metadata235">
    <rdf:RDF>
      <cc:Work
         rdf:about="">
        <dc:format>image/svg+xml</dc:format>
        <dc:type
           rdf:resource="http://purl.org/dc/dcmitype/StillImage" />
        <dc:title></dc:title>
      </cc:Work>
    </rdf:RDF>
  </metadata>
  <g
     transform="translate(354.51429,41.323208)"
     id="layer1">
    <g
       transform="matrix(6.1462115,0,0,-6.1462115,-443.31629,392.88205)"
       id="g38" />
    <g
       transform="matrix(6.1462115,0,0,-6.1462115,-443.31629,392.88205)"
       id="g40">
      <g
         id="g42"
         clip-path="url(#clipPath46)">
        <path
           d="m 53.07,58.673 c -5.278,-0.296 -14.693,-0.97 -17.325,-6.507 -2.312,-4.864 3.99,-7.391 7.261,-9.315 3.286,-1.935 6.984,-4.348 7.805,-8.359 1.237,-6.039 -3.67,-11.261 -8.599,-13.761 -7.379,-3.744 -16.18,-4.091 -24.299,-4.09 -0.453,0 -0.453,-0.703 0,-0.703 10.819,-0.002 35.366,1.53 33.718,17.81 -0.629,6.215 -7.089,8.782 -11.686,11.685 -4.609,2.91 -5.257,6.895 0.291,9.781 3.83,1.992 8.589,2.517 12.834,2.756 0.45,0.025 0.452,0.728 0,0.703"
           style="fill:#80cc28;fill-opacity:1;fill-rule:nonzero;stroke:none"
           id="path48" />
        <path
           d="m 52.914,56.485 c -5.278,-0.296 -14.693,-0.97 -17.326,-6.507 -2.312,-4.864 3.991,-7.39 7.262,-9.315 3.285,-1.934 6.983,-4.348 7.805,-8.358 1.237,-6.039 -3.67,-11.261 -8.599,-13.762 -7.379,-3.744 -16.18,-4.09 -24.299,-4.089 -0.453,0 -0.453,-0.703 0,-0.703 10.819,-0.002 35.366,1.53 33.718,17.81 -0.629,6.214 -7.089,8.782 -11.686,11.685 -4.609,2.909 -5.257,6.894 0.291,9.78 3.83,1.993 8.588,2.518 12.834,2.756 0.449,0.026 0.452,0.729 0,0.703"
           style="fill:#231f20;fill-opacity:1;fill-rule:nonzero;stroke:none"
           id="path50" />
        <path
           d="m 49.945,60.079 c -5.278,-0.296 -14.693,-0.97 -17.325,-6.507 -2.312,-4.864 3.99,-7.39 7.261,-9.315 3.286,-1.935 6.984,-4.348 7.805,-8.359 1.237,-6.039 -3.67,-11.26 -8.599,-13.761 -7.379,-3.744 -16.18,-4.091 -24.299,-4.09 -0.453,0 -0.453,-0.703 0,-0.703 10.819,-0.002 35.366,1.53 33.718,17.81 -0.629,6.215 -7.089,8.783 -11.686,11.685 -4.609,2.91 -5.257,6.895 0.291,9.781 3.83,1.992 8.589,2.518 12.834,2.756 0.45,0.025 0.453,0.728 0,0.703"
           style="fill:#50ade5;fill-opacity:1;fill-rule:nonzero;stroke:none"
           id="path52" />
        <path
           d="M 66.716,55.758 C 64.778,49.431 63.182,42.737 62.53,36.145 61.844,29.203 61.448,20.222 64.72,13.769 c 0.205,-0.404 0.811,-0.049 0.607,0.354 -3.399,6.703 -2.857,16.319 -1.908,23.543 0.791,6.022 2.196,12.098 3.975,17.906 0.132,0.433 -0.546,0.618 -0.678,0.186"
           style="fill:#231f20;fill-opacity:1;fill-rule:nonzero;stroke:none"
           id="path54" />
        <path
           d="M 66.091,58.571 C 64.153,52.244 62.557,45.55 61.905,38.958 c -0.686,-6.942 -1.083,-15.924 2.19,-22.377 0.205,-0.404 0.811,-0.048 0.607,0.354 -3.399,6.703 -2.856,16.32 -1.908,23.543 0.791,6.022 2.196,12.099 3.975,17.906 0.132,0.434 -0.546,0.619 -0.678,0.187"
           style="fill:#80cc28;fill-opacity:1;fill-rule:nonzero;stroke:none"
           id="path56" />
        <path
           d="M 64.997,61.227 C 63.06,54.9 61.463,48.206 60.811,41.614 60.125,34.672 59.729,25.69 63.001,19.237 c 0.205,-0.404 0.811,-0.048 0.607,0.355 -3.398,6.702 -2.857,16.319 -1.908,23.543 0.791,6.022 2.196,12.098 3.975,17.905 0.133,0.434 -0.546,0.619 -0.678,0.187"
           style="fill:#50ade5;fill-opacity:1;fill-rule:nonzero;stroke:none"
           id="path58" />
        <path
           d="m 80.987,18.18 c -2.644,8.83 -4.524,17.132 -2.656,26.413 0.896,4.454 2.217,9.702 5.487,13.045 4.698,4.803 11.679,4.081 17.768,4.004 0.453,-0.006 0.453,0.697 0,0.703 C 95.935,62.416 89.922,63.007 85.034,59.56 81.445,57.029 79.781,52.789 78.608,48.707 75.536,38.012 77.199,28.378 80.31,17.993 c 0.129,-0.433 0.808,-0.248 0.677,0.187"
           style="fill:#50ade5;fill-opacity:1;fill-rule:nonzero;stroke:none"
           id="path60" />
        <path
           d="m 79.737,15.68 c -2.643,8.829 -4.524,17.131 -2.656,26.413 0.896,4.454 2.217,9.702 5.487,13.045 4.698,4.803 11.679,4.081 17.768,4.004 0.453,-0.006 0.453,0.697 0,0.703 C 94.684,59.916 88.672,60.507 83.784,57.06 80.195,54.529 78.531,50.29 77.358,46.207 74.286,35.512 75.95,25.878 79.06,15.493 c 0.129,-0.433 0.808,-0.248 0.677,0.187"
           style="fill:#80cc28;fill-opacity:1;fill-rule:nonzero;stroke:none"
           id="path62" />
        <path
           d="m 78.331,13.493 c -2.644,8.829 -4.524,17.131 -2.657,26.412 0.897,4.454 2.218,9.702 5.488,13.046 4.697,4.803 11.678,4.08 17.768,4.003 0.452,-0.006 0.452,0.697 0,0.703 -5.652,0.072 -11.664,0.663 -16.552,-2.784 -3.589,-2.532 -5.253,-6.771 -6.426,-10.854 -3.073,-10.694 -1.409,-20.328 1.701,-30.713 0.13,-0.433 0.808,-0.248 0.678,0.187"
           style="fill:#231f20;fill-opacity:1;fill-rule:nonzero;stroke:none"
           id="path64" />
        <path
           d="m 89.804,44.52 c -3.746,0.619 -8.274,0.657 -11.52,-1.598 -0.369,-0.257 -0.018,-0.866 0.354,-0.608 3.092,2.148 7.4,2.12 10.98,1.528 0.442,-0.073 0.633,0.604 0.186,0.678"
           style="fill:#80cc28;fill-opacity:1;fill-rule:nonzero;stroke:none"
           id="path66" />
        <path
           d="m 88.007,43.348 c -3.746,0.62 -8.274,0.656 -11.52,-1.598 -0.369,-0.256 -0.018,-0.866 0.355,-0.607 3.092,2.147 7.4,2.119 10.979,1.527 0.442,-0.073 0.633,0.604 0.186,0.678"
           style="fill:#231f20;fill-opacity:1;fill-rule:nonzero;stroke:none"
           id="path68" />
        <path
           d="m 90.507,45.535 c -3.746,0.62 -8.274,0.657 -11.52,-1.598 -0.369,-0.256 -0.018,-0.866 0.354,-0.607 3.092,2.148 7.4,2.119 10.98,1.527 0.442,-0.073 0.633,0.604 0.186,0.678"
           style="fill:#50ade5;fill-opacity:1;fill-rule:nonzero;stroke:none"
           id="path70" />
        <path
           d="m 76.356,66.234 c -0.571,-1.396 -1.767,-2.39 -3.318,-2.399 -1.086,-0.006 -2.396,0.526 -2.463,1.765 -0.025,0.45 -0.728,0.453 -0.703,0 0.083,-1.541 1.499,-2.393 2.935,-2.462 1.974,-0.096 3.505,1.146 4.227,2.91 0.172,0.418 -0.508,0.6 -0.678,0.186"
           style="fill:#50ade5;fill-opacity:1;fill-rule:nonzero;stroke:none"
           id="path72" />
        <path
           d="m 75.565,66.674 c -0.571,-1.397 -1.767,-2.39 -3.318,-2.4 -1.086,-0.006 -2.396,0.527 -2.463,1.765 -0.025,0.45 -0.728,0.453 -0.703,0 0.083,-1.54 1.499,-2.393 2.935,-2.462 1.974,-0.096 3.505,1.146 4.227,2.91 0.172,0.419 -0.508,0.601 -0.678,0.187"
           style="fill:#80cc28;fill-opacity:1;fill-rule:nonzero;stroke:none"
           id="path74" />
        <path
           d="m 73.749,67.172 c -0.572,-1.397 -1.768,-2.39 -3.318,-2.4 -1.087,-0.006 -2.397,0.527 -2.464,1.765 -0.024,0.45 -0.727,0.453 -0.703,0 0.084,-1.54 1.499,-2.392 2.935,-2.462 1.975,-0.096 3.506,1.146 4.228,2.91 0.171,0.419 -0.508,0.601 -0.678,0.187"
           style="fill:#231f20;fill-opacity:1;fill-rule:nonzero;stroke:none"
           id="path76" />
        <path
           d="m 111.427,43.635 c 0.032,-0.385 0.118,-0.71 0.258,-0.978 0.14,-0.268 0.32,-0.486 0.54,-0.654 0.22,-0.169 0.474,-0.291 0.762,-0.366 0.287,-0.076 0.596,-0.115 0.924,-0.115 0.384,0 0.716,0.049 0.996,0.144 0.28,0.097 0.508,0.227 0.684,0.391 0.176,0.164 0.305,0.354 0.389,0.569 0.084,0.217 0.126,0.445 0.126,0.684 0,0.336 -0.075,0.608 -0.227,0.816 -0.152,0.208 -0.35,0.379 -0.594,0.511 -0.244,0.132 -0.524,0.237 -0.84,0.318 -0.316,0.08 -0.64,0.158 -0.972,0.233 -0.332,0.077 -0.657,0.166 -0.972,0.27 -0.316,0.105 -0.596,0.245 -0.84,0.421 -0.244,0.176 -0.442,0.402 -0.594,0.678 -0.152,0.276 -0.228,0.626 -0.228,1.049 0,0.296 0.061,0.584 0.185,0.865 0.124,0.279 0.309,0.527 0.553,0.744 0.244,0.216 0.55,0.388 0.918,0.515 0.367,0.128 0.792,0.193 1.272,0.193 0.488,0 0.914,-0.069 1.278,-0.204 0.364,-0.137 0.666,-0.323 0.906,-0.558 0.239,-0.236 0.42,-0.51 0.54,-0.822 0.12,-0.312 0.18,-0.644 0.18,-0.996 h -0.78 c 0,0.327 -0.058,0.612 -0.174,0.852 -0.116,0.24 -0.275,0.436 -0.474,0.588 -0.2,0.152 -0.429,0.264 -0.684,0.336 -0.256,0.072 -0.52,0.108 -0.792,0.108 -0.416,0 -0.766,-0.058 -1.05,-0.174 -0.284,-0.116 -0.51,-0.266 -0.678,-0.45 -0.168,-0.184 -0.284,-0.389 -0.349,-0.612 -0.063,-0.224 -0.075,-0.449 -0.035,-0.672 0.048,-0.28 0.159,-0.505 0.336,-0.673 0.176,-0.168 0.392,-0.305 0.648,-0.413 0.256,-0.108 0.538,-0.196 0.846,-0.264 0.308,-0.069 0.621,-0.14 0.942,-0.216 0.32,-0.076 0.63,-0.167 0.929,-0.27 0.301,-0.105 0.567,-0.244 0.799,-0.421 0.232,-0.175 0.418,-0.401 0.558,-0.677 0.14,-0.276 0.21,-0.622 0.21,-1.038 0,-0.801 -0.277,-1.42 -0.828,-1.86 -0.552,-0.44 -1.328,-0.66 -2.328,-0.66 -0.449,0 -0.864,0.058 -1.248,0.173 -0.384,0.117 -0.716,0.292 -0.997,0.529 -0.279,0.236 -0.498,0.528 -0.653,0.876 -0.156,0.348 -0.234,0.758 -0.234,1.23 h 0.792"
           style="fill:#231f20;fill-opacity:1;fill-rule:nonzero;stroke:none"
           id="path78" />
        <path
           d="m 122.899,44.163 c 0,0.368 -0.041,0.711 -0.12,1.032 -0.08,0.32 -0.204,0.597 -0.372,0.834 -0.168,0.236 -0.385,0.422 -0.648,0.558 -0.264,0.136 -0.588,0.203 -0.972,0.203 -0.376,0 -0.698,-0.073 -0.966,-0.221 -0.268,-0.149 -0.486,-0.344 -0.654,-0.589 -0.168,-0.244 -0.292,-0.524 -0.372,-0.839 -0.08,-0.316 -0.12,-0.643 -0.12,-0.978 0,-0.384 0.046,-0.738 0.138,-1.062 0.092,-0.324 0.226,-0.602 0.402,-0.834 0.176,-0.232 0.396,-0.413 0.66,-0.54 0.264,-0.128 0.567,-0.192 0.912,-0.192 0.376,0 0.697,0.073 0.966,0.222 0.268,0.148 0.486,0.346 0.654,0.594 0.168,0.248 0.292,0.528 0.372,0.84 0.079,0.312 0.12,0.636 0.12,0.972 z m -2.112,-3.276 c -0.4,0.008 -0.774,0.08 -1.122,0.216 -0.348,0.136 -0.652,0.339 -0.912,0.612 -0.26,0.271 -0.466,0.612 -0.618,1.02 -0.153,0.408 -0.228,0.884 -0.228,1.428 0,0.456 0.06,0.882 0.18,1.278 0.12,0.396 0.3,0.742 0.54,1.037 0.24,0.296 0.54,0.531 0.9,0.703 0.36,0.172 0.78,0.257 1.26,0.257 0.487,0 0.912,-0.085 1.272,-0.257 0.36,-0.172 0.66,-0.404 0.9,-0.696 0.24,-0.293 0.418,-0.638 0.534,-1.038 0.115,-0.401 0.174,-0.828 0.174,-1.284 0,-0.496 -0.068,-0.944 -0.204,-1.344 -0.136,-0.401 -0.33,-0.744 -0.582,-1.032 -0.252,-0.289 -0.556,-0.51 -0.912,-0.666 -0.356,-0.156 -0.75,-0.234 -1.182,-0.234"
           style="fill:#231f20;fill-opacity:1;fill-rule:nonzero;stroke:none"
           id="path80" />
        <path
           d="m 129.391,45.314 c -0.128,0.464 -0.348,0.827 -0.661,1.087 -0.311,0.26 -0.708,0.389 -1.187,0.389 -0.368,0 -0.685,-0.076 -0.948,-0.228 -0.264,-0.151 -0.48,-0.354 -0.648,-0.605 -0.169,-0.252 -0.293,-0.537 -0.372,-0.853 -0.08,-0.315 -0.12,-0.633 -0.12,-0.953 0,-0.328 0.038,-0.648 0.113,-0.96 0.077,-0.312 0.199,-0.592 0.367,-0.84 0.168,-0.248 0.383,-0.446 0.648,-0.594 0.264,-0.149 0.584,-0.222 0.96,-0.222 0.536,0 0.966,0.148 1.29,0.443 0.324,0.296 0.529,0.705 0.618,1.225 h 0.768 c -0.065,-0.345 -0.166,-0.659 -0.306,-0.942 -0.141,-0.284 -0.32,-0.528 -0.54,-0.732 -0.221,-0.204 -0.482,-0.362 -0.786,-0.474 -0.305,-0.112 -0.652,-0.168 -1.044,-0.168 -0.496,0 -0.924,0.084 -1.284,0.252 -0.361,0.168 -0.656,0.398 -0.888,0.69 -0.232,0.292 -0.404,0.638 -0.517,1.038 -0.111,0.4 -0.167,0.828 -0.167,1.284 0,0.432 0.062,0.846 0.186,1.242 0.124,0.396 0.306,0.746 0.546,1.05 0.24,0.304 0.538,0.546 0.894,0.725 0.356,0.181 0.766,0.27 1.23,0.27 0.72,0 1.302,-0.171 1.746,-0.515 0.443,-0.344 0.722,-0.881 0.834,-1.609 h -0.732"
           style="fill:#231f20;fill-opacity:1;fill-rule:nonzero;stroke:none"
           id="path82" />
        <path
           d="m 131.767,47.271 h 0.719 v -6.216 h -0.719 z m -0.037,2.424 h 0.792 v -1.068 h -0.792 z"
           style="fill:#231f20;fill-opacity:1;fill-rule:nonzero;stroke:none"
           id="path84" />
        <path
           d="m 136.11,47.943 1.332,1.668 h 0.925 l -1.644,-1.668 z m 2.712,-3.348 c 0,0.303 -0.042,0.59 -0.126,0.858 -0.084,0.268 -0.208,0.5 -0.371,0.696 -0.164,0.196 -0.37,0.351 -0.618,0.468 -0.248,0.115 -0.532,0.173 -0.853,0.173 -0.319,0 -0.601,-0.06 -0.845,-0.179 -0.244,-0.12 -0.452,-0.28 -0.624,-0.48 -0.172,-0.2 -0.311,-0.432 -0.414,-0.696 -0.105,-0.264 -0.172,-0.544 -0.204,-0.84 z m -4.055,-0.6 c 0,-0.336 0.044,-0.654 0.131,-0.955 0.088,-0.299 0.218,-0.56 0.391,-0.779 0.172,-0.221 0.39,-0.396 0.653,-0.528 0.265,-0.132 0.569,-0.198 0.912,-0.198 0.473,0 0.876,0.124 1.212,0.372 0.336,0.248 0.561,0.6 0.672,1.056 h 0.805 c -0.088,-0.296 -0.204,-0.57 -0.349,-0.822 -0.143,-0.252 -0.323,-0.473 -0.54,-0.661 -0.216,-0.188 -0.471,-0.334 -0.767,-0.438 -0.296,-0.103 -0.64,-0.155 -1.033,-0.155 -0.496,0 -0.923,0.084 -1.284,0.252 -0.359,0.168 -0.655,0.398 -0.887,0.69 -0.233,0.292 -0.405,0.636 -0.516,1.032 -0.112,0.396 -0.168,0.822 -0.168,1.278 0,0.456 0.065,0.883 0.197,1.284 0.133,0.4 0.321,0.75 0.565,1.05 0.244,0.299 0.542,0.536 0.893,0.708 0.353,0.172 0.752,0.257 1.2,0.257 0.857,0 1.529,-0.293 2.017,-0.881 0.487,-0.588 0.728,-1.442 0.72,-2.562 h -4.824"
           style="fill:#231f20;fill-opacity:1;fill-rule:nonzero;stroke:none"
           id="path86" />
        <path
           d="m 143.179,41.031 c -0.088,-0.016 -0.204,-0.044 -0.348,-0.084 -0.144,-0.04 -0.305,-0.06 -0.48,-0.06 -0.361,0 -0.634,0.09 -0.823,0.27 -0.187,0.18 -0.281,0.502 -0.281,0.966 v 4.548 h -0.876 v 0.6 h 0.876 v 1.727 h 0.72 v -1.727 h 1.164 v -0.6 h -1.164 v -4.26 c 0,-0.152 0.004,-0.285 0.012,-0.396 0.007,-0.113 0.032,-0.205 0.072,-0.276 0.04,-0.073 0.101,-0.124 0.185,-0.156 0.084,-0.032 0.202,-0.048 0.355,-0.048 0.096,0 0.193,0.007 0.294,0.024 0.099,0.016 0.198,0.036 0.294,0.06 v -0.588"
           style="fill:#231f20;fill-opacity:1;fill-rule:nonzero;stroke:none"
           id="path88" />
        <path
           d="m 146.118,47.943 1.332,1.668 h 0.925 l -1.645,-1.668 z m 2.712,-3.348 c 0,0.303 -0.042,0.59 -0.126,0.858 -0.084,0.268 -0.208,0.5 -0.371,0.696 -0.164,0.196 -0.37,0.351 -0.618,0.468 -0.248,0.115 -0.532,0.173 -0.853,0.173 -0.319,0 -0.601,-0.06 -0.845,-0.179 -0.245,-0.12 -0.453,-0.28 -0.624,-0.48 -0.172,-0.2 -0.311,-0.432 -0.414,-0.696 -0.105,-0.264 -0.172,-0.544 -0.205,-0.84 z m -4.056,-0.6 c 0,-0.336 0.044,-0.654 0.132,-0.955 0.088,-0.299 0.218,-0.56 0.391,-0.779 0.172,-0.221 0.39,-0.396 0.653,-0.528 0.265,-0.132 0.569,-0.198 0.912,-0.198 0.473,0 0.876,0.124 1.212,0.372 0.336,0.248 0.561,0.6 0.672,1.056 h 0.805 c -0.088,-0.296 -0.204,-0.57 -0.349,-0.822 -0.143,-0.252 -0.323,-0.473 -0.54,-0.661 -0.216,-0.188 -0.472,-0.334 -0.767,-0.438 -0.296,-0.103 -0.64,-0.155 -1.033,-0.155 -0.496,0 -0.924,0.084 -1.284,0.252 -0.359,0.168 -0.655,0.398 -0.888,0.69 -0.232,0.292 -0.404,0.636 -0.515,1.032 -0.112,0.396 -0.168,0.822 -0.168,1.278 0,0.456 0.065,0.883 0.197,1.284 0.133,0.4 0.32,0.75 0.565,1.05 0.244,0.299 0.542,0.536 0.893,0.708 0.353,0.172 0.752,0.257 1.2,0.257 0.857,0 1.529,-0.293 2.017,-0.881 0.487,-0.588 0.727,-1.442 0.72,-2.562 h -4.825"
           style="fill:#231f20;fill-opacity:1;fill-rule:nonzero;stroke:none"
           id="path90" />
        <path
           d="m 111.379,26.655 h 0.816 v 8.64 h -0.816 z"
           style="fill:#231f20;fill-opacity:1;fill-rule:nonzero;stroke:none"
           id="path92" />
        <path
           d="m 115.039,26.655 h -0.721 v 6.216 h 0.721 v -0.864 c 0.288,0.304 0.586,0.552 0.894,0.744 0.307,0.192 0.677,0.288 1.11,0.288 0.384,0 0.739,-0.066 1.067,-0.198 0.328,-0.132 0.605,-0.362 0.828,-0.69 0.153,-0.224 0.243,-0.454 0.271,-0.69 0.027,-0.236 0.042,-0.483 0.042,-0.738 v -4.068 h -0.72 v 4.056 c 0,0.559 -0.125,0.979 -0.372,1.26 -0.248,0.279 -0.66,0.42 -1.236,0.42 -0.224,0 -0.428,-0.035 -0.612,-0.102 -0.184,-0.068 -0.35,-0.158 -0.498,-0.27 -0.148,-0.112 -0.274,-0.24 -0.378,-0.384 -0.104,-0.144 -0.184,-0.296 -0.24,-0.456 -0.072,-0.201 -0.116,-0.392 -0.132,-0.576 -0.016,-0.185 -0.024,-0.384 -0.024,-0.6 v -3.348"
           style="fill:#231f20;fill-opacity:1;fill-rule:nonzero;stroke:none"
           id="path94" />
        <path
           d="m 120.367,32.271 v 0.6 h 0.924 v 0.984 c 0,0.496 0.1,0.888 0.3,1.176 0.2,0.288 0.54,0.432 1.019,0.432 0.113,0 0.217,-0.005 0.313,-0.012 0.096,-0.008 0.191,-0.02 0.288,-0.036 v -0.66 c -0.16,0.04 -0.305,0.06 -0.433,0.06 -0.183,0 -0.328,-0.034 -0.431,-0.102 -0.105,-0.069 -0.18,-0.158 -0.228,-0.27 -0.049,-0.112 -0.078,-0.238 -0.091,-0.378 -0.011,-0.14 -0.017,-0.282 -0.017,-0.426 v -0.768 h 1.2 v -0.6 h -1.2 v -5.616 h -0.72 v 5.616 h -0.924"
           style="fill:#231f20;fill-opacity:1;fill-rule:nonzero;stroke:none"
           id="path96" />
        <path
           d="m 128.911,29.763 c 0,0.368 -0.041,0.712 -0.12,1.032 -0.08,0.32 -0.204,0.598 -0.372,0.834 -0.168,0.236 -0.385,0.422 -0.648,0.558 -0.264,0.136 -0.588,0.204 -0.972,0.204 -0.376,0 -0.698,-0.074 -0.966,-0.222 -0.269,-0.149 -0.486,-0.344 -0.654,-0.588 -0.168,-0.245 -0.292,-0.524 -0.372,-0.84 -0.08,-0.316 -0.12,-0.642 -0.12,-0.978 0,-0.384 0.045,-0.738 0.137,-1.062 0.093,-0.324 0.227,-0.602 0.403,-0.834 0.175,-0.232 0.396,-0.412 0.66,-0.54 0.263,-0.128 0.567,-0.192 0.912,-0.192 0.376,0 0.697,0.073 0.966,0.222 0.267,0.148 0.486,0.346 0.654,0.594 0.168,0.248 0.292,0.528 0.372,0.84 0.079,0.312 0.12,0.636 0.12,0.972 z m -2.112,-3.276 c -0.401,0.008 -0.775,0.08 -1.122,0.216 -0.348,0.136 -0.653,0.339 -0.912,0.612 -0.26,0.271 -0.466,0.612 -0.619,1.02 -0.152,0.408 -0.227,0.884 -0.227,1.428 0,0.456 0.06,0.882 0.18,1.278 0.12,0.396 0.299,0.742 0.54,1.038 0.24,0.295 0.54,0.53 0.9,0.702 0.359,0.172 0.779,0.258 1.26,0.258 0.487,0 0.912,-0.086 1.271,-0.258 0.361,-0.172 0.66,-0.404 0.901,-0.696 0.24,-0.293 0.418,-0.638 0.534,-1.038 0.115,-0.401 0.174,-0.828 0.174,-1.284 0,-0.496 -0.069,-0.944 -0.204,-1.344 -0.136,-0.4 -0.33,-0.744 -0.582,-1.032 -0.252,-0.288 -0.556,-0.51 -0.913,-0.666 -0.355,-0.156 -0.75,-0.234 -1.181,-0.234"
           style="fill:#231f20;fill-opacity:1;fill-rule:nonzero;stroke:none"
           id="path98" />
        <path
           d="m 131.755,26.655 h -0.72 v 6.216 h 0.72 v -1.164 h 0.024 c 0.2,0.496 0.458,0.842 0.774,1.038 0.316,0.196 0.734,0.294 1.254,0.294 v -0.78 c -0.408,0.008 -0.744,-0.056 -1.008,-0.192 -0.264,-0.136 -0.474,-0.32 -0.63,-0.552 -0.156,-0.232 -0.264,-0.506 -0.324,-0.822 -0.06,-0.317 -0.09,-0.646 -0.09,-0.99 v -3.048"
           style="fill:#231f20;fill-opacity:1;fill-rule:nonzero;stroke:none"
           id="path100" />
        <path
           d="m 135.834,26.655 h -0.72 v 6.216 h 0.72 v -0.936 h 0.024 c 0.184,0.36 0.449,0.634 0.792,0.822 0.344,0.188 0.72,0.282 1.128,0.282 0.288,0 0.533,-0.032 0.733,-0.096 0.199,-0.065 0.37,-0.15 0.51,-0.258 0.139,-0.108 0.255,-0.234 0.347,-0.378 0.092,-0.144 0.17,-0.3 0.235,-0.468 0.208,0.408 0.486,0.71 0.834,0.906 0.347,0.196 0.746,0.294 1.194,0.294 0.424,0 0.762,-0.07 1.014,-0.21 0.251,-0.14 0.445,-0.324 0.582,-0.552 0.135,-0.228 0.225,-0.49 0.269,-0.786 0.044,-0.296 0.067,-0.6 0.067,-0.912 v -3.924 h -0.72 v 4.296 c 0,0.448 -0.095,0.799 -0.282,1.056 -0.189,0.256 -0.539,0.384 -1.05,0.384 -0.265,0 -0.519,-0.059 -0.763,-0.174 -0.244,-0.116 -0.458,-0.294 -0.642,-0.534 -0.08,-0.104 -0.146,-0.227 -0.198,-0.366 -0.052,-0.14 -0.094,-0.286 -0.126,-0.438 -0.032,-0.152 -0.053,-0.304 -0.065,-0.456 -0.013,-0.152 -0.019,-0.292 -0.019,-0.42 v -3.348 h -0.719 v 4.296 c 0,0.448 -0.094,0.799 -0.283,1.056 -0.187,0.256 -0.538,0.384 -1.05,0.384 -0.263,0 -0.518,-0.059 -0.761,-0.174 -0.244,-0.116 -0.458,-0.294 -0.643,-0.534 -0.08,-0.104 -0.145,-0.227 -0.197,-0.366 -0.053,-0.14 -0.095,-0.286 -0.127,-0.438 -0.031,-0.152 -0.054,-0.304 -0.065,-0.456 -0.012,-0.152 -0.019,-0.292 -0.019,-0.42 v -3.348"
           style="fill:#231f20;fill-opacity:1;fill-rule:nonzero;stroke:none"
           id="path102" />
        <path
           d="m 149.274,29.919 c -0.303,-0.128 -0.612,-0.213 -0.923,-0.252 -0.313,-0.041 -0.624,-0.072 -0.937,-0.096 -0.552,-0.04 -0.981,-0.164 -1.289,-0.372 -0.309,-0.208 -0.463,-0.524 -0.463,-0.948 0,-0.192 0.038,-0.358 0.114,-0.498 0.077,-0.14 0.176,-0.256 0.3,-0.348 0.124,-0.092 0.269,-0.16 0.433,-0.204 0.164,-0.044 0.33,-0.066 0.498,-0.066 0.288,0 0.567,0.036 0.84,0.108 0.271,0.072 0.513,0.182 0.725,0.33 0.212,0.148 0.382,0.336 0.511,0.564 0.127,0.228 0.191,0.498 0.191,0.81 z m -1.211,0.36 c 0.135,0.016 0.297,0.04 0.486,0.072 0.187,0.032 0.342,0.076 0.462,0.132 0.12,0.056 0.193,0.15 0.221,0.282 0.029,0.132 0.042,0.254 0.042,0.366 0,0.368 -0.118,0.67 -0.353,0.906 -0.236,0.235 -0.635,0.354 -1.194,0.354 -0.248,0 -0.477,-0.022 -0.684,-0.066 -0.209,-0.044 -0.391,-0.12 -0.547,-0.228 -0.155,-0.108 -0.283,-0.252 -0.384,-0.432 -0.099,-0.18 -0.166,-0.406 -0.198,-0.678 h -0.731 c 0.023,0.367 0.108,0.682 0.252,0.942 0.143,0.259 0.33,0.472 0.557,0.636 0.229,0.164 0.492,0.284 0.792,0.36 0.301,0.075 0.618,0.114 0.954,0.114 0.313,0 0.607,-0.034 0.882,-0.102 0.276,-0.068 0.517,-0.176 0.721,-0.324 0.204,-0.148 0.363,-0.346 0.479,-0.594 0.117,-0.248 0.174,-0.552 0.174,-0.912 v -3.384 c 0,-0.28 0.05,-0.458 0.151,-0.534 0.099,-0.076 0.301,-0.058 0.606,0.054 v -0.564 c -0.057,-0.016 -0.139,-0.04 -0.246,-0.072 -0.109,-0.032 -0.215,-0.048 -0.318,-0.048 -0.113,0 -0.22,0.012 -0.325,0.036 -0.12,0.016 -0.216,0.054 -0.288,0.114 -0.071,0.06 -0.13,0.132 -0.174,0.216 -0.044,0.084 -0.074,0.176 -0.089,0.276 -0.017,0.1 -0.025,0.206 -0.025,0.318 -0.304,-0.336 -0.651,-0.592 -1.044,-0.768 -0.391,-0.176 -0.815,-0.264 -1.271,-0.264 -0.273,0 -0.534,0.036 -0.786,0.108 -0.252,0.072 -0.474,0.184 -0.666,0.336 -0.193,0.151 -0.344,0.338 -0.456,0.558 -0.113,0.219 -0.168,0.482 -0.168,0.786 0,1.056 0.723,1.68 2.171,1.872 l 0.997,0.132"
           style="fill:#231f20;fill-opacity:1;fill-rule:nonzero;stroke:none"
           id="path104" />
        <path
           d="m 154.063,26.631 c -0.088,-0.016 -0.205,-0.044 -0.348,-0.084 -0.145,-0.04 -0.305,-0.06 -0.481,-0.06 -0.36,0 -0.633,0.09 -0.822,0.27 -0.187,0.18 -0.281,0.502 -0.281,0.966 v 4.548 h -0.876 v 0.6 h 0.876 v 1.728 h 0.72 v -1.728 h 1.164 v -0.6 h -1.164 v -4.26 c 0,-0.152 0.003,-0.284 0.011,-0.396 0.008,-0.113 0.033,-0.204 0.073,-0.276 0.04,-0.072 0.101,-0.124 0.185,-0.156 0.084,-0.032 0.202,-0.048 0.355,-0.048 0.095,0 0.193,0.008 0.294,0.024 0.099,0.016 0.198,0.036 0.294,0.06 v -0.588"
           style="fill:#231f20;fill-opacity:1;fill-rule:nonzero;stroke:none"
           id="path106" />
        <path
           d="m 155.322,32.871 h 0.72 v -6.216 h -0.72 z m -0.036,2.424 h 0.792 v -1.068 h -0.792 z"
           style="fill:#231f20;fill-opacity:1;fill-rule:nonzero;stroke:none"
           id="path108" />
        <path
           d="m 162.679,29.787 c 0,0.352 -0.048,0.686 -0.145,1.002 -0.096,0.315 -0.233,0.592 -0.414,0.828 -0.18,0.235 -0.399,0.424 -0.66,0.564 -0.26,0.14 -0.554,0.21 -0.882,0.21 -0.376,0 -0.7,-0.074 -0.972,-0.222 -0.272,-0.149 -0.496,-0.35 -0.671,-0.606 -0.176,-0.256 -0.305,-0.554 -0.384,-0.894 -0.08,-0.34 -0.113,-0.706 -0.097,-1.098 0,-0.392 0.055,-0.738 0.162,-1.038 0.109,-0.3 0.258,-0.555 0.45,-0.762 0.193,-0.209 0.416,-0.366 0.672,-0.474 0.256,-0.108 0.536,-0.162 0.84,-0.162 0.336,0 0.637,0.068 0.901,0.204 0.263,0.136 0.483,0.322 0.66,0.558 0.175,0.236 0.309,0.516 0.401,0.84 0.092,0.323 0.139,0.674 0.139,1.05 z m 0,3.084 h 0.719 v -8.664 h -0.719 v 3.444 c -0.233,-0.384 -0.551,-0.674 -0.954,-0.87 -0.405,-0.196 -0.827,-0.294 -1.267,-0.294 -0.472,0 -0.882,0.09 -1.229,0.27 -0.348,0.18 -0.636,0.42 -0.865,0.72 -0.227,0.3 -0.397,0.649 -0.51,1.05 -0.112,0.4 -0.167,0.816 -0.167,1.248 0,0.456 0.051,0.884 0.156,1.284 0.103,0.399 0.269,0.746 0.498,1.038 0.227,0.292 0.517,0.522 0.869,0.69 0.353,0.168 0.78,0.252 1.284,0.252 0.2,0 0.404,-0.028 0.612,-0.084 0.208,-0.056 0.411,-0.136 0.607,-0.24 0.195,-0.104 0.375,-0.236 0.539,-0.396 0.164,-0.16 0.299,-0.34 0.402,-0.54 h 0.025 v 1.092"
           style="fill:#231f20;fill-opacity:1;fill-rule:nonzero;stroke:none"
           id="path110" />
        <path
           d="m 169.423,32.871 h 0.72 v -6.216 h -0.72 v 0.864 c -0.097,-0.112 -0.204,-0.228 -0.324,-0.348 -0.12,-0.12 -0.258,-0.23 -0.414,-0.33 -0.157,-0.1 -0.338,-0.184 -0.546,-0.252 -0.208,-0.068 -0.449,-0.102 -0.721,-0.102 -0.416,0 -0.764,0.058 -1.044,0.174 -0.279,0.116 -0.506,0.277 -0.678,0.486 -0.172,0.207 -0.296,0.45 -0.372,0.726 -0.076,0.276 -0.114,0.578 -0.114,0.906 v 4.092 h 0.721 v -4.08 c 0,-0.536 0.124,-0.946 0.372,-1.231 0.248,-0.283 0.655,-0.425 1.223,-0.425 0.296,0 0.562,0.058 0.798,0.174 0.237,0.116 0.435,0.277 0.594,0.486 0.16,0.208 0.284,0.456 0.372,0.744 0.088,0.288 0.133,0.604 0.133,0.948 v 3.384"
           style="fill:#231f20;fill-opacity:1;fill-rule:nonzero;stroke:none"
           id="path112" />
        <path
           d="m 176.382,30.195 c 0,0.303 -0.042,0.59 -0.126,0.858 -0.084,0.268 -0.208,0.5 -0.371,0.696 -0.164,0.196 -0.37,0.352 -0.618,0.468 -0.248,0.115 -0.533,0.174 -0.853,0.174 -0.319,0 -0.601,-0.06 -0.846,-0.18 -0.244,-0.12 -0.452,-0.28 -0.624,-0.48 -0.172,-0.2 -0.31,-0.432 -0.414,-0.696 -0.104,-0.264 -0.172,-0.544 -0.204,-0.84 z m -4.056,-0.6 c 0,-0.336 0.044,-0.654 0.132,-0.954 0.088,-0.3 0.218,-0.56 0.391,-0.78 0.172,-0.22 0.389,-0.396 0.653,-0.528 0.265,-0.132 0.568,-0.198 0.912,-0.198 0.473,0 0.876,0.124 1.212,0.372 0.336,0.248 0.561,0.6 0.672,1.056 h 0.805 c -0.088,-0.296 -0.205,-0.57 -0.349,-0.822 -0.144,-0.252 -0.323,-0.472 -0.54,-0.66 -0.216,-0.188 -0.472,-0.334 -0.768,-0.438 -0.296,-0.104 -0.639,-0.156 -1.032,-0.156 -0.496,0 -0.924,0.084 -1.284,0.252 -0.359,0.168 -0.655,0.398 -0.888,0.69 -0.232,0.292 -0.404,0.636 -0.515,1.032 -0.113,0.396 -0.168,0.822 -0.168,1.278 0,0.456 0.065,0.884 0.197,1.284 0.133,0.4 0.32,0.75 0.564,1.05 0.244,0.3 0.542,0.536 0.894,0.708 0.352,0.172 0.752,0.258 1.2,0.258 0.857,0 1.528,-0.294 2.017,-0.882 0.487,-0.588 0.727,-1.442 0.719,-2.562 h -4.824"
           style="fill:#231f20;fill-opacity:1;fill-rule:nonzero;stroke:none"
           id="path114" />
        <path
           d="m 115.783,15.387 c 0,0.352 -0.048,0.686 -0.144,1.002 -0.096,0.316 -0.234,0.592 -0.414,0.828 -0.18,0.236 -0.4,0.424 -0.661,0.564 -0.259,0.14 -0.553,0.21 -0.881,0.21 -0.376,0 -0.701,-0.074 -0.972,-0.222 -0.273,-0.148 -0.496,-0.35 -0.672,-0.606 -0.176,-0.256 -0.305,-0.554 -0.384,-0.894 -0.08,-0.34 -0.112,-0.706 -0.096,-1.098 0,-0.392 0.054,-0.738 0.162,-1.038 0.108,-0.3 0.258,-0.554 0.45,-0.762 0.192,-0.208 0.416,-0.366 0.672,-0.474 0.256,-0.108 0.536,-0.162 0.84,-0.162 0.336,0 0.636,0.068 0.9,0.204 0.264,0.136 0.483,0.322 0.66,0.558 0.176,0.236 0.31,0.516 0.402,0.84 0.091,0.324 0.138,0.674 0.138,1.05 z m 0,5.508 h 0.72 v -8.64 h -0.72 v 1.092 h -0.024 c -0.104,-0.208 -0.238,-0.39 -0.403,-0.546 -0.164,-0.156 -0.343,-0.286 -0.539,-0.39 -0.196,-0.104 -0.398,-0.184 -0.606,-0.24 -0.208,-0.056 -0.412,-0.084 -0.612,-0.084 -0.504,0 -0.932,0.084 -1.285,0.252 -0.351,0.168 -0.641,0.398 -0.869,0.69 -0.228,0.292 -0.394,0.638 -0.498,1.038 -0.104,0.4 -0.156,0.828 -0.156,1.284 0,0.432 0.056,0.848 0.168,1.248 0.112,0.4 0.282,0.75 0.51,1.05 0.228,0.3 0.516,0.54 0.864,0.72 0.348,0.18 0.758,0.27 1.23,0.27 0.44,0 0.862,-0.098 1.266,-0.294 0.403,-0.196 0.722,-0.486 0.954,-0.87 v 3.42"
           style="fill:#231f20;fill-opacity:1;fill-rule:nonzero;stroke:none"
           id="path116" />
        <path
           d="m 122.814,15.795 c 0,0.304 -0.042,0.59 -0.126,0.858 -0.084,0.268 -0.208,0.5 -0.371,0.696 -0.164,0.196 -0.37,0.352 -0.618,0.468 -0.248,0.116 -0.532,0.174 -0.852,0.174 -0.32,0 -0.602,-0.06 -0.846,-0.18 -0.244,-0.12 -0.452,-0.28 -0.624,-0.48 -0.172,-0.2 -0.311,-0.432 -0.414,-0.696 -0.105,-0.264 -0.172,-0.544 -0.204,-0.84 z m -4.055,-0.6 c 0,-0.336 0.044,-0.654 0.132,-0.954 0.088,-0.3 0.217,-0.56 0.39,-0.78 0.172,-0.22 0.39,-0.396 0.654,-0.528 0.264,-0.132 0.568,-0.198 0.912,-0.198 0.472,0 0.876,0.124 1.212,0.372 0.336,0.248 0.56,0.6 0.671,1.056 h 0.805 c -0.088,-0.296 -0.204,-0.57 -0.348,-0.822 -0.144,-0.252 -0.324,-0.472 -0.541,-0.66 -0.215,-0.188 -0.471,-0.334 -0.767,-0.438 -0.296,-0.104 -0.64,-0.156 -1.032,-0.156 -0.496,0 -0.924,0.084 -1.284,0.252 -0.36,0.168 -0.656,0.398 -0.888,0.69 -0.233,0.292 -0.404,0.636 -0.516,1.032 -0.112,0.396 -0.168,0.822 -0.168,1.278 0,0.456 0.066,0.884 0.197,1.284 0.133,0.4 0.321,0.75 0.565,1.05 0.244,0.3 0.542,0.536 0.893,0.708 0.353,0.172 0.752,0.258 1.201,0.258 0.856,0 1.528,-0.294 2.016,-0.882 0.488,-0.588 0.728,-1.442 0.72,-2.562 h -4.824"
           style="fill:#231f20;fill-opacity:1;fill-rule:nonzero;stroke:none"
           id="path118" />
        <path
           d="m 128.347,12.255 v 8.64 h 5.568 v -0.696 h -4.752 v -3.12 h 4.319 v -0.696 h -4.319 v -4.128 h -0.816"
           style="fill:#231f20;fill-opacity:1;fill-rule:nonzero;stroke:none"
           id="path120" />
        <path
           d="m 135.751,12.255 h -0.721 v 6.216 h 0.721 v -1.164 h 0.023 c 0.201,0.496 0.458,0.842 0.775,1.038 0.315,0.196 0.733,0.294 1.254,0.294 v -0.78 c -0.408,0.008 -0.744,-0.056 -1.008,-0.192 -0.265,-0.136 -0.475,-0.32 -0.63,-0.552 -0.156,-0.232 -0.265,-0.506 -0.324,-0.822 -0.061,-0.316 -0.09,-0.646 -0.09,-0.99 v -3.048"
           style="fill:#231f20;fill-opacity:1;fill-rule:nonzero;stroke:none"
           id="path122" />
        <path
           d="m 143.059,15.519 c -0.304,-0.128 -0.613,-0.212 -0.924,-0.252 -0.313,-0.04 -0.624,-0.072 -0.937,-0.096 -0.552,-0.04 -0.981,-0.164 -1.289,-0.372 -0.308,-0.208 -0.463,-0.524 -0.463,-0.948 0,-0.192 0.038,-0.358 0.115,-0.498 0.076,-0.14 0.175,-0.256 0.299,-0.348 0.124,-0.092 0.269,-0.16 0.433,-0.204 0.164,-0.044 0.33,-0.066 0.498,-0.066 0.288,0 0.567,0.036 0.84,0.108 0.271,0.072 0.514,0.182 0.725,0.33 0.212,0.148 0.382,0.336 0.511,0.564 0.127,0.228 0.192,0.498 0.192,0.81 z m -1.212,0.36 c 0.135,0.016 0.298,0.04 0.486,0.072 0.188,0.032 0.342,0.076 0.462,0.132 0.12,0.056 0.193,0.15 0.222,0.282 0.028,0.132 0.042,0.254 0.042,0.366 0,0.368 -0.119,0.67 -0.354,0.906 -0.236,0.236 -0.635,0.354 -1.194,0.354 -0.248,0 -0.477,-0.022 -0.684,-0.066 -0.209,-0.044 -0.39,-0.12 -0.547,-0.228 -0.155,-0.108 -0.283,-0.252 -0.384,-0.432 -0.099,-0.18 -0.166,-0.406 -0.198,-0.678 h -0.731 c 0.023,0.368 0.108,0.682 0.252,0.942 0.143,0.26 0.33,0.472 0.557,0.636 0.229,0.164 0.493,0.284 0.792,0.36 0.301,0.076 0.619,0.114 0.954,0.114 0.313,0 0.607,-0.034 0.882,-0.102 0.277,-0.068 0.517,-0.176 0.721,-0.324 0.204,-0.148 0.363,-0.346 0.479,-0.594 0.117,-0.248 0.174,-0.552 0.174,-0.912 v -3.384 c 0,-0.28 0.05,-0.458 0.151,-0.534 0.099,-0.076 0.301,-0.058 0.606,0.054 v -0.564 c -0.056,-0.016 -0.139,-0.04 -0.246,-0.072 -0.108,-0.032 -0.215,-0.048 -0.318,-0.048 -0.113,0 -0.22,0.012 -0.325,0.036 -0.12,0.016 -0.215,0.054 -0.288,0.114 -0.071,0.06 -0.129,0.132 -0.173,0.216 -0.044,0.084 -0.075,0.176 -0.09,0.276 -0.017,0.1 -0.025,0.206 -0.025,0.318 -0.303,-0.336 -0.651,-0.592 -1.044,-0.768 -0.391,-0.176 -0.815,-0.264 -1.271,-0.264 -0.273,0 -0.534,0.036 -0.786,0.108 -0.252,0.072 -0.474,0.184 -0.666,0.336 -0.193,0.152 -0.344,0.338 -0.456,0.558 -0.113,0.22 -0.168,0.482 -0.168,0.786 0,1.056 0.723,1.68 2.172,1.872 l 0.996,0.132"
           style="fill:#231f20;fill-opacity:1;fill-rule:nonzero;stroke:none"
           id="path124" />
        <path
           d="m 146.383,12.255 h -0.721 v 6.216 h 0.721 v -0.864 c 0.288,0.304 0.586,0.552 0.893,0.744 0.308,0.192 0.678,0.288 1.111,0.288 0.384,0 0.739,-0.066 1.067,-0.198 0.328,-0.132 0.605,-0.362 0.828,-0.69 0.153,-0.224 0.242,-0.454 0.271,-0.69 0.027,-0.236 0.042,-0.482 0.042,-0.738 v -4.068 h -0.72 v 4.056 c 0,0.56 -0.125,0.979 -0.372,1.26 -0.248,0.28 -0.66,0.42 -1.236,0.42 -0.224,0 -0.428,-0.034 -0.613,-0.102 -0.183,-0.068 -0.349,-0.158 -0.498,-0.27 -0.147,-0.112 -0.273,-0.24 -0.378,-0.384 -0.103,-0.144 -0.183,-0.296 -0.239,-0.456 -0.072,-0.2 -0.116,-0.392 -0.133,-0.576 -0.015,-0.184 -0.023,-0.384 -0.023,-0.6 v -3.348"
           style="fill:#231f20;fill-opacity:1;fill-rule:nonzero;stroke:none"
           id="path126" />
        <path
           d="m 156.738,16.515 c -0.128,0.464 -0.347,0.826 -0.66,1.086 -0.311,0.26 -0.708,0.39 -1.187,0.39 -0.369,0 -0.685,-0.077 -0.949,-0.228 -0.263,-0.152 -0.479,-0.354 -0.647,-0.606 -0.169,-0.252 -0.293,-0.536 -0.372,-0.852 -0.08,-0.316 -0.12,-0.634 -0.12,-0.954 0,-0.328 0.038,-0.648 0.113,-0.96 0.076,-0.312 0.198,-0.592 0.366,-0.84 0.168,-0.248 0.384,-0.446 0.649,-0.594 0.263,-0.148 0.584,-0.222 0.96,-0.222 0.536,0 0.965,0.148 1.29,0.444 0.324,0.296 0.529,0.704 0.618,1.224 h 0.767 c -0.064,-0.344 -0.166,-0.658 -0.305,-0.942 -0.141,-0.284 -0.321,-0.528 -0.54,-0.732 -0.221,-0.204 -0.483,-0.362 -0.786,-0.474 -0.305,-0.112 -0.653,-0.168 -1.044,-0.168 -0.496,0 -0.924,0.084 -1.285,0.252 -0.36,0.168 -0.656,0.398 -0.887,0.69 -0.233,0.292 -0.405,0.638 -0.517,1.038 -0.111,0.4 -0.168,0.828 -0.168,1.284 0,0.432 0.063,0.846 0.187,1.242 0.124,0.396 0.305,0.746 0.546,1.05 0.24,0.304 0.538,0.546 0.893,0.726 0.357,0.18 0.767,0.27 1.231,0.27 0.719,0 1.301,-0.172 1.746,-0.516 0.443,-0.344 0.721,-0.88 0.834,-1.608 h -0.733"
           style="fill:#231f20;fill-opacity:1;fill-rule:nonzero;stroke:none"
           id="path128" />
        <path
           d="m 163.507,15.795 c 0,0.304 -0.042,0.59 -0.126,0.858 -0.084,0.268 -0.208,0.5 -0.372,0.696 -0.164,0.196 -0.37,0.352 -0.618,0.468 -0.248,0.116 -0.533,0.174 -0.852,0.174 -0.32,0 -0.602,-0.06 -0.847,-0.18 -0.244,-0.12 -0.451,-0.28 -0.624,-0.48 -0.172,-0.2 -0.309,-0.432 -0.413,-0.696 -0.104,-0.264 -0.173,-0.544 -0.204,-0.84 z m -4.056,-0.6 c 0,-0.336 0.044,-0.654 0.132,-0.954 0.088,-0.3 0.218,-0.56 0.39,-0.78 0.172,-0.22 0.39,-0.396 0.654,-0.528 0.264,-0.132 0.567,-0.198 0.912,-0.198 0.472,0 0.876,0.124 1.212,0.372 0.336,0.248 0.56,0.6 0.672,1.056 h 0.804 c -0.088,-0.296 -0.205,-0.57 -0.348,-0.822 -0.145,-0.252 -0.324,-0.472 -0.54,-0.66 -0.216,-0.188 -0.473,-0.334 -0.768,-0.438 -0.297,-0.104 -0.64,-0.156 -1.032,-0.156 -0.496,0 -0.924,0.084 -1.284,0.252 -0.36,0.168 -0.656,0.398 -0.888,0.69 -0.232,0.292 -0.404,0.636 -0.516,1.032 -0.113,0.396 -0.168,0.822 -0.168,1.278 0,0.456 0.066,0.884 0.198,1.284 0.132,0.4 0.32,0.75 0.563,1.05 0.244,0.3 0.542,0.536 0.895,0.708 0.351,0.172 0.752,0.258 1.2,0.258 0.856,0 1.527,-0.294 2.016,-0.882 0.488,-0.588 0.727,-1.442 0.719,-2.562 h -4.823"
           style="fill:#231f20;fill-opacity:1;fill-rule:nonzero;stroke:none"
           id="path130" />
        <path
           d="m 99.043,58.943 c -0.206,0.1 -0.395,0.059 -0.422,-0.114 -0.028,-0.174 -0.25,-2.459 -0.256,-2.615 -0.007,-0.156 0.154,-0.308 0.383,-0.233 0.229,0.075 3.869,1.174 3.869,1.174 0,0 -3.368,1.689 -3.574,1.788"
           style="fill:#231f20;fill-opacity:1;fill-rule:nonzero;stroke:none"
           id="path132" />
        <path
           d="m 100.449,61.111 c -0.205,0.1 -0.395,0.059 -0.422,-0.114 -0.028,-0.174 -0.25,-2.459 -0.256,-2.615 -0.006,-0.156 0.154,-0.308 0.383,-0.233 0.229,0.075 3.869,1.174 3.869,1.174 0,0 -3.368,1.689 -3.574,1.788"
           style="fill:#80cc28;fill-opacity:1;fill-rule:nonzero;stroke:none"
           id="path134" />
        <path
           d="m 101.738,63.631 c -0.205,0.099 -0.395,0.059 -0.422,-0.115 -0.027,-0.174 -0.25,-2.458 -0.256,-2.614 -0.006,-0.157 0.154,-0.308 0.383,-0.233 0.229,0.075 3.87,1.173 3.87,1.173 0,0 -3.369,1.69 -3.575,1.789"
           style="fill:#50ade5;fill-opacity:1;fill-rule:nonzero;stroke:none"
           id="path136" />
        <path
           d="m 72.718,67.549 c -0.142,-0.179 -0.144,-0.373 0.02,-0.438 0.164,-0.065 2.344,-0.78 2.495,-0.821 0.152,-0.04 0.334,0.083 0.311,0.323 -0.023,0.24 -0.299,4.033 -0.299,4.033 0,0 -2.385,-2.918 -2.527,-3.097"
           style="fill:#231f20;fill-opacity:1;fill-rule:nonzero;stroke:none"
           id="path138" />
        <path
           d="m 74.894,67.168 c -0.142,-0.179 -0.144,-0.372 0.02,-0.437 0.164,-0.065 2.344,-0.781 2.495,-0.821 0.152,-0.04 0.334,0.083 0.311,0.322 -0.023,0.241 -0.299,4.033 -0.299,4.033 0,0 -2.385,-2.918 -2.527,-3.097"
           style="fill:#80cc28;fill-opacity:1;fill-rule:nonzero;stroke:none"
           id="path140" />
        <path
           d="m 75.471,66.75 c -0.142,-0.179 -0.144,-0.373 0.02,-0.438 0.164,-0.064 2.344,-0.78 2.495,-0.82 0.152,-0.041 0.334,0.083 0.311,0.322 -0.023,0.24 -0.299,4.033 -0.299,4.033 0,0 -2.385,-2.918 -2.527,-3.097"
           style="fill:#50ade5;fill-opacity:1;fill-rule:nonzero;stroke:none"
           id="path142" />
        <path
           d="m 88.472,43.82 c -0.17,0.153 -0.364,0.166 -0.438,0.006 -0.074,-0.159 -0.918,-2.294 -0.967,-2.442 -0.049,-0.149 0.063,-0.339 0.304,-0.33 0.24,0.009 4.042,0.06 4.042,0.06 0,0 -2.77,2.554 -2.941,2.706"
           style="fill:#231f20;fill-opacity:1;fill-rule:nonzero;stroke:none"
           id="path144" />
        <path
           d="m 90.012,45.457 c -0.171,0.152 -0.364,0.166 -0.439,0.006 -0.074,-0.159 -0.918,-2.294 -0.967,-2.442 -0.048,-0.148 0.063,-0.338 0.304,-0.33 0.241,0.009 4.043,0.061 4.043,0.061 0,0 -2.771,2.553 -2.941,2.705"
           style="fill:#80cc28;fill-opacity:1;fill-rule:nonzero;stroke:none"
           id="path146" />
        <path
           d="m 91.184,46.82 c -0.17,0.153 -0.364,0.166 -0.438,0.006 -0.074,-0.159 -0.918,-2.293 -0.967,-2.442 -0.049,-0.149 0.063,-0.338 0.303,-0.329 0.241,0.008 4.044,0.06 4.044,0.06 0,0 -2.772,2.553 -2.942,2.705"
           style="fill:#50ade5;fill-opacity:1;fill-rule:nonzero;stroke:none"
           id="path148" />
        <path
           d="m 65.553,55.537 c -0.143,-0.179 -0.146,-0.372 0.017,-0.438 0.163,-0.066 2.34,-0.794 2.491,-0.835 0.151,-0.041 0.334,0.081 0.312,0.321 -0.021,0.24 -0.276,4.034 -0.276,4.034 0,0 -2.401,-2.904 -2.544,-3.082"
           style="fill:#231f20;fill-opacity:1;fill-rule:nonzero;stroke:none"
           id="path150" />
        <path
           d="m 64.282,56.924 c -0.142,-0.178 -0.146,-0.372 0.018,-0.438 0.163,-0.065 2.34,-0.794 2.49,-0.835 0.151,-0.041 0.334,0.081 0.313,0.321 -0.022,0.24 -0.276,4.034 -0.276,4.034 0,0 -2.402,-2.903 -2.545,-3.082"
           style="fill:#80cc28;fill-opacity:1;fill-rule:nonzero;stroke:none"
           id="path152" />
        <path
           d="m 63.288,59.507 c -0.143,-0.178 -0.146,-0.372 0.017,-0.438 0.163,-0.066 2.34,-0.794 2.491,-0.835 0.151,-0.041 0.334,0.081 0.312,0.321 -0.021,0.24 -0.276,4.034 -0.276,4.034 0,0 -2.401,-2.904 -2.544,-3.082"
           style="fill:#50ade5;fill-opacity:1;fill-rule:nonzero;stroke:none"
           id="path154" />
        <path
           d="m 51.604,57.099 c -0.222,0.056 -0.399,-0.021 -0.392,-0.197 0.008,-0.176 0.247,-2.459 0.272,-2.613 0.025,-0.155 0.212,-0.271 0.421,-0.152 0.21,0.119 3.558,1.923 3.558,1.923 0,0 -3.638,0.983 -3.859,1.039"
           style="fill:#231f20;fill-opacity:1;fill-rule:nonzero;stroke:none"
           id="path156" />
        <path
           d="m 52.021,59.914 c -0.222,0.057 -0.399,-0.021 -0.391,-0.197 0.008,-0.175 0.246,-2.458 0.271,-2.613 0.026,-0.154 0.213,-0.27 0.422,-0.151 0.209,0.119 3.557,1.922 3.557,1.922 0,0 -3.638,0.983 -3.859,1.039"
           style="fill:#80cc28;fill-opacity:1;fill-rule:nonzero;stroke:none"
           id="path158" />
        <path
           d="m 50.085,61.469 c -0.221,0.056 -0.398,-0.021 -0.391,-0.198 0.008,-0.175 0.246,-2.458 0.272,-2.612 0.025,-0.155 0.212,-0.271 0.421,-0.152 0.21,0.119 3.557,1.923 3.557,1.923 0,0 -3.637,0.983 -3.859,1.039"
           style="fill:#50ade5;fill-opacity:1;fill-rule:nonzero;stroke:none"
           id="path160" />
      </g>
    </g>
  </g>
</svg>
