<?xml version="1.0" encoding="UTF-8" standalone="no"?>
<svg
   xmlns:dc="http://purl.org/dc/elements/1.1/"
   xmlns:cc="http://creativecommons.org/ns#"
   xmlns:rdf="http://www.w3.org/1999/02/22-rdf-syntax-ns#"
   xmlns:svg="http://www.w3.org/2000/svg"
   xmlns="http://www.w3.org/2000/svg"
   viewBox="0 0 1000 1000"
   height="1000"
   width="1000"
   xml:space="preserve"
   version="1.1"
   id="svg3355"><metadata
     id="metadata3361"><rdf:RDF><cc:Work
         rdf:about=""><dc:format>image/svg+xml</dc:format><dc:type
           rdf:resource="http://purl.org/dc/dcmitype/StillImage" /><dc:title></dc:title></cc:Work></rdf:RDF></metadata><defs
     id="defs3359"><clipPath
       id="clipPath3371"
       clipPathUnits="userSpaceOnUse"><path
         id="path3373"
         d="m 0,283.464 283.465,0 L 283.465,0 0,0 0,283.464 Z" /></clipPath></defs><g
     transform="matrix(1.25,0,0,-1.25,-53.81166,1009.6092)"
     id="g3363"><g
       transform="matrix(2.8222279,0,0,2.8222279,43.049328,7.68738)"
       id="g3451"><path
         d="m 0,0 283.464,0 0,283.464 L 0,283.464 0,0 Z"
         style="fill:#ffffff;fill-opacity:1;fill-rule:nonzero;stroke:none"
         id="path3365" /><g
         id="g3367"><g
           id="g3369"
           clip-path="url(#clipPath3371)"><g
             id="g3375"
             transform="translate(67.9238,181.8745)"><path
               d="m 0,0 c -6.307,0 -11.112,-1.953 -14.438,-5.87 -3.332,-3.916 -4.991,-9.344 -4.991,-16.293 0,-3.295 0.401,-6.312 1.192,-9.051 0.792,-2.74 1.964,-5.078 3.527,-7.022 1.562,-1.942 3.504,-3.458 5.828,-4.548 2.328,-1.09 5.053,-1.63 8.167,-1.63 1.943,0 3.624,0.073 5.037,0.216 1.414,0.145 2.53,0.344 3.352,0.575 l 0,21.989 11.133,0 0,-29.405 c -1.533,-0.586 -4.122,-1.239 -7.777,-1.943 -3.649,-0.709 -7.859,-1.059 -12.624,-1.059 -4.41,0 -8.45,0.709 -12.094,2.118 -3.654,1.414 -6.758,3.475 -9.324,6.183 -2.554,2.709 -4.544,6.03 -5.957,9.977 -1.408,3.942 -2.117,8.481 -2.117,13.6 0,5.124 0.775,9.653 2.338,13.6 1.558,3.942 3.69,7.283 6.404,10.023 2.704,2.734 5.886,4.811 9.534,6.224 3.651,1.408 7.541,2.123 11.659,2.123 2.821,0 5.34,-0.195 7.549,-0.581 2.21,-0.38 4.108,-0.802 5.696,-1.274 1.583,-0.478 2.893,-0.972 3.932,-1.501 1.028,-0.53 1.747,-0.915 2.159,-1.152 L 14.828,-3.793 C 13.061,-2.734 10.871,-1.84 8.25,-1.1 5.633,-0.37 2.878,0 0,0"
               style="fill:#0a1b3b;fill-opacity:1;fill-rule:nonzero;stroke:none"
               id="path3377" /></g><g
             id="g3379"
             transform="translate(122.2725,178.436)"><path
               d="m 0,0 c -1.356,-3.125 -2.904,-6.923 -4.637,-11.395 -1.736,-4.477 -3.551,-9.329 -5.432,-14.572 l 20.138,0 C 8.178,-20.724 6.357,-15.836 4.59,-11.308 2.827,-6.774 1.296,-3.007 0,0 m 18.057,-49.363 c -0.828,2.41 -1.682,4.795 -2.571,7.15 -0.889,2.353 -1.737,4.769 -2.564,7.241 l -25.849,0 c -0.822,-2.472 -1.665,-4.898 -2.518,-7.287 -0.859,-2.381 -1.701,-4.75 -2.53,-7.104 l -11.564,0 c 2.287,6.531 4.467,12.567 6.532,18.102 2.051,5.526 4.067,10.768 6.035,15.713 1.973,4.949 3.927,9.652 5.869,14.134 1.944,4.467 3.938,8.888 5.999,13.246 l 10.619,0 c 2.066,-4.358 4.06,-8.779 6.004,-13.246 1.942,-4.482 3.906,-9.185 5.875,-14.134 1.973,-4.945 4.003,-10.187 6.095,-15.713 2.093,-5.535 4.286,-11.571 6.574,-18.102 l -12.006,0 z"
               style="fill:#0a1b3b;fill-opacity:1;fill-rule:nonzero;stroke:none"
               id="path3381" /></g><g
             id="g3383"
             transform="translate(197.6328,190.2681)"><path
               d="m 0,0 0,-9.627 -18.806,0 0,-51.568 -11.215,0 0,51.568 -18.802,0 0,9.627 L 0,0 Z"
               style="fill:#0a1b3b;fill-opacity:1;fill-rule:nonzero;stroke:none"
               id="path3385" /></g><g
             id="g3387"
             transform="translate(206.1143,129.0732)"><path
               d="m 0,0 0,61.195 39.588,0 0,-9.483 -28.465,0.036 0,-15.106 25.077,0 0,-9.273 -25.077,0 0,-17.922 28.465,0 L 39.588,0 0,0 Z"
               style="fill:#0a1b3b;fill-opacity:1;fill-rule:nonzero;stroke:none"
               id="path3389" /></g><path
             d="m 116.943,217.006 -80.105,0 0,29.158 80.105,0 0,-29.158 z"
             style="fill:#4582be;fill-opacity:1;fill-rule:nonzero;stroke:none"
             id="path3391" /><path
             d="m 245.702,37.295 -80.101,0 0,29.163 80.101,0 0,-29.163 z"
             style="fill:#0a1b3b;fill-opacity:1;fill-rule:nonzero;stroke:none"
             id="path3393" /><g
             id="g3395"
             transform="translate(48.376,97)"><path
               d="m 0,0 0,-2.324 -11.538,0 0,19.173 2.683,0 L -8.855,0 0,0 Z"
               style="fill:#4582be;fill-opacity:1;fill-rule:nonzero;stroke:none"
               id="path3397" /></g><g
             id="g3399"
             transform="translate(48.7881,91.9932)"><path
               d="m 0,0 c 0.205,-0.092 0.468,-0.175 0.786,-0.257 0.324,-0.087 0.643,-0.128 0.955,-0.128 1.014,0 1.805,0.232 2.381,0.678 0.57,0.452 1.084,1.182 1.547,2.2 -1.167,2.216 -2.246,4.554 -3.254,7.037 -1.008,2.488 -1.84,4.996 -2.498,7.534 l 2.766,0 C 2.878,16.237 3.124,15.343 3.412,14.387 3.7,13.426 4.02,12.438 4.369,11.427 4.718,10.413 5.094,9.396 5.505,8.384 5.911,7.371 6.337,6.395 6.774,5.448 c 0.699,1.944 1.311,3.856 1.83,5.758 0.514,1.896 1.001,3.849 1.464,5.858 l 2.653,0 C 12.058,14.355 11.313,11.755 10.511,9.258 9.698,6.754 8.819,4.421 7.884,2.241 7.509,1.414 7.128,0.699 6.732,0.103 6.337,-0.498 5.9,-0.991 5.417,-1.377 4.939,-1.768 4.399,-2.056 3.804,-2.235 3.196,-2.42 2.519,-2.513 1.768,-2.513 c -0.195,0 -0.412,0.01 -0.632,0.04 -0.227,0.027 -0.443,0.063 -0.653,0.114 -0.212,0.046 -0.411,0.093 -0.576,0.144 -0.175,0.057 -0.303,0.108 -0.375,0.144 L 0,0 Z"
               style="fill:#4582be;fill-opacity:1;fill-rule:nonzero;stroke:none"
               id="path3401" /></g><g
             id="g3403"
             transform="translate(74.2305,101.873)"><path
               d="m 0,0 c 0,1.618 -0.365,2.903 -1.084,3.854 -0.741,0.952 -1.728,1.424 -2.981,1.424 -1.25,0 -2.242,-0.472 -2.972,-1.424 C -7.767,2.903 -8.131,1.618 -8.131,0 c 0,-1.625 0.364,-2.914 1.094,-3.86 0.73,-0.952 1.722,-1.424 2.972,-1.424 1.253,0 2.24,0.472 2.981,1.424 C -0.365,-2.914 0,-1.625 0,0 m 2.683,0 c 0,-1.151 -0.164,-2.18 -0.499,-3.1 -0.33,-0.925 -0.791,-1.712 -1.393,-2.38 -0.602,-0.658 -1.315,-1.171 -2.148,-1.532 -0.828,-0.364 -1.733,-0.544 -2.708,-0.544 -0.977,0 -1.882,0.18 -2.709,0.544 -0.829,0.361 -1.547,0.874 -2.144,1.532 -0.596,0.668 -1.069,1.455 -1.393,2.38 -0.339,0.92 -0.503,1.949 -0.503,3.1 0,1.125 0.164,2.153 0.503,3.083 0.324,0.931 0.797,1.728 1.393,2.391 0.597,0.668 1.315,1.172 2.144,1.531 0.827,0.365 1.732,0.545 2.709,0.545 0.975,0 1.88,-0.18 2.708,-0.545 C -0.524,6.646 0.189,6.142 0.791,5.474 1.393,4.811 1.854,4.014 2.184,3.083 2.519,2.153 2.683,1.125 2.683,0"
               style="fill:#4582be;fill-opacity:1;fill-rule:nonzero;stroke:none"
               id="path3405" /></g><g
             id="g3407"
             transform="translate(80.5361,108.6465)"><path
               d="m 0,0 c 0.592,0.145 1.373,0.304 2.354,0.468 0.977,0.17 2.098,0.252 3.373,0.252 1.141,0 2.091,-0.164 2.847,-0.489 0.76,-0.318 1.363,-0.77 1.815,-1.351 0.446,-0.581 0.765,-1.28 0.95,-2.087 0.185,-0.812 0.282,-1.701 0.282,-2.689 l 0,-8.075 -2.574,0 0,7.526 c 0,0.888 -0.062,1.639 -0.181,2.271 -0.122,0.622 -0.318,1.132 -0.595,1.517 -0.278,0.39 -0.643,0.674 -1.106,0.848 -0.463,0.169 -1.033,0.262 -1.711,0.262 -0.277,0 -0.565,-0.01 -0.864,-0.03 C 4.297,-1.599 4.015,-1.613 3.747,-1.645 3.48,-1.675 3.239,-1.706 3.032,-1.747 2.817,-1.783 2.663,-1.809 2.575,-1.824 l 0,-12.147 -2.575,0 L 0,0 Z"
               style="fill:#4582be;fill-opacity:1;fill-rule:nonzero;stroke:none"
               id="path3409" /></g><g
             id="g3411"
             transform="translate(102.5508,89.5625)"><path
               d="m 0,0 -2.626,0 9.375,26.773 2.575,0 L 0,0 Z"
               style="fill:#4582be;fill-opacity:1;fill-rule:nonzero;stroke:none"
               id="path3413" /></g><g
             id="g3415"
             transform="translate(124.4316,96.5889)"><path
               d="m 0,0 c 2.801,0 4.204,0.961 4.204,2.878 0,0.591 -0.128,1.09 -0.375,1.506 C 3.582,4.795 3.248,5.155 2.822,5.459 2.4,5.761 1.911,6.029 1.367,6.25 0.821,6.471 0.246,6.691 -0.36,6.913 c -0.7,0.241 -1.362,0.514 -1.989,0.817 -0.627,0.303 -1.172,0.663 -1.635,1.074 -0.463,0.422 -0.828,0.91 -1.095,1.48 -0.262,0.57 -0.396,1.265 -0.396,2.077 0,1.676 0.567,2.992 1.711,3.926 1.143,0.946 2.72,1.415 4.73,1.415 1.162,0 2.215,-0.124 3.167,-0.376 0.95,-0.246 1.649,-0.523 2.086,-0.816 L 5.366,14.325 c -0.386,0.241 -0.962,0.477 -1.727,0.708 -0.771,0.227 -1.656,0.345 -2.673,0.345 -0.509,0 -0.997,-0.057 -1.44,-0.164 -0.436,-0.109 -0.827,-0.283 -1.156,-0.499 -0.339,-0.226 -0.596,-0.503 -0.791,-0.848 -0.196,-0.339 -0.288,-0.74 -0.288,-1.197 0,-0.524 0.098,-0.957 0.304,-1.307 0.199,-0.343 0.487,-0.657 0.858,-0.919 0.364,-0.273 0.796,-0.513 1.284,-0.741 C 0.226,9.482 0.771,9.267 1.356,9.041 2.185,8.712 2.939,8.383 3.639,8.049 4.327,7.72 4.924,7.318 5.433,6.861 5.941,6.394 6.332,5.849 6.614,5.212 6.887,4.574 7.025,3.808 7.025,2.903 7.025,1.224 6.415,-0.067 5.186,-0.972 3.958,-1.876 2.23,-2.323 0,-2.323 c -0.756,0 -1.45,0.046 -2.087,0.148 -0.638,0.103 -1.203,0.222 -1.701,0.361 -0.499,0.143 -0.931,0.288 -1.291,0.447 -0.359,0.153 -0.637,0.288 -0.843,0.395 l 0.808,2.215 C -4.692,1.002 -4.051,0.734 -3.183,0.441 -2.313,0.144 -1.254,0 0,0"
               style="fill:#4582be;fill-opacity:1;fill-rule:nonzero;stroke:none"
               id="path3417" /></g><g
             id="g3419"
             transform="translate(136.9307,109.0576)"><path
               d="m 0,0 5.449,0 0,-2.158 -5.449,0 0,-6.636 c 0,-0.72 0.052,-1.31 0.171,-1.778 0.107,-0.473 0.272,-0.843 0.493,-1.116 0.221,-0.262 0.498,-0.453 0.827,-0.56 0.34,-0.107 0.72,-0.164 1.172,-0.164 0.761,0 1.389,0.087 1.86,0.262 0.473,0.174 0.798,0.297 0.982,0.37 l 0.5,-2.123 C 5.742,-14.042 5.29,-14.196 4.646,-14.391 4,-14.587 3.27,-14.679 2.438,-14.679 c -0.977,0 -1.785,0.118 -2.427,0.365 -0.632,0.247 -1.141,0.626 -1.532,1.121 -0.384,0.504 -0.658,1.115 -0.817,1.844 -0.154,0.726 -0.231,1.574 -0.231,2.529 l 0,12.83 L 0,4.462 0,0 Z"
               style="fill:#4582be;fill-opacity:1;fill-rule:nonzero;stroke:none"
               id="path3421" /></g><path
             d="m 143.073,104.165 6.831,0 0,-2.405 -6.831,0 0,2.405 z"
             style="fill:#4582be;fill-opacity:1;fill-rule:nonzero;stroke:none"
             id="path3423" /><g
             id="g3425"
             transform="translate(152.999,94.6758)"><path
               d="m 0,0 0,19.173 11.698,0 0,-2.298 -9.015,0 0,-5.695 8.023,0 0,-2.246 -8.023,0 0,-6.636 9.709,0 L 12.392,0 0,0 Z"
               style="fill:#4582be;fill-opacity:1;fill-rule:nonzero;stroke:none"
               id="path3427" /></g><g
             id="g3429"
             transform="translate(171.0352,109.0576)"><path
               d="m 0,0 5.448,0 0,-2.158 -5.448,0 0,-6.636 c 0,-0.72 0.057,-1.31 0.164,-1.778 0.107,-0.473 0.277,-0.843 0.498,-1.116 0.221,-0.262 0.498,-0.453 0.828,-0.56 0.334,-0.107 0.725,-0.164 1.161,-0.164 0.782,0 1.404,0.087 1.867,0.262 0.472,0.174 0.796,0.297 0.981,0.37 l 0.504,-2.123 c -0.263,-0.139 -0.71,-0.293 -1.357,-0.488 -0.642,-0.196 -1.382,-0.288 -2.215,-0.288 -0.977,0 -1.785,0.118 -2.421,0.365 -0.632,0.247 -1.146,0.626 -1.532,1.121 -0.391,0.504 -0.663,1.115 -0.817,1.844 -0.155,0.726 -0.236,1.574 -0.236,2.529 l 0,12.83 L 0,4.462 0,0 Z"
               style="fill:#4582be;fill-opacity:1;fill-rule:nonzero;stroke:none"
               id="path3431" /></g><path
             d="m 182.316,94.676 -2.574,0 0,14.382 2.574,0 0,-14.382 z m -1.295,16.988 c -0.462,0 -0.853,0.149 -1.176,0.458 -0.325,0.297 -0.49,0.708 -0.49,1.223 0,0.518 0.165,0.929 0.49,1.233 0.323,0.303 0.714,0.458 1.176,0.458 0.453,0 0.848,-0.155 1.172,-0.458 0.324,-0.304 0.488,-0.715 0.488,-1.233 0,-0.515 -0.164,-0.926 -0.488,-1.223 -0.324,-0.309 -0.719,-0.458 -1.172,-0.458"
             style="fill:#4582be;fill-opacity:1;fill-rule:nonzero;stroke:none"
             id="path3433" /><g
             id="g3435"
             transform="translate(195.8145,103.25)"><path
               d="m 0,0 c 0.016,1.161 -0.272,2.118 -0.869,2.863 -0.602,0.75 -1.429,1.12 -2.473,1.12 -0.596,0 -1.115,-0.113 -1.567,-0.344 C -5.361,3.413 -5.742,3.109 -6.055,2.739 -6.374,2.374 -6.615,1.948 -6.791,1.47 -6.965,0.991 -7.078,0.504 -7.135,0 L 0,0 Z m -9.875,-1.408 c 0,1.274 0.181,2.385 0.551,3.33 0.375,0.956 0.863,1.743 1.465,2.365 0.611,0.627 1.315,1.105 2.107,1.413 0.792,0.314 1.598,0.473 2.432,0.473 1.931,0 3.423,-0.607 4.45,-1.815 1.033,-1.207 1.553,-3.047 1.553,-5.52 l 0,-0.427 c 0,-0.175 -0.006,-0.334 -0.031,-0.477 l -9.848,0 c 0.118,-1.496 0.55,-2.626 1.305,-3.403 0.756,-0.781 1.933,-1.166 3.537,-1.166 0.904,0 1.67,0.081 2.281,0.23 0.622,0.166 1.085,0.314 1.399,0.463 l 0.36,-2.154 C 1.372,-8.271 0.826,-8.439 0.04,-8.63 c -0.78,-0.18 -1.675,-0.278 -2.667,-0.278 -1.254,0 -2.339,0.196 -3.253,0.576 -0.911,0.376 -1.66,0.899 -2.252,1.558 -0.586,0.663 -1.022,1.455 -1.31,2.37 -0.288,0.915 -0.433,1.906 -0.433,2.996"
               style="fill:#4582be;fill-opacity:1;fill-rule:nonzero;stroke:none"
               id="path3437" /></g><g
             id="g3439"
             transform="translate(202.2021,108.6465)"><path
               d="m 0,0 c 0.587,0.145 1.372,0.304 2.35,0.468 0.981,0.17 2.102,0.252 3.381,0.252 1.131,0 2.087,-0.164 2.843,-0.489 0.76,-0.318 1.363,-0.77 1.809,-1.351 0.453,-0.581 0.776,-1.28 0.961,-2.087 0.18,-0.812 0.277,-1.701 0.277,-2.689 l 0,-8.075 -2.579,0 0,7.526 c 0,0.888 -0.057,1.639 -0.176,2.271 -0.122,0.622 -0.323,1.132 -0.6,1.517 -0.273,0.39 -0.643,0.674 -1.101,0.848 -0.462,0.169 -1.033,0.262 -1.716,0.262 -0.272,0 -0.56,-0.01 -0.858,-0.03 C 4.297,-1.599 4.015,-1.613 3.748,-1.645 3.485,-1.675 3.244,-1.706 3.033,-1.747 2.817,-1.783 2.669,-1.809 2.571,-1.824 l 0,-12.147 -2.571,0 L 0,0 Z"
               style="fill:#4582be;fill-opacity:1;fill-rule:nonzero;stroke:none"
               id="path3441" /></g><g
             id="g3443"
             transform="translate(218.0801,108.6465)"><path
               d="m 0,0 c 0.591,0.145 1.372,0.304 2.349,0.468 0.976,0.17 2.101,0.252 3.372,0.252 1.145,0 2.097,-0.164 2.846,-0.489 0.761,-0.318 1.369,-0.77 1.816,-1.351 0.452,-0.581 0.764,-1.28 0.956,-2.087 0.18,-0.812 0.276,-1.701 0.276,-2.689 l 0,-8.075 -2.574,0 0,7.526 c 0,0.888 -0.062,1.639 -0.175,2.271 -0.124,0.622 -0.318,1.132 -0.595,1.517 -0.279,0.39 -0.643,0.674 -1.111,0.848 -0.463,0.169 -1.028,0.262 -1.717,0.262 -0.272,0 -0.56,-0.01 -0.858,-0.03 C 4.291,-1.599 4.009,-1.613 3.747,-1.645 3.474,-1.675 3.238,-1.706 3.027,-1.747 2.812,-1.783 2.662,-1.809 2.569,-1.824 l 0,-12.147 -2.569,0 L 0,0 Z"
               style="fill:#4582be;fill-opacity:1;fill-rule:nonzero;stroke:none"
               id="path3445" /></g><g
             id="g3447"
             transform="translate(243.0283,103.25)"><path
               d="m 0,0 c 0.011,1.161 -0.277,2.118 -0.878,2.863 -0.597,0.75 -1.419,1.12 -2.467,1.12 -0.592,0 -1.116,-0.113 -1.568,-0.344 C -5.365,3.413 -5.745,3.109 -6.06,2.739 -6.373,2.374 -6.619,1.948 -6.794,1.47 -6.969,0.991 -7.082,0.504 -7.139,0 L 0,0 Z m -9.878,-1.408 c 0,1.274 0.185,2.385 0.555,3.33 0.37,0.956 0.858,1.743 1.47,2.365 0.606,0.627 1.305,1.105 2.097,1.413 0.786,0.314 1.604,0.473 2.431,0.473 1.937,0 3.424,-0.607 4.452,-1.815 1.032,-1.207 1.552,-3.047 1.552,-5.52 l 0,-0.427 c 0,-0.175 -0.005,-0.334 -0.032,-0.477 l -9.842,0 c 0.113,-1.496 0.546,-2.626 1.299,-3.403 0.756,-0.781 1.938,-1.166 3.538,-1.166 0.904,0 1.67,0.081 2.287,0.23 0.617,0.166 1.085,0.314 1.392,0.463 l 0.366,-2.154 c -0.32,-0.175 -0.864,-0.343 -1.65,-0.534 -0.782,-0.18 -1.676,-0.278 -2.663,-0.278 -1.26,0 -2.344,0.196 -3.254,0.576 -0.914,0.376 -1.665,0.899 -2.257,1.558 -0.585,0.663 -1.032,1.455 -1.31,2.37 -0.287,0.915 -0.431,1.906 -0.431,2.996"
               style="fill:#4582be;fill-opacity:1;fill-rule:nonzero;stroke:none"
               id="path3449" /></g></g></g></g></g></svg>