<?xml version="1.0" encoding="UTF-8" standalone="no"?>
<!-- Created with Inkscape (http://www.inkscape.org/) -->

<svg
   xmlns:dc="http://purl.org/dc/elements/1.1/"
   xmlns:cc="http://creativecommons.org/ns#"
   xmlns:rdf="http://www.w3.org/1999/02/22-rdf-syntax-ns#"
   xmlns:svg="http://www.w3.org/2000/svg"
   xmlns="http://www.w3.org/2000/svg"
   version="1.1"
   width="1000"
   height="333.58951"
   id="svg2"
   xml:space="preserve"><metadata
     id="metadata8"><rdf:RDF><cc:Work
         rdf:about=""><dc:format>image/svg+xml</dc:format><dc:type
           rdf:resource="http://purl.org/dc/dcmitype/StillImage" /><dc:title></dc:title></cc:Work></rdf:RDF></metadata><defs
     id="defs6"><clipPath
       id="clipPath48"><path
         d="m 0,0 653.189,0 0,217.897 L 0,217.897 0,0 z"
         id="path50" /></clipPath></defs><g
     transform="matrix(1.25,0,0,-1.25,0,333.58951)"
     id="g10"><path
       d="M 227.66703,266.87161 0,266.87161 0,109.6087 C 0,44.112194 49.01246,0 113.61,0 c 17.42221,0 33.72622,3.2260188 48.2629,9.2016246 l 0.006,-0.014697 27.13089,11.3363814 38.65711,-17.6389982 0,263.9872992"
       id="path12"
       style="fill:#b41475;fill-opacity:1;fill-rule:nonzero;stroke:none" /><path
       d="m 113.68226,58.206736 -50.35725,22.974055 0,135.055549 50.35725,0 0,-158.029604"
       id="path14"
       style="fill:#ffffff;fill-opacity:1;fill-rule:nonzero;stroke:none" /><path
       d="m 178.94974,107.45558 -49.18515,-22.440064 0,-26.80878 49.18515,22.44006 0,26.808784"
       id="path16"
       style="fill:#ffffff;fill-opacity:1;fill-rule:nonzero;stroke:none" /><path
       d="m 474.12678,162.67512 c -5.98785,11.81649 -13.85081,32.19528 -15.48587,53.38241 -2.19722,0 -12.39825,0 -12.39825,0 0,0 2.9431,-38.16354 21.44433,-63.62263 l 12.88081,0 c 18.50245,25.45909 21.44555,63.62263 21.44555,63.62263 0,0 -10.20103,0 -12.39947,0 -1.63383,-21.18713 -9.49557,-41.56592 -15.4871,-53.38241"
       id="path18"
       style="fill:#231f20;fill-opacity:1;fill-rule:nonzero;stroke:none" /><path
       d="m 727.23454,241.50805 -12.71424,0 0,-25.45052 -7.76253,0 0,-9.7197 7.76253,0 0,-35.66625 c 0,-9.76869 5.06071,-18.23668 17.69411,-18.23668 l 6.75701,0 0,11.32413 -4.57326,0 c -5.33628,0 -7.16362,2.61364 -7.16362,7.68783 l 0,34.89097 11.73688,0 0,9.7197 -11.73688,0 0,25.45052"
       id="path20"
       style="fill:#231f20;fill-opacity:1;fill-rule:nonzero;stroke:none" /><path
       d="m 322.30794,182.9841 c 0,-11.81527 -7.29222,-19.44797 -18.58084,-19.44797 -11.28739,0 -18.58084,7.6327 -18.58084,19.44797 l 0,58.45781 -12.97511,0 0,-59.08489 c 0,-8.69702 3.21009,-16.52202 9.0424,-22.03344 5.72821,-5.41834 13.72467,-8.40063 22.51355,-8.40063 7.17587,0 13.82142,1.98779 19.13688,5.66697 l 12.42029,-5.66697 0,89.51896 -12.97633,0 0,-58.45781"
       id="path22"
       style="fill:#231f20;fill-opacity:1;fill-rule:nonzero;stroke:none" /><path
       d="m 397.15794,210.66981 c -3.7,3.5763 -9.92423,6.31364 -19.05237,6.31364 -5.99765,0 -11.53479,-2.28541 -15.01679,-4.7435 l -10.39944,4.7435 0,-64.551 12.72526,0 0,38.52729 c 0,9.86177 5.58369,14.09821 12.69097,14.09821 7.10729,0 12.68974,-4.23644 12.68974,-14.09821 l 0,-38.52729 12.72649,0 0,40.40485 c 0,7.10483 -1.49788,13.08901 -6.36386,17.83251"
       id="path24"
       style="fill:#231f20;fill-opacity:1;fill-rule:nonzero;stroke:none" /><path
       d="m 587.62288,190.95974 c 0,9.86177 5.58123,14.09821 12.68974,14.09821 2.48994,0 4.79004,-0.51929 6.73251,-1.61913 2.17272,3.52364 4.57815,7.42327 6.75333,10.94936 -3.48322,1.58729 -7.95115,2.59527 -13.48584,2.59527 -5.99765,0 -11.53479,-2.28541 -15.01679,-4.7435 l -10.39821,4.7435 0,-64.551 12.72526,0 0,38.52729"
       id="path26"
       style="fill:#231f20;fill-opacity:1;fill-rule:nonzero;stroke:none" /><path
       d="m 419.48165,216.05753 12.71424,0 0,-63.62508 -12.71424,0 0,63.62508 z"
       id="path28"
       style="fill:#231f20;fill-opacity:1;fill-rule:nonzero;stroke:none" /><path
       d="m 419.48165,241.50682 12.71424,0 0,-12.72403 -12.71424,0 0,12.72403 z"
       id="path30"
       style="fill:#231f20;fill-opacity:1;fill-rule:nonzero;stroke:none" /><path
       d="m 680.11923,216.05753 12.71301,0 0,-63.62508 -12.71301,0 0,63.62508 z"
       id="path32"
       style="fill:#231f20;fill-opacity:1;fill-rule:nonzero;stroke:none" /><path
       d="m 680.11923,241.50682 12.71301,0 0,-12.72403 -12.71301,0 0,12.72403 z"
       id="path34"
       style="fill:#231f20;fill-opacity:1;fill-rule:nonzero;stroke:none" /><path
       d="m 483.40924,92.274671 12.71547,0 0,-63.625076 -12.71547,0 0,63.625076 z"
       id="path36"
       style="fill:#231f20;fill-opacity:1;fill-rule:nonzero;stroke:none" /><path
       d="m 483.40924,117.72764 12.71547,0 0,-12.72648 -12.71547,0 0,12.72648 z"
       id="path38"
       style="fill:#231f20;fill-opacity:1;fill-rule:nonzero;stroke:none" /><path
       d="m 522.94083,189.48513 c 0.0612,1.85918 0.15432,3.37789 0.39438,4.74472 0.23393,1.32519 0.60258,2.51566 1.237,3.98414 1.85552,4.44711 6.72639,7.21262 12.71057,7.21262 4.26461,0 9.88871,-0.78262 12.45703,-4.49977 0.56829,-0.82304 1.4391,-3.02149 0.67362,-5.45141 -0.93081,-2.95167 -3.87391,-5.57389 -8.74479,-7.37673 -6.5145,-2.41156 -13.9243,-3.5959 -18.68739,-4.09805 l -0.0404,-0.002 0,5.48693 z m 15.94271,-37.97615 c 5.43304,0 9.75522,0.80344 13.60464,2.52791 3.42688,1.53585 6.54879,3.82492 10.12142,7.42082 l -7.55188,7.14525 c -2.27805,-2.29152 -4.49119,-3.79186 -6.96643,-4.72022 -2.44952,-0.91857 -5.21258,-1.32764 -8.9628,-1.32764 -7.83724,0 -13.27518,3.95965 -15.31318,11.15021 l -0.01,0.0404 0.0417,0.005 c 6.34548,0.84631 17.99785,1.86776 27.76776,7.15995 4.7582,2.57812 8.23897,5.57021 9.84463,9.90709 1.2566,3.39503 1.7906,7.62903 0.71893,11.49437 -1.44889,5.23218 -3.88371,8.28428 -7.68782,10.81708 -4.30993,2.87084 -10.24022,3.85433 -17.24218,3.85433 -4.24746,0 -8.10056,-0.73976 -11.44661,-2.196 -3.3044,-1.43542 -6.14094,-3.5812 -8.42757,-6.37733 -2.28541,-2.79 -4.03681,-6.24138 -5.20891,-10.25981 -1.18434,-4.05274 -1.78447,-8.7105 -1.78447,-13.83612 0,-11.42212 2.79122,-20.01259 8.29407,-25.53626 4.80841,-4.82188 11.60706,-7.26895 20.20855,-7.26895"
       id="path40"
       style="fill:#231f20;fill-opacity:1;fill-rule:nonzero;stroke:none" /><path
       d="m 349.56253,60.220243 -0.0404,-0.0037 0,5.489376 c 0.0625,1.859186 0.1531,3.37544 0.39438,4.741048 0.23515,1.32519 0.6038,2.516882 1.23578,3.98537 1.85796,4.449554 6.72761,7.212614 12.71056,7.212614 4.26462,0 9.88872,-0.780173 12.45827,-4.49977 0.56828,-0.823039 1.44031,-3.021484 0.67361,-5.451408 -0.93204,-2.952898 -3.87514,-5.571435 -8.74601,-7.377957 -6.51328,-2.411553 -13.92308,-3.594671 -18.68617,-4.095598 z m 28.63245,-3.090071 c 4.75942,2.576896 8.24141,5.571435 9.84585,9.905862 1.2566,3.393811 1.78937,7.627808 0.71893,11.496826 -1.44889,5.230951 -3.88494,8.280604 -7.68782,10.814634 -4.31116,2.869613 -10.24145,3.853096 -17.24095,3.853096 -4.24869,0 -8.10057,-0.738531 -11.44784,-2.193546 -3.3044,-1.437869 -6.14094,-3.583649 -8.4288,-6.377327 -2.28417,-2.791229 -4.03681,-6.243829 -5.2089,-10.259818 -1.18312,-4.053957 -1.78325,-8.71172 -1.78325,-13.838567 0,-11.422116 2.79,-20.01136 8.29407,-25.53258 4.80841,-4.825556 11.60706,-7.270177 20.20855,-7.270177 5.43304,0 9.75522,0.800993 13.60341,2.52668 3.42811,1.53585 6.55247,3.824927 10.12387,7.419599 l -7.5531,7.145252 c -2.27682,-2.291527 -4.49119,-3.790634 -6.96643,-4.719002 -2.45075,-0.91857 -5.21381,-1.32764 -8.96157,-1.32764 -7.83847,0 -13.27641,3.960875 -15.31318,11.148993 l -0.0123,0.04042 0.0429,0.0073 c 6.34548,0.845085 17.99663,1.866535 27.76654,7.159949"
       id="path42"
       style="fill:#231f20;fill-opacity:1;fill-rule:nonzero;stroke:none" /><g
       transform="scale(1.2247604,1.2247604)"
       id="g44"><g
         clip-path="url(#clipPath48)"
         id="g46"><path
           d="m 485.625,49.169 -0.032,-0.003 0,4.482 c 0.051,1.518 0.125,2.756 0.322,3.871 0.19,1.082 0.493,2.055 1.009,3.254 1.516,3.633 5.492,5.889 10.378,5.889 3.482,0 8.074,-0.637 10.172,-3.674 0.464,-0.672 1.175,-2.467 0.549,-4.451 -0.76,-2.411 -3.163,-4.549 -7.14,-6.024 -5.318,-1.969 -11.368,-2.935 -15.258,-3.344 z m 23.379,-2.523 c 3.885,2.104 6.727,4.549 8.039,8.088 1.026,2.771 1.462,6.228 0.587,9.387 -1.184,4.271 -3.172,6.761 -6.277,8.83 -3.52,2.343 -8.362,3.146 -14.077,3.146 -3.47,0 -6.614,-0.603 -9.348,-1.791 -2.698,-1.174 -5.013,-2.926 -6.881,-5.207 -1.864,-2.279 -3.296,-5.098 -4.253,-8.377 -0.966,-3.31 -1.455,-7.113 -1.455,-11.299 0,-9.326 2.277,-16.339 6.77,-20.847 3.926,-3.94 9.478,-5.936 16.5,-5.936 4.436,0 7.966,0.654 11.108,2.063 2.8,1.254 5.349,3.123 8.264,6.058 l -6.166,5.834 c -1.858,-1.871 -3.667,-3.095 -5.688,-3.853 -2,-0.75 -4.256,-1.084 -7.315,-1.084 -6.402,0 -10.842,3.234 -12.504,9.103 l -0.01,0.033 0.035,0.006 c 5.181,0.69 14.694,1.524 22.671,5.846"
           id="path52"
           style="fill:#231f20;fill-opacity:1;fill-rule:nonzero;stroke:none" /><path
           d="m 620.683,150.232 0,4.48 c 0.05,1.518 0.125,2.758 0.322,3.874 0.191,1.082 0.493,2.054 1.009,3.253 1.516,3.631 5.493,5.889 10.378,5.889 3.483,0 8.074,-0.639 10.171,-3.674 0.465,-0.672 1.176,-2.467 0.55,-4.451 -0.76,-2.41 -3.163,-4.551 -7.139,-6.023 -5.319,-1.969 -11.37,-2.936 -15.258,-3.346 l -0.033,-0.002 z m 20.535,-16.424 c -2.001,-0.75 -4.257,-1.084 -7.317,-1.084 -6.4,0 -10.84,3.233 -12.504,9.104 l -0.009,0.033 0.035,0.004 c 5.181,0.691 14.694,1.525 22.672,5.846 3.884,2.105 6.727,4.548 8.039,8.089 1.025,2.772 1.461,6.229 0.587,9.385 -1.184,4.272 -3.173,6.764 -6.279,8.832 -3.518,2.344 -8.361,3.147 -14.076,3.147 -3.47,0 -6.615,-0.604 -9.347,-1.793 -2.699,-1.172 -5.014,-2.924 -6.882,-5.207 -1.865,-2.278 -3.295,-5.096 -4.253,-8.377 -0.965,-3.309 -1.455,-7.112 -1.455,-11.297 0,-9.326 2.278,-16.34 6.771,-20.85 3.926,-3.937 9.477,-5.935 16.5,-5.935 4.436,0 7.965,0.656 11.107,2.064 2.799,1.254 5.349,3.123 8.265,6.059 l -6.167,5.834 c -1.858,-1.871 -3.666,-3.096 -5.687,-3.854"
           id="path54"
           style="fill:#231f20;fill-opacity:1;fill-rule:nonzero;stroke:none" /></g></g><path
       d="m 648.86212,189.86358 -9.97322,0.88305 c -6.73863,0.63075 -8.72642,3.52853 -8.72642,7.31917 0,4.79371 3.86044,8.19609 11.47233,8.19609 5.98295,0 11.59113,-1.25905 15.58385,-4.67246 l 7.98299,8.2059 c -5.85803,5.16849 -13.96717,7.18812 -23.44804,7.18812 -13.21394,0 -23.81424,-7.06197 -23.81424,-19.54595 0,-11.23351 6.85743,-16.65675 18.70087,-17.66595 l 10.10305,-0.87815 c 6.11645,-0.51195 8.48146,-3.28236 8.48146,-7.58004 0,-6.04542 -6.11155,-8.82073 -13.84224,-8.82073 -6.23771,0 -13.09146,1.38766 -18.21219,6.68597 l -8.35164,-8.4533 c 7.48206,-7.44654 16.20971,-9.21632 26.56383,-9.21632 15.08537,0 26.31153,6.95052 26.31153,20.31878 0,11.3523 -6.98359,17.02906 -18.83192,18.03582"
       id="path56"
       style="fill:#231f20;fill-opacity:1;fill-rule:nonzero;stroke:none" /><path
       d="m 312.20244,48.777306 c -0.0184,-4.549984 -4.27564,-9.482094 -11.8912,-9.482094 -10.35535,0 -16.09212,6.862332 -16.09212,17.710035 l 0,8.846444 c 0.1286,3.865343 0.37232,5.739227 1.62035,8.60884 1.99881,4.739823 7.21139,7.097487 12.63218,7.097487 7.78948,0 13.70752,-2.507085 13.73079,-9.110993 0.0196,-5.918042 0.0233,-17.754126 0,-23.669719 z m 0,41.742283 c -3.62896,1.594638 -8.18385,2.520557 -13.76263,2.520557 -18.34079,0 -26.80878,-11.845882 -26.80878,-32.298156 0,-24.061642 12.58809,-32.424306 28.43404,-32.424306 5.88864,0 10.37372,1.995135 14.25621,4.83168 l 10.5954,-4.83168 0,89.409956 -12.71424,0 0,-27.208051"
       id="path58"
       style="fill:#231f20;fill-opacity:1;fill-rule:nonzero;stroke:none" /><path
       d="m 441.75147,46.875254 0,70.852386 -12.71546,0 0,-71.595816 c 0,-9.368192 5.23952,-17.482229 17.3524,-17.482229 l 27.1064,0 0,10.855051 -24.87489,0 c -5.11949,0 -6.86845,2.507084 -6.86845,7.370608"
       id="path60"
       style="fill:#231f20;fill-opacity:1;fill-rule:nonzero;stroke:none" /><path
       d="m 527.34262,47.665224 0,70.062416 -12.71424,0 0,-70.837689 c 0,-9.767464 5.05949,-18.237907 17.69412,-18.237907 l 6.75455,0 0,11.326584 -4.5708,0 c -5.33751,0 -7.16363,2.612414 -7.16363,7.686596"
       id="path62"
       style="fill:#231f20;fill-opacity:1;fill-rule:nonzero;stroke:none" /><path
       d="m 563.31261,47.665224 0,70.062416 -12.71669,0 0,-70.837689 c 0,-9.767464 5.06194,-18.237907 17.69534,-18.237907 l 6.75578,0 0,11.326584 -4.57203,0 c -5.33751,0 -7.1624,2.612414 -7.1624,7.686596"
       id="path64"
       style="fill:#231f20;fill-opacity:1;fill-rule:nonzero;stroke:none" /><path
       d="m 789.13393,244.75489 -29.04275,-13.24946 0,-11.10858 29.04275,13.25069 0,11.10735"
       id="path66"
       style="fill:#231f20;fill-opacity:1;fill-rule:nonzero;stroke:none" /></g></svg>