<?xml version="1.0" encoding="UTF-8" standalone="no"?>
<svg
   xmlns:dc="http://purl.org/dc/elements/1.1/"
   xmlns:cc="http://creativecommons.org/ns#"
   xmlns:rdf="http://www.w3.org/1999/02/22-rdf-syntax-ns#"
   xmlns:svg="http://www.w3.org/2000/svg"
   xmlns="http://www.w3.org/2000/svg"
   version="1.1"
   id="svg2"
   xml:space="preserve"
   width="1280"
   height="428"
   viewBox="0 0 1280 428"><metadata
     id="metadata8"><rdf:RDF><cc:Work
         rdf:about=""><dc:format>image/svg+xml</dc:format><dc:type
           rdf:resource="http://purl.org/dc/dcmitype/StillImage" /><dc:title></dc:title></cc:Work></rdf:RDF></metadata><defs
     id="defs6"><clipPath
       clipPathUnits="userSpaceOnUse"
       id="clipPath18"><path
         d="M 0,321 H 960 V 0 H 0 Z"
         id="path16" /></clipPath><clipPath
       clipPathUnits="userSpaceOnUse"
       id="clipPath158"><path
         d="m 386.271,193.498 h 24.23 v -6.816 h -24.23 z"
         id="path156" /></clipPath><clipPath
       clipPathUnits="userSpaceOnUse"
       id="clipPath174"><path
         d="m 304.21,202.944 h 27.087 v -9.942 H 304.21 Z"
         id="path172" /></clipPath><clipPath
       clipPathUnits="userSpaceOnUse"
       id="clipPath190"><path
         d="m 372.12,173.883 h 19.745 V 151.012 H 372.12 Z"
         id="path188" /></clipPath><clipPath
       clipPathUnits="userSpaceOnUse"
       id="clipPath210"><path
         d="m 380.905,209.667 h 21.148 v -11.793 h -21.148 z"
         id="path208" /></clipPath><clipPath
       clipPathUnits="userSpaceOnUse"
       id="clipPath242"><path
         d="m 371.146,219.276 h 14.682 v -10.449 h -14.682 z"
         id="path240" /></clipPath><clipPath
       clipPathUnits="userSpaceOnUse"
       id="clipPath258"><path
         d="m 329.665,174.273 h 19.866 v -24.271 h -19.866 z"
         id="path256" /></clipPath></defs><g
     id="g10"
     transform="matrix(1.3333333,0,0,-1.3333333,0,428)"><g
       id="g12"><g
         id="g14"
         clip-path="url(#clipPath18)"><g
           id="g20"
           transform="translate(263.7495,78.681)"><path
             d="m 0,0 c -2.014,2.585 -3.217,6.494 -3.57,10.865 -0.416,2.811 -0.495,6.713 -0.495,12.094 l 0.361,88.201 h 23.866 v 11.834 H -3.704 l -0.903,19.785 c -0.722,14.422 5.967,19.229 13.198,19.229 4.7,0 11.571,-1.108 16.995,-2.772 v 11.65 c -6.148,2.033 -14.101,3.327 -19.887,3.327 -13.74,0 -25.492,-9.244 -24.589,-29.031 l 1.085,-22.188 H -34.798 V 111.16 h 16.993 l -0.361,-99.851 c 0,-13.315 8.412,-18.043 16.271,-18.122 l 8.701,1.635 C 4.216,-4.116 1.902,-2.441 0,0"
             style="fill:#005b7c;fill-opacity:1;fill-rule:nonzero;stroke:none"
             id="path22" /></g><g
           id="g24"
           transform="translate(149.7057,176.8866)"><path
             d="m 0,0 c -10.532,6.08 -21.551,12.165 -21.551,23.312 0,9.886 7.838,15.714 16.407,15.714 7.346,0 15.914,-2.788 24.975,-7.86 v 16.219 c -7.346,4.82 -16.407,7.86 -26.198,7.86 -14.449,0 -34.528,-9.126 -34.528,-32.437 0,-17.627 15.377,-27.607 27.934,-35.195 19.146,-9.235 30.753,-25.047 26.578,-37.655 -4.7,-14.195 -27.603,-18.931 -51.154,-10.578 -1.9,0.674 -3.724,1.433 -5.51,2.229 9.615,-6.618 21.866,-10.284 33.251,-10.284 19.344,0 37.217,10.39 37.217,34.967 C 27.421,-16.218 12.977,-7.603 0,0"
             style="fill:#005b7c;fill-opacity:1;fill-rule:nonzero;stroke:none"
             id="path26" /></g><g
           id="g28"
           transform="translate(211.7692,213.7541)"><path
             d="m 0,0 c 0,5.284 -4.024,9.576 -9.388,9.576 -5.365,0 -9.723,-4.292 -9.723,-9.576 0,-5.284 4.358,-9.576 9.723,-9.576 C -4.024,-9.576 0,-5.284 0,0"
             style="fill:#005b7c;fill-opacity:1;fill-rule:nonzero;stroke:none"
             id="path30" /></g><g
           id="g32"
           transform="translate(213.0698,112.5124)"><path
             d="m 0,0 c -1.605,1.905 -2.645,4.115 -3.309,6.783 -0.88,2.456 -1.008,6.569 -1.008,13.054 V 74.659 L -17.395,73.996 V 10.097 c 0,-11.889 6.706,-16.181 15.087,-16.181 l 8.052,1.456 C 3.607,-3.496 1.668,-1.98 0,0"
             style="fill:#005b7c;fill-opacity:1;fill-rule:nonzero;stroke:none"
             id="path34" /></g><g
           id="g36"
           transform="translate(373.6948,73.0744)"><path
             d="m 0,0 c -2.662,0 -5.94,0.964 -8.023,2.43 v 3.24 c 2.468,-1.466 5.014,-2.893 7.869,-2.893 2.353,0 5.246,1.273 5.246,4.204 0,2.431 -2.238,3.743 -4.128,4.823 -3.278,1.889 -8.447,4.011 -8.447,8.717 0,4.398 3.857,6.79 7.83,6.79 2.122,0 4.282,-0.54 5.902,-1.621 v -3.008 c -2.044,1.272 -4.32,1.889 -5.979,1.889 -2.584,0 -4.282,-1.774 -4.282,-3.78 0,-2.353 2.199,-3.818 4.012,-4.821 C 3.587,13.964 8.602,12.073 8.602,7.213 8.602,2.314 4.552,0 0,0"
             style="fill:#005b7c;fill-opacity:1;fill-rule:nonzero;stroke:none"
             id="path38" /></g><g
           id="g40"
           transform="translate(393.8296,89.507)"><path
             d="m 0,0 c -2.237,0 -4.706,-2.354 -4.706,-7.137 0,-4.551 2.392,-6.827 4.706,-6.827 2.314,0 4.706,2.276 4.706,6.827 C 4.706,-2.354 2.237,0 0,0 m 0,-16.433 c -3.742,0 -7.715,3.086 -7.715,9.373 0,6.249 3.665,9.49 7.715,9.49 4.05,0 7.715,-3.241 7.715,-9.49 0,-6.287 -3.973,-9.373 -7.715,-9.373"
             style="fill:#005b7c;fill-opacity:1;fill-rule:nonzero;stroke:none"
             id="path42" /></g><g
           id="g44"
           transform="translate(418.8252,75.7746)"><path
             d="m 0,0 c -1.852,-1.852 -3.857,-2.7 -5.94,-2.7 -4.205,0 -8.255,3.432 -8.255,9.219 0,5.748 3.819,9.643 8.332,9.643 1.466,0 3.009,-0.424 4.513,-1.311 l -0.887,-2.238 c -1.119,0.734 -2.199,1.08 -3.241,1.08 -3.163,0 -5.593,-3.163 -5.593,-7.213 0,-4.166 2.508,-6.596 5.323,-6.596 1.428,0 2.932,0.617 4.244,1.928 z"
             style="fill:#005b7c;fill-opacity:1;fill-rule:nonzero;stroke:none"
             id="path46" /></g><g
           id="g48"
           transform="translate(428.352,73.4211)"><path
             d="m 0,0 -1.89,-0.347 c -1.929,0 -3.472,1.003 -3.472,3.781 v 14.927 l 3.009,0.155 V 5.709 c 0,-2.777 0.077,-3.741 1.196,-3.741 L 0,2.122 Z m -3.819,22.489 c -1.234,0 -2.237,1.003 -2.237,2.238 0,1.234 1.003,2.237 2.237,2.237 1.235,0 2.16,-1.003 2.16,-2.237 0,-1.235 -0.925,-2.238 -2.16,-2.238"
             style="fill:#005b7c;fill-opacity:1;fill-rule:nonzero;stroke:none"
             id="path50" /></g><g
           id="g52"
           transform="translate(439.268,89.507)"><path
             d="m 0,0 c -2.7,0 -5.439,-2.739 -5.323,-7.291 2.816,0.077 8.139,0.617 8.139,4.552 C 2.816,-1.042 1.659,0 0,0 m 2.623,7.946 -7.02,-3.433 h -0.965 v 2.546 l 7.021,3.433 h 0.964 z m 3.24,-21.678 c -1.851,-1.852 -4.089,-2.701 -6.172,-2.701 -4.204,0 -8.023,3.472 -8.023,9.258 0,6.404 4.475,9.605 8.332,9.605 3.009,0 5.593,-1.813 5.593,-5.439 0,-3.202 -2.893,-6.557 -10.646,-6.557 0.578,-2.894 2.661,-4.283 4.899,-4.283 1.581,0 3.201,0.657 4.513,1.929 z"
             style="fill:#005b7c;fill-opacity:1;fill-rule:nonzero;stroke:none"
             id="path54" /></g><g
           id="g56"
           transform="translate(458.5547,73.5754)"><path
             d="m 0,0 -3.279,-0.501 c -2.121,0 -4.706,0.887 -4.706,4.938 v 11.147 h -3.124 v 2.469 l 3.124,0.308 0.579,5.324 h 2.43 v -5.632 h 4.475 V 15.584 H -4.976 V 5.323 c 0,-2.623 1.157,-3.355 2.7,-3.355 L 0,2.276 Z"
             style="fill:#005b7c;fill-opacity:1;fill-rule:nonzero;stroke:none"
             id="path58" /></g><g
           id="g60"
           transform="translate(469.2392,89.507)"><path
             d="m 0,0 c -2.7,0 -5.439,-2.739 -5.323,-7.291 2.816,0.077 8.139,0.617 8.139,4.552 C 2.816,-1.042 1.659,0 0,0 m 2.623,7.946 -7.02,-3.433 h -0.965 v 2.546 l 7.021,3.433 h 0.964 z m 3.24,-21.678 c -1.851,-1.852 -4.089,-2.701 -6.172,-2.701 -4.204,0 -8.023,3.472 -8.023,9.258 0,6.404 4.475,9.605 8.332,9.605 3.009,0 5.593,-1.813 5.593,-5.439 0,-3.202 -2.893,-6.557 -10.646,-6.557 0.578,-2.894 2.661,-4.283 4.899,-4.283 1.581,0 3.201,0.657 4.513,1.929 z"
             style="fill:#005b7c;fill-opacity:1;fill-rule:nonzero;stroke:none"
             id="path62" /></g><g
           id="g64"
           transform="translate(492.2666,73.4211)"><path
             d="m 0,0 -1.89,-0.347 c -1.928,0 -3.471,1.003 -3.471,3.781 v 14.927 l 3.008,0.155 V 5.709 c 0,-2.777 0.078,-3.741 1.197,-3.741 L 0,2.122 Z m -3.818,22.489 c -1.235,0 -2.238,1.003 -2.238,2.238 0,1.234 1.003,2.237 2.238,2.237 1.234,0 2.16,-1.003 2.16,-2.237 0,-1.235 -0.926,-2.238 -2.16,-2.238"
             style="fill:#005b7c;fill-opacity:1;fill-rule:nonzero;stroke:none"
             id="path66" /></g><g
           id="g68"
           transform="translate(512.8266,73.4211)"><path
             d="m 0,0 -1.891,-0.347 c -1.927,0 -3.47,1.003 -3.47,3.781 v 9.335 c 0,1.735 0.076,3.163 -1.235,3.163 -1.042,0 -2.16,-2.045 -3.009,-3.588 L -13.617,5.208 V 0.116 h -3.007 v 18.245 l 3.007,0.155 v -4.321 l -0.23,-4.783 h 0.038 l 0.579,1.234 2.545,4.591 c 1.003,1.813 2.122,3.279 4.474,3.279 2.662,0 3.858,-1.659 3.858,-4.667 v -8.14 c 0,-2.777 0.078,-3.741 1.196,-3.741 L 0,2.122 Z"
             style="fill:#005b7c;fill-opacity:1;fill-rule:nonzero;stroke:none"
             id="path70" /></g><g
           id="g72"
           transform="translate(518.5346,96.257)"><path
             d="m 0,0 c -0.192,4.128 2.314,6.057 5.246,6.057 1.234,0 2.932,-0.271 4.243,-0.695 V 2.932 C 8.332,3.279 6.866,3.511 5.863,3.511 4.32,3.511 2.894,2.508 3.048,-0.501 L 3.24,-4.629 H 8.332 V -7.098 H 3.24 L 3.163,-25.497 c 0,-2.777 0.077,-3.742 1.195,-3.742 l 1.159,0.154 v -2.275 l -1.891,-0.348 c -1.929,0 -3.472,1.003 -3.472,3.78 l 0.077,20.83 h -3.626 v 2.469 h 3.626 z"
             style="fill:#005b7c;fill-opacity:1;fill-rule:nonzero;stroke:none"
             id="path74" /></g><g
           id="g76"
           transform="translate(536.5864,89.507)"><path
             d="m 0,0 c -2.237,0 -4.706,-2.354 -4.706,-7.137 0,-4.551 2.392,-6.827 4.706,-6.827 2.314,0 4.706,2.276 4.706,6.827 C 4.706,-2.354 2.237,0 0,0 m 0,-16.433 c -3.742,0 -7.715,3.086 -7.715,9.373 0,6.249 3.664,9.49 7.715,9.49 4.051,0 7.715,-3.241 7.715,-9.49 0,-6.287 -3.973,-9.373 -7.715,-9.373"
             style="fill:#005b7c;fill-opacity:1;fill-rule:nonzero;stroke:none"
             id="path78" /></g><g
           id="g80"
           transform="translate(560.3471,89.1985)"><path
             d="m 0,0 c -0.463,0.077 -0.888,0.154 -1.234,0.154 -1.736,0 -2.083,-1.157 -3.395,-3.549 l -3.974,-7.174 v -5.092 H -11.61 V 2.584 l 3.007,0.154 v -4.32 l -0.23,-4.783 h 0.038 l 0.964,2.006 2.045,3.819 c 1.003,1.852 2.083,3.278 4.243,3.278 0.733,0 1.157,-0.154 1.543,-0.192 z"
             style="fill:#005b7c;fill-opacity:1;fill-rule:nonzero;stroke:none"
             id="path82" /></g><g
           id="g84"
           transform="translate(590.5512,73.4211)"><path
             d="m 0,0 -1.891,-0.347 c -1.927,0 -3.47,1.003 -3.47,3.781 v 9.335 c 0,1.735 0,3.163 -1.313,3.163 -1.041,0 -2.044,-2.045 -2.853,-3.588 l -3.82,-7.136 V 0.116 h -3.008 v 12.653 c 0,1.735 0,3.163 -1.312,3.163 -1.042,0 -2.044,-2.045 -2.854,-3.588 L -24.34,5.208 V 0.116 h -3.01 v 18.245 l 3.01,0.155 v -4.321 l -0.232,-4.783 h 0.039 l 0.694,1.543 2.237,4.282 c 0.965,1.852 2.045,3.279 4.398,3.279 2.661,0 4.05,-1.659 3.857,-4.667 l -0.231,-4.437 h 0.039 l 0.655,1.466 2.277,4.359 c 0.963,1.852 2.044,3.279 4.396,3.279 2.662,0 3.857,-1.659 3.857,-4.667 v -8.14 c 0,-2.777 0.079,-3.741 1.197,-3.741 L 0,2.122 Z"
             style="fill:#005b7c;fill-opacity:1;fill-rule:nonzero;stroke:none"
             id="path86" /></g><g
           id="g88"
           transform="translate(604.2055,88.0022)"><path
             d="m 0,0 c -0.887,0.965 -2.16,1.505 -3.086,1.505 -3.201,0 -4.977,-3.858 -4.977,-7.484 0,-3.356 1.274,-6.48 4.051,-6.48 2.083,0 4.012,2.083 4.012,6.133 z m 5.361,-14.581 -1.889,-0.347 c -1.197,0 -2.546,0.54 -2.932,2.199 l -0.116,0.501 H 0.348 c -0.965,-1.813 -2.702,-2.7 -4.553,-2.7 -4.513,0 -6.982,4.166 -6.982,8.872 0,4.938 2.778,9.991 7.715,9.991 1.736,0 2.97,-0.772 3.626,-1.427 L 0.656,3.626 3.009,3.935 V -8.872 c 0,-2.777 0.077,-3.741 1.234,-3.741 l 1.118,0.154 z"
             style="fill:#005b7c;fill-opacity:1;fill-rule:nonzero;stroke:none"
             id="path90" /></g><g
           id="g92"
           transform="translate(622.2953,73.5754)"><path
             d="m 0,0 -3.278,-0.501 c -2.122,0 -4.706,0.887 -4.706,4.938 v 11.147 h -3.125 v 2.469 l 3.125,0.308 0.578,5.324 h 2.43 v -5.632 h 4.475 V 15.584 H -4.976 V 5.323 c 0,-2.623 1.158,-3.355 2.701,-3.355 L 0,2.276 Z"
             style="fill:#005b7c;fill-opacity:1;fill-rule:nonzero;stroke:none"
             id="path94" /></g><g
           id="g96"
           transform="translate(631.8618,73.4211)"><path
             d="m 0,0 -1.891,-0.347 c -1.928,0 -3.471,1.003 -3.471,3.781 v 14.927 l 3.008,0.155 V 5.709 c 0,-2.777 0.078,-3.741 1.196,-3.741 L 0,2.122 Z m -3.819,22.489 c -1.235,0 -2.238,1.003 -2.238,2.238 0,1.234 1.003,2.237 2.238,2.237 1.234,0 2.16,-1.003 2.16,-2.237 0,-1.235 -0.926,-2.238 -2.16,-2.238"
             style="fill:#005b7c;fill-opacity:1;fill-rule:nonzero;stroke:none"
             id="path98" /></g><g
           id="g100"
           transform="translate(645.6323,88.0022)"><path
             d="m 0,0 c -0.888,0.965 -2.16,1.505 -3.086,1.505 -3.202,0 -4.976,-3.858 -4.976,-7.484 0,-3.356 1.273,-6.48 4.05,-6.48 2.083,0 4.012,2.083 4.012,6.133 z M 3.009,-23.145 H 0 v 10.647 c -0.771,-1.389 -2.546,-2.43 -4.282,-2.43 -4.513,0 -6.905,4.166 -6.905,8.872 0,4.938 2.778,9.991 7.715,9.991 1.737,0 2.971,-0.772 3.626,-1.427 l 0.501,1.118 2.354,0.309 z"
             style="fill:#005b7c;fill-opacity:1;fill-rule:nonzero;stroke:none"
             id="path102" /></g><g
           id="g104"
           transform="translate(671.0512,73.4211)"><path
             d="m 0,0 -1.891,-0.347 c -1.927,0 -3.47,1.003 -3.47,3.781 0,1.311 0.23,5.323 0.23,5.323 H -5.169 L -8.293,2.932 c -1.004,-1.813 -2.122,-3.279 -4.475,-3.279 -2.662,0 -3.857,1.659 -3.857,4.667 v 14.041 l 3.008,0.155 V 5.4 c 0,-1.735 -0.076,-3.163 1.234,-3.163 1.042,0 2.16,2.045 3.01,3.588 l 4.012,7.136 v 5.4 l 3.007,0.155 V 5.709 c 0,-2.777 0.079,-3.741 1.197,-3.741 L 0,2.122 Z"
             style="fill:#005b7c;fill-opacity:1;fill-rule:nonzero;stroke:none"
             id="path106" /></g><g
           id="g108"
           transform="translate(681.852,89.507)"><path
             d="m 0,0 c -2.7,0 -5.439,-2.739 -5.323,-7.291 2.815,0.077 8.139,0.617 8.139,4.552 C 2.816,-1.042 1.658,0 0,0 m 5.863,-13.732 c -1.851,-1.852 -4.089,-2.701 -6.172,-2.701 -4.205,0 -8.023,3.472 -8.023,9.258 0,6.404 4.475,9.605 8.332,9.605 3.009,0 5.594,-1.813 5.594,-5.439 0,-3.202 -2.894,-6.557 -10.647,-6.557 0.578,-2.894 2.661,-4.283 4.899,-4.283 1.582,0 3.201,0.657 4.513,1.929 z"
             style="fill:#005b7c;fill-opacity:1;fill-rule:nonzero;stroke:none"
             id="path110" /></g><g
           id="g112"
           transform="translate(708.853,88.0022)"><path
             d="m 0,0 c -0.888,0.965 -2.16,1.505 -3.086,1.505 -3.202,0 -4.976,-3.858 -4.976,-7.484 0,-3.356 1.273,-6.48 4.05,-6.48 2.083,0 4.012,2.083 4.012,6.133 z m 5.362,-14.581 -1.89,-0.347 c -1.196,0 -2.546,0.54 -2.932,2.199 l -0.115,0.501 H 0.347 c -0.964,-1.813 -2.7,-2.7 -4.551,-2.7 -4.514,0 -6.983,4.166 -6.983,8.872 0,4.938 2.778,9.991 7.715,9.991 1.543,0 2.817,-0.656 3.472,-1.273 v 11.572 l 3.009,0.155 V -8.872 c 0,-2.777 0.077,-3.741 1.234,-3.741 l 1.119,0.154 z"
             style="fill:#005b7c;fill-opacity:1;fill-rule:nonzero;stroke:none"
             id="path114" /></g><g
           id="g116"
           transform="translate(724.6674,89.507)"><path
             d="m 0,0 c -2.7,0 -5.438,-2.739 -5.323,-7.291 2.816,0.077 8.138,0.617 8.138,4.552 C 2.815,-1.042 1.659,0 0,0 m 5.863,-13.732 c -1.851,-1.852 -4.089,-2.701 -6.172,-2.701 -4.204,0 -8.023,3.472 -8.023,9.258 0,6.404 4.475,9.605 8.332,9.605 3.009,0 5.593,-1.813 5.593,-5.439 0,-3.202 -2.893,-6.557 -10.647,-6.557 0.579,-2.894 2.662,-4.283 4.9,-4.283 1.581,0 3.202,0.657 4.512,1.929 z"
             style="fill:#005b7c;fill-opacity:1;fill-rule:nonzero;stroke:none"
             id="path118" /></g><g
           id="g120"
           transform="translate(756.3364,97.26)"><path
             d="m 0,0 h -10.84 v -9.566 h 8.834 v -2.739 h -8.834 v -11.418 h -3.317 V 2.739 L 0,2.739 Z"
             style="fill:#005b7c;fill-opacity:1;fill-rule:nonzero;stroke:none"
             id="path122" /></g><g
           id="g124"
           transform="translate(770.4926,89.1985)"><path
             d="m 0,0 c -0.463,0.077 -0.887,0.154 -1.234,0.154 -1.737,0 -2.083,-1.157 -3.395,-3.549 l -3.973,-7.174 v -5.092 h -3.009 V 2.584 l 3.009,0.154 v -4.32 l -0.232,-4.783 h 0.039 l 0.965,2.006 2.044,3.819 c 1.003,1.852 2.083,3.278 4.243,3.278 0.732,0 1.157,-0.154 1.543,-0.192 z"
             style="fill:#005b7c;fill-opacity:1;fill-rule:nonzero;stroke:none"
             id="path126" /></g><g
           id="g128"
           transform="translate(783.183,88.0022)"><path
             d="m 0,0 c -0.888,0.965 -2.16,1.505 -3.086,1.505 -3.202,0 -4.976,-3.858 -4.976,-7.484 0,-3.356 1.273,-6.48 4.05,-6.48 2.083,0 4.012,2.083 4.012,6.133 z m 5.362,-14.581 -1.89,-0.347 c -1.196,0 -2.546,0.54 -2.932,2.199 l -0.115,0.501 H 0.347 c -0.964,-1.813 -2.7,-2.7 -4.551,-2.7 -4.514,0 -6.983,4.166 -6.983,8.872 0,4.938 2.778,9.991 7.715,9.991 1.737,0 2.971,-0.772 3.626,-1.427 L 0.655,3.626 3.009,3.935 V -8.872 c 0,-2.777 0.077,-3.741 1.234,-3.741 l 1.119,0.154 z"
             style="fill:#005b7c;fill-opacity:1;fill-rule:nonzero;stroke:none"
             id="path130" /></g><g
           id="g132"
           transform="translate(808.6411,73.4211)"><path
             d="m 0,0 -1.891,-0.347 c -1.927,0 -3.47,1.003 -3.47,3.781 v 9.335 c 0,1.735 0.076,3.163 -1.235,3.163 -1.042,0 -2.16,-2.045 -3.009,-3.588 L -13.617,5.208 V 0.116 h -3.008 v 18.245 l 3.008,0.155 v -4.321 l -0.231,-4.783 h 0.038 l 0.58,1.234 2.544,4.591 c 1.004,1.813 2.123,3.279 4.475,3.279 2.662,0 3.857,-1.659 3.857,-4.667 v -8.14 c 0,-2.777 0.079,-3.741 1.197,-3.741 L 0,2.122 Z"
             style="fill:#005b7c;fill-opacity:1;fill-rule:nonzero;stroke:none"
             id="path134" /></g><g
           id="g136"
           transform="translate(825.3041,75.7746)"><path
             d="m 0,0 c -1.852,-1.852 -3.857,-2.7 -5.94,-2.7 -4.206,0 -8.255,3.432 -8.255,9.219 0,5.748 3.819,9.643 8.332,9.643 1.466,0 3.009,-0.424 4.512,-1.311 l -0.886,-2.238 c -1.119,0.734 -2.2,1.08 -3.241,1.08 -3.163,0 -5.593,-3.163 -5.593,-7.213 0,-4.166 2.508,-6.596 5.324,-6.596 1.427,0 2.932,0.617 4.242,1.928 z"
             style="fill:#005b7c;fill-opacity:1;fill-rule:nonzero;stroke:none"
             id="path138" /></g><g
           id="g140"
           transform="translate(835.9496,89.507)"><path
             d="m 0,0 c -2.7,0 -5.439,-2.739 -5.323,-7.291 2.815,0.077 8.139,0.617 8.139,4.552 C 2.816,-1.042 1.658,0 0,0 m 5.863,-13.732 c -1.851,-1.852 -4.089,-2.701 -6.172,-2.701 -4.205,0 -8.023,3.472 -8.023,9.258 0,6.404 4.475,9.605 8.332,9.605 3.009,0 5.594,-1.813 5.594,-5.439 0,-3.202 -2.894,-6.557 -10.647,-6.557 0.578,-2.894 2.661,-4.283 4.899,-4.283 1.582,0 3.201,0.657 4.513,1.929 z"
             style="fill:#005b7c;fill-opacity:1;fill-rule:nonzero;stroke:none"
             id="path142" /></g><g
           id="g144"
           transform="translate(360.9775,169.059)"><path
             d="m 0,0 v 0 c -2.899,0.03 -5.197,-2.133 -5.131,-4.831 l 0.375,-15.432 c 0.066,-2.698 2.469,-4.91 5.369,-4.94 2.899,-0.029 5.197,2.134 5.131,4.832 L 5.369,-4.939 C 5.303,-2.241 2.899,-0.03 0,0"
             style="fill:#3baa35;fill-opacity:1;fill-rule:nonzero;stroke:none"
             id="path146" /></g><g
           id="g148"
           transform="translate(358.1865,246.3967)"><path
             d="m 0,0 v 0 c 2.49,0.216 4.387,3.074 4.237,6.383 l -0.86,18.926 c -0.15,3.309 -2.291,5.817 -4.781,5.601 -2.491,-0.216 -4.388,-3.074 -4.237,-6.383 L -4.781,5.6 C -4.631,2.291 -2.49,-0.216 0,0"
             style="fill:#005b7c;fill-opacity:1;fill-rule:nonzero;stroke:none"
             id="path150" /></g><g
           id="g152"><g
             id="g154" /><g
             id="g166"><g
               clip-path="url(#clipPath158)"
               opacity="0.720001"
               id="g164"><g
                 transform="translate(386.2723,190.1181)"
                 id="g162"><path
                   d="m 0,0 v 0 c 0.053,-1.873 2.199,-3.396 4.793,-3.402 l 14.835,-0.034 c 2.594,-0.007 4.653,1.507 4.6,3.379 -0.054,1.873 -2.2,3.396 -4.794,3.402 L 4.599,3.38 C 2.006,3.386 -0.053,1.873 0,0"
                   style="fill:#005b7c;fill-opacity:1;fill-rule:nonzero;stroke:none"
                   id="path160" /></g></g></g></g><g
           id="g168"><g
             id="g170" /><g
             id="g182"><g
               clip-path="url(#clipPath174)"
               opacity="0.699997"
               id="g180"><g
                 transform="translate(331.2954,197.8338)"
                 id="g178"><path
                   d="M 0,0 V 0 C -0.066,2.698 -2.469,4.909 -5.369,4.939 L -21.953,5.11 c -2.899,0.03 -5.196,-2.133 -5.131,-4.832 0.066,-2.698 2.47,-4.909 5.369,-4.939 l 16.584,-0.17 C -2.232,-4.861 0.066,-2.698 0,0"
                   style="fill:#005b7c;fill-opacity:1;fill-rule:nonzero;stroke:none"
                   id="path176" /></g></g></g></g><g
           id="g184"><g
             id="g186" /><g
             id="g198"><g
               clip-path="url(#clipPath190)"
               opacity="0.649994"
               id="g196"><g
                 transform="translate(374.4468,173.143)"
                 id="g194"><path
                   d="m 0,0 v 0 c -2.408,-1.427 -3.051,-4.44 -1.435,-6.73 l 9.241,-13.099 c 1.615,-2.29 4.878,-2.989 7.286,-1.563 2.409,1.427 3.051,4.441 1.435,6.731 L 7.286,-1.563 C 5.671,0.727 2.408,1.427 0,0"
                   style="fill:#005b7c;fill-opacity:1;fill-rule:nonzero;stroke:none"
                   id="path192" /></g></g></g></g><g
           id="g200"
           transform="translate(343.8926,237.3889)"><path
             d="m 0,0 v 0 c 2.562,0.864 3.558,3.675 2.225,6.278 l -7.624,14.889 c -1.334,2.603 -4.491,4.012 -7.053,3.148 -2.562,-0.864 -3.558,-3.675 -2.225,-6.278 L -7.052,3.148 C -5.719,0.545 -2.562,-0.864 0,0"
             style="fill:#005b7c;fill-opacity:1;fill-rule:nonzero;stroke:none"
             id="path202" /></g><g
           id="g204"><g
             id="g206" /><g
             id="g218"><g
               clip-path="url(#clipPath210)"
               opacity="0.610001"
               id="g216"><g
                 transform="translate(381.884,199.9389)"
                 id="g214"><path
                   d="m 0,0 v 0 c 1.585,-1.78 4.536,-2.558 6.59,-1.738 l 11.751,4.692 c 2.055,0.821 2.435,2.929 0.85,4.709 v 0 C 17.605,9.443 14.655,10.221 12.6,9.401 L 0.85,4.709 C -1.205,3.888 -1.585,1.78 0,0"
                   style="fill:#005b7c;fill-opacity:1;fill-rule:nonzero;stroke:none"
                   id="path212" /></g></g></g></g><g
           id="g220"
           transform="translate(336.241,181.7687)"><path
             d="m 0,0 v 0 c -1.616,2.29 -4.878,2.99 -7.286,1.563 l -13.776,-8.161 c -2.408,-1.427 -3.051,-4.44 -1.435,-6.731 1.615,-2.29 4.878,-2.989 7.286,-1.562 L -1.435,-6.73 C 0.973,-5.303 1.616,-2.29 0,0"
             style="fill:#00b1e1;fill-opacity:1;fill-rule:nonzero;stroke:none"
             id="path222" /></g><g
           id="g224"
           transform="translate(336.241,181.7687)"><path
             d="m 0,0 v 0 c -1.616,2.29 -4.878,2.99 -7.286,1.563 l -13.776,-8.161 c -2.408,-1.427 -3.051,-4.44 -1.435,-6.731 1.615,-2.29 4.878,-2.989 7.286,-1.562 L -1.435,-6.73 C 0.973,-5.303 1.616,-2.29 0,0 Z"
             style="fill:none;stroke:#00b1e1;stroke-width:1.281;stroke-linecap:butt;stroke-linejoin:miter;stroke-miterlimit:10;stroke-dasharray:none;stroke-opacity:1"
             id="path226" /></g><g
           id="g228"
           transform="translate(382.8284,179.5839)"><path
             d="m 0,0 v 0 c -1.322,-1.89 -0.47,-4.33 1.903,-5.448 l 13.574,-6.398 c 2.373,-1.119 5.369,-0.493 6.691,1.397 1.322,1.891 0.47,4.33 -1.903,5.449 L 6.691,1.397 C 4.318,2.516 1.322,1.89 0,0"
             style="fill:#ef7731;fill-opacity:1;fill-rule:nonzero;stroke:none"
             id="path230" /></g><g
           id="g232"
           transform="translate(334.7776,219.0387)"><path
             d="m 0,0 v 0 c 1.403,2.323 0.482,5.319 -2.056,6.692 l -14.517,7.854 c -2.538,1.373 -5.733,0.603 -7.135,-1.719 v 0 c -1.403,-2.323 -0.482,-5.319 2.056,-6.692 L -7.135,-1.719 C -4.597,-3.092 -1.403,-2.323 0,0"
             style="fill:#8d1f7f;fill-opacity:1;fill-rule:nonzero;stroke:none"
             id="path234" /></g><g
           id="g236"><g
             id="g238" /><g
             id="g250"><g
               clip-path="url(#clipPath242)"
               opacity="0.270004"
               id="g248"><g
                 transform="translate(373.8471,209.8557)"
                 id="g246"><path
                   d="m 0,0 v 0 c 2.277,-1.159 4.929,-1.37 5.922,-0.472 l 5.682,5.139 C 12.598,5.565 11.557,7.233 9.28,8.391 7.003,9.55 4.351,9.761 3.358,8.863 L -2.324,3.725 C -3.318,2.826 -2.277,1.159 0,0"
                   style="fill:#005b7c;fill-opacity:1;fill-rule:nonzero;stroke:none"
                   id="path244" /></g></g></g></g><g
           id="g252"><g
             id="g254" /><g
             id="g270"><g
               clip-path="url(#clipPath258)"
               opacity="0.759995"
               id="g268"><g
                 transform="translate(346.1963,172.9304)"
                 id="g262"><path
                   d="m 0,0 v 0 c -2.533,1.393 -5.731,0.649 -7.144,-1.662 l -8.081,-13.217 c -1.412,-2.311 -0.504,-5.314 2.028,-6.707 v 0 c 2.533,-1.393 5.732,-0.649 7.144,1.662 L 2.028,-6.706 C 3.441,-4.395 2.533,-1.393 0,0"
                   style="fill:#005b7c;fill-opacity:1;fill-rule:nonzero;stroke:none"
                   id="path260" /></g><g
                 transform="translate(346.1963,172.9304)"
                 id="g266"><path
                   d="m 0,0 v 0 c -2.533,1.393 -5.731,0.649 -7.144,-1.662 l -8.081,-13.217 c -1.412,-2.311 -0.504,-5.314 2.028,-6.707 v 0 c 2.533,-1.393 5.732,-0.649 7.144,1.662 L 2.028,-6.706 C 3.441,-4.395 2.533,-1.393 0,0 Z"
                   style="fill:none;stroke:#005b7c;stroke-width:1.281;stroke-linecap:butt;stroke-linejoin:miter;stroke-miterlimit:10;stroke-dasharray:none;stroke-opacity:1"
                   id="path264" /></g></g></g></g><g
           id="g272"
           transform="translate(357.3374,188.2402)"><path
             d="m 0,0 c -4.766,1.787 -7.773,6.608 -6.717,10.768 1.057,4.16 5.777,6.083 10.543,4.296 C 8.592,13.276 11.599,8.455 10.543,4.296 9.486,0.136 4.766,-1.787 0,0"
             style="fill:#ef7731;fill-opacity:1;fill-rule:nonzero;stroke:none"
             id="path274" /></g><g
           id="g276"
           transform="translate(348.7636,138.7786)"><path
             d="m 0,0 c -0.974,-8.536 -3.63,-16.719 -7.112,-24.258 -3.514,-7.531 -7.986,-14.434 -13.192,-20.385 -1.256,-1.549 -2.742,-2.783 -4.102,-4.187 -1.369,-1.396 -2.776,-2.728 -4.297,-3.871 l -4.458,-3.592 c -1.563,-1.039 -3.149,-2.031 -4.74,-3.001 -3.102,-2.134 -6.549,-3.369 -9.806,-5.039 -3.375,-1.318 -6.828,-2.341 -10.24,-3.379 3.254,1.706 6.602,3.003 9.785,4.777 3.12,1.931 6.424,3.38 9.344,5.721 6.159,3.964 11.689,9.162 16.792,14.812 5.192,5.588 9.485,12.285 13.257,19.354 C -5.033,-15.937 -1.986,-8.223 0,0"
             style="fill:#005b7c;fill-opacity:1;fill-rule:nonzero;stroke:none"
             id="path278" /></g><g
           id="g280"
           transform="translate(348.7636,138.7786)"><path
             d="m 0,0 c -0.974,-8.536 -3.63,-16.719 -7.112,-24.258 -3.514,-7.531 -7.986,-14.434 -13.192,-20.385 -1.256,-1.549 -2.742,-2.783 -4.102,-4.187 -1.369,-1.396 -2.776,-2.728 -4.297,-3.871 l -4.458,-3.592 c -1.563,-1.039 -3.149,-2.031 -4.74,-3.001 -3.102,-2.134 -6.549,-3.369 -9.806,-5.039 -3.375,-1.318 -6.828,-2.341 -10.24,-3.379 3.254,1.706 6.602,3.003 9.785,4.777 3.12,1.931 6.424,3.38 9.344,5.721 6.159,3.964 11.689,9.162 16.792,14.812 5.192,5.588 9.485,12.285 13.257,19.354 C -5.033,-15.937 -1.986,-8.223 0,0 Z"
             style="fill:none;stroke:#005b7c;stroke-width:0.963;stroke-linecap:butt;stroke-linejoin:miter;stroke-miterlimit:10;stroke-dasharray:none;stroke-opacity:1"
             id="path282" /></g></g></g></g></svg>
