<?xml version="1.0" encoding="UTF-8" standalone="no"?>
<svg
   xmlns:dc="http://purl.org/dc/elements/1.1/"
   xmlns:cc="http://creativecommons.org/ns#"
   xmlns:rdf="http://www.w3.org/1999/02/22-rdf-syntax-ns#"
   xmlns:svg="http://www.w3.org/2000/svg"
   xmlns="http://www.w3.org/2000/svg"
   xmlns:sodipodi="http://sodipodi.sourceforge.net/DTD/sodipodi-0.dtd"
   xmlns:inkscape="http://www.inkscape.org/namespaces/inkscape"
   version="1.1"
   id="svg2"
   xml:space="preserve"
   width="1080"
   height="890.19397"
   viewBox="0 0 1080 890.194"
   sodipodi:docname="logo-sif-2022-vertical.svg"
   inkscape:version="1.0.2 (e86c870879, 2021-01-15)"><sodipodi:namedview
     pagecolor="#ffffff"
     bordercolor="#666666"
     borderopacity="1"
     objecttolerance="10"
     gridtolerance="10"
     guidetolerance="10"
     inkscape:pageopacity="0"
     inkscape:pageshadow="2"
     inkscape:window-width="1920"
     inkscape:window-height="1016"
     id="namedview142"
     showgrid="false"
     inkscape:zoom="0.78598767"
     inkscape:cx="295.08522"
     inkscape:cy="443.82473"
     inkscape:window-x="0"
     inkscape:window-y="0"
     inkscape:window-maximized="1"
     inkscape:current-layer="svg2"
     inkscape:document-rotation="0"
     fit-margin-top="40"
     lock-margins="true"
     fit-margin-left="40"
     fit-margin-right="40"
     fit-margin-bottom="40" /><metadata
     id="metadata8"><rdf:RDF><cc:Work
         rdf:about=""><dc:format>image/svg+xml</dc:format><dc:type
           rdf:resource="http://purl.org/dc/dcmitype/StillImage" /><dc:title></dc:title></cc:Work></rdf:RDF></metadata><defs
     id="defs6"><clipPath
       clipPathUnits="userSpaceOnUse"
       id="clipPath18"><path
         d="M 0,595.276 H 595.276 V 0 H 0 Z"
         id="path16" /></clipPath><clipPath
       clipPathUnits="userSpaceOnUse"
       id="clipPath166"><path
         d="m 442.914,366.635 h 27.619 v -7.614 h -27.619 z"
         id="path164" /></clipPath><clipPath
       clipPathUnits="userSpaceOnUse"
       id="clipPath182"><path
         d="m 349.374,377.187 h 30.875 v -11.106 h -30.875 z"
         id="path180" /></clipPath><clipPath
       clipPathUnits="userSpaceOnUse"
       id="clipPath198"><path
         d="M 426.783,344.723 H 449.29 V 319.174 H 426.783 Z"
         id="path196" /></clipPath><clipPath
       clipPathUnits="userSpaceOnUse"
       id="clipPath218"><path
         d="m 436.797,384.697 h 24.107 v -13.173 h -24.107 z"
         id="path216" /></clipPath><clipPath
       clipPathUnits="userSpaceOnUse"
       id="clipPath250"><path
         d="m 425.673,395.431 h 16.735 v -11.672 h -16.735 z"
         id="path248" /></clipPath><clipPath
       clipPathUnits="userSpaceOnUse"
       id="clipPath266"><path
         d="m 378.396,345.167 h 22.631 v -27.128 h -22.631 z"
         id="path264" /></clipPath></defs><g
     id="g10"
     transform="matrix(2.9108209,0,0,-2.9108209,-329.63729,1379.766)"><g
       id="g12"><g
         id="g14"
         clip-path="url(#clipPath18)"><g
           id="g20"
           transform="translate(396.6579,312.9562)"><path
             d="m 0,0 c -1.108,-9.707 -4.127,-19.013 -8.087,-27.585 -3.996,-8.564 -9.082,-16.414 -15.002,-23.182 -1.428,-1.76 -3.118,-3.164 -4.664,-4.761 -1.558,-1.587 -3.157,-3.102 -4.887,-4.401 l -5.069,-4.085 c -1.778,-1.181 -3.581,-2.31 -5.39,-3.413 -3.528,-2.427 -7.447,-3.831 -11.152,-5.73 -3.837,-1.498 -7.763,-2.662 -11.644,-3.842 3.701,1.94 7.507,3.415 11.127,5.432 3.548,2.196 7.306,3.844 10.626,6.506 7.003,4.508 13.292,10.418 19.095,16.843 5.904,6.355 10.786,13.971 15.075,22.009 C -5.723,-18.123 -2.258,-9.35 0,0"
             style="fill:#005b7c;fill-opacity:1;fill-rule:nonzero;stroke:none"
             id="path22" /></g><g
           id="g24"
           transform="translate(394.1913,302.6383)"><path
             d="m 0,0 c -1.895,-5.458 -4.242,-10.86 -7.021,-16.146 -4.899,-9.184 -9.857,-16.421 -15.162,-22.128 -6.621,-7.339 -12.905,-12.878 -19.199,-16.931 -2.158,-1.734 -4.573,-3.073 -6.915,-4.371 -1.227,-0.679 -2.5,-1.384 -3.716,-2.139 -1.405,-0.784 -2.842,-1.489 -4.263,-2.158 1.437,0.482 2.874,0.992 4.289,1.545 1.179,0.605 2.432,1.181 3.684,1.758 2.474,1.136 5.032,2.313 7.358,3.91 2.205,1.35 3.863,2.4 5.4,3.418 l 5.031,4.058 c 1.873,1.408 3.568,3.068 4.836,4.358 0.548,0.565 1.116,1.107 1.685,1.652 1.005,0.963 2.042,1.958 2.947,3.071 5.936,6.794 10.957,14.552 14.931,23.067 C -3.463,-11.281 -1.416,-5.584 0,0 m -63.27,-67.204 -0.411,1.008 c 1.674,0.879 3.39,1.671 5.053,2.439 2.005,0.926 4.084,1.884 6.057,2.987 1.221,0.755 2.505,1.465 3.742,2.152 2.3,1.276 4.679,2.592 6.81,4.3 6.258,4.034 12.468,9.513 19.031,16.783 5.242,5.645 10.147,12.805 14.999,21.902 4.452,8.478 7.794,17.254 9.926,26.08 L 3.01,10.255 c -1.021,-8.934 -3.757,-18.27 -8.136,-27.751 -4.016,-8.613 -9.089,-16.455 -15.083,-23.312 -0.932,-1.153 -2,-2.171 -3.027,-3.158 -0.557,-0.534 -1.121,-1.068 -1.657,-1.626 -1.3,-1.321 -3.032,-3.016 -4.953,-4.458 l -5.052,-4.073 c -1.589,-1.058 -3.258,-2.116 -5.452,-3.455 -2.379,-1.637 -4.979,-2.832 -7.495,-3.99 -1.242,-0.568 -2.479,-1.136 -3.694,-1.757 -3.611,-1.416 -7.284,-2.532 -10.836,-3.608 z"
             style="fill:#005b7c;fill-opacity:1;fill-rule:nonzero;stroke:none"
             id="path26" /></g><g
           id="g28"
           transform="translate(144.4578,228.1161)"><path
             d="m 0,0 c -2.389,0 -5.331,0.866 -7.2,2.181 v 2.908 c 2.216,-1.316 4.5,-2.597 7.063,-2.597 2.111,0 4.705,1.145 4.705,3.773 0,2.182 -2.005,3.361 -3.7,4.329 -2.947,1.697 -7.583,3.6 -7.583,7.823 0,3.948 3.463,6.095 7.026,6.095 1.905,0 3.841,-0.484 5.299,-1.455 v -2.7 C 3.773,21.499 1.731,22.054 0.242,22.054 -2.079,22.054 -3.6,20.459 -3.6,18.66 -3.6,16.549 -1.626,15.233 0,14.333 3.221,12.534 7.721,10.836 7.721,6.473 7.721,2.076 4.084,0 0,0"
             style="fill:#005b7c;fill-opacity:1;fill-rule:nonzero;stroke:none"
             id="path30" /></g><g
           id="g32"
           transform="translate(162.3779,242.8653)"><path
             d="m 0,0 c -2.01,0 -4.226,-2.113 -4.226,-6.405 0,-4.087 2.147,-6.129 4.226,-6.129 2.074,0 4.221,2.042 4.221,6.129 C 4.221,-2.113 2.005,0 0,0 m 0,-14.749 c -3.358,0 -6.926,2.771 -6.926,8.413 0,5.607 3.289,8.517 6.926,8.517 3.631,0 6.921,-2.91 6.921,-8.517 0,-5.642 -3.563,-8.413 -6.921,-8.413"
             style="fill:#005b7c;fill-opacity:1;fill-rule:nonzero;stroke:none"
             id="path34" /></g><g
           id="g36"
           transform="translate(184.6503,230.5397)"><path
             d="m 0,0 c -1.663,-1.66 -3.463,-2.424 -5.331,-2.424 -3.774,0 -7.41,3.082 -7.41,8.274 0,5.16 3.426,8.657 7.478,8.657 1.316,0 2.7,-0.381 4.053,-1.179 l -0.8,-2.008 c -1,0.658 -1.974,0.971 -2.906,0.971 -2.841,0 -5.02,-2.839 -5.02,-6.476 0,-3.739 2.252,-5.918 4.778,-5.918 1.279,0 2.632,0.553 3.805,1.729 z"
             style="fill:#005b7c;fill-opacity:1;fill-rule:nonzero;stroke:none"
             id="path38" /></g><g
           id="g40"
           transform="translate(193.0393,228.4293)"><path
             d="m 0,0 -1.695,-0.313 c -1.731,0 -3.115,0.9 -3.115,3.392 v 13.399 l 2.7,0.14 V 5.123 c 0,-2.494 0.068,-3.36 1.073,-3.36 L 0,1.903 Z m -3.426,20.183 c -1.111,0 -2.011,0.9 -2.011,2.008 0,1.108 0.9,2.008 2.011,2.008 1.11,0 1.937,-0.9 1.937,-2.008 0,-1.108 -0.827,-2.008 -1.937,-2.008"
             style="fill:#005b7c;fill-opacity:1;fill-rule:nonzero;stroke:none"
             id="path42" /></g><g
           id="g44"
           transform="translate(202.6704,242.8653)"><path
             d="m 0,0 c -2.421,0 -4.884,-2.458 -4.779,-6.544 2.526,0.068 7.305,0.555 7.305,4.086 C 2.526,-0.937 1.489,0 0,0 M 2.353,7.131 -3.947,4.05 H -4.81 v 2.284 l 6.299,3.081 h 0.864 z m 2.91,-19.457 c -1.663,-1.66 -3.668,-2.423 -5.542,-2.423 -3.773,0 -7.2,3.115 -7.2,8.31 0,5.747 4.016,8.62 7.479,8.62 2.7,0 5.021,-1.628 5.021,-4.881 0,-2.873 -2.6,-5.886 -9.558,-5.886 0.521,-2.598 2.39,-3.842 4.4,-3.842 1.416,0 2.874,0.587 4.047,1.729 z"
             style="fill:#005b7c;fill-opacity:1;fill-rule:nonzero;stroke:none"
             id="path46" /></g><g
           id="g48"
           transform="translate(219.8221,228.5661)"><path
             d="m 0,0 -2.942,-0.45 c -1.905,0 -4.226,0.797 -4.226,4.431 v 10.005 h -2.8 v 2.216 l 2.8,0.279 0.521,4.776 h 2.184 v -5.055 h 4.016 V 13.986 H -4.463 V 4.779 c 0,-2.355 1.037,-3.013 2.421,-3.013 L 0,2.042 Z"
             style="fill:#005b7c;fill-opacity:1;fill-rule:nonzero;stroke:none"
             id="path50" /></g><g
           id="g52"
           transform="translate(229.2478,242.8653)"><path
             d="m 0,0 c -2.421,0 -4.884,-2.458 -4.779,-6.544 2.526,0.068 7.305,0.555 7.305,4.086 C 2.526,-0.937 1.489,0 0,0 M 2.353,7.131 -3.947,4.05 H -4.81 v 2.284 l 6.299,3.081 h 0.864 z m 2.91,-19.457 c -1.663,-1.66 -3.668,-2.423 -5.542,-2.423 -3.773,0 -7.2,3.115 -7.2,8.31 0,5.747 4.016,8.62 7.479,8.62 2.7,0 5.021,-1.628 5.021,-4.881 0,-2.873 -2.6,-5.886 -9.558,-5.886 0.521,-2.598 2.39,-3.842 4.4,-3.842 1.416,0 2.874,0.587 4.047,1.729 z"
             style="fill:#005b7c;fill-opacity:1;fill-rule:nonzero;stroke:none"
             id="path54" /></g><g
           id="g56"
           transform="translate(143.6263,189.8946)"><path
             d="m 0,0 -1.695,-0.313 c -1.731,0 -3.115,0.9 -3.115,3.392 v 13.399 l 2.7,0.139 V 5.123 c 0,-2.494 0.068,-3.36 1.073,-3.36 L 0,1.903 Z m -3.426,20.183 c -1.105,0 -2.011,0.9 -2.011,2.008 0,1.108 0.906,2.008 2.011,2.008 1.105,0 1.937,-0.9 1.937,-2.008 0,-1.108 -0.832,-2.008 -1.937,-2.008"
             style="fill:#005b7c;fill-opacity:1;fill-rule:nonzero;stroke:none"
             id="path58" /></g><g
           id="g60"
           transform="translate(161.9148,189.8946)"><path
             d="m 0,0 -1.7,-0.313 c -1.731,0 -3.116,0.9 -3.116,3.392 v 8.378 c 0,1.558 0.069,2.84 -1.105,2.84 -0.937,0 -1.942,-1.835 -2.7,-3.219 l -3.605,-6.405 v -4.57 h -2.699 v 16.375 l 2.699,0.139 v -3.878 l -0.205,-4.292 h 0.037 l 0.516,1.108 2.284,4.118 c 0.9,1.629 1.905,2.944 4.015,2.944 2.39,0 3.463,-1.489 3.463,-4.189 V 5.123 c 0,-2.494 0.069,-3.36 1.074,-3.36 L 0,1.903 Z"
             style="fill:#005b7c;fill-opacity:1;fill-rule:nonzero;stroke:none"
             id="path62" /></g><g
           id="g64"
           transform="translate(166.8829,210.3882)"><path
             d="m 0,0 c -0.174,3.705 2.074,5.437 4.705,5.437 1.11,0 2.631,-0.245 3.81,-0.624 V 2.631 C 7.479,2.942 6.163,3.15 5.263,3.15 3.873,3.15 2.595,2.25 2.731,-0.45 L 2.905,-4.155 H 7.479 V -6.371 H 2.905 L 2.837,-22.883 c 0,-2.495 0.068,-3.358 1.073,-3.358 l 1.037,0.137 v -2.042 l -1.695,-0.31 c -1.731,0 -3.115,0.9 -3.115,3.392 l 0.068,18.693 h -3.252 v 2.216 h 3.252 z"
             style="fill:#005b7c;fill-opacity:1;fill-rule:nonzero;stroke:none"
             id="path66" /></g><g
           id="g68"
           transform="translate(182.9241,204.3306)"><path
             d="m 0,0 c -2.01,0 -4.226,-2.113 -4.226,-6.405 0,-4.087 2.147,-6.129 4.226,-6.129 2.074,0 4.221,2.042 4.221,6.129 C 4.221,-2.113 2.005,0 0,0 m 0,-14.749 c -3.358,0 -6.926,2.771 -6.926,8.413 0,5.607 3.289,8.517 6.926,8.517 3.631,0 6.921,-2.91 6.921,-8.517 0,-5.642 -3.563,-8.413 -6.921,-8.413"
             style="fill:#005b7c;fill-opacity:1;fill-rule:nonzero;stroke:none"
             id="path70" /></g><g
           id="g72"
           transform="translate(204.0861,204.0517)"><path
             d="m 0,0 c -0.416,0.071 -0.795,0.139 -1.105,0.139 -1.558,0 -1.869,-1.039 -3.047,-3.184 l -3.569,-6.439 v -4.57 H -10.42 V 2.321 L -7.721,2.46 V -1.418 L -7.926,-5.71 h 0.037 l 0.863,1.8 1.837,3.426 c 0.9,1.663 1.868,2.944 3.805,2.944 0.658,0 1.042,-0.139 1.384,-0.173 z"
             style="fill:#005b7c;fill-opacity:1;fill-rule:nonzero;stroke:none"
             id="path74" /></g><g
           id="g76"
           transform="translate(231.032,189.8946)"><path
             d="m 0,0 -1.695,-0.313 c -1.731,0 -3.115,0.9 -3.115,3.392 v 8.378 c 0,1.558 0,2.84 -1.179,2.84 -0.932,0 -1.832,-1.835 -2.563,-3.219 l -3.426,-6.405 v -4.57 h -2.7 v 11.354 c 0,1.558 0,2.84 -1.179,2.84 -0.932,0 -1.831,-1.835 -2.558,-3.219 l -3.431,-6.405 v -4.57 h -2.7 v 16.375 l 2.7,0.139 v -3.878 l -0.205,-4.292 h 0.036 l 0.621,1.384 2.011,3.842 c 0.863,1.663 1.831,2.944 3.942,2.944 2.389,0 3.636,-1.489 3.463,-4.189 l -0.206,-3.981 h 0.032 l 0.589,1.316 2.042,3.91 c 0.869,1.663 1.837,2.944 3.948,2.944 2.389,0 3.463,-1.489 3.463,-4.189 V 5.123 c 0,-2.494 0.068,-3.36 1.073,-3.36 L 0,1.903 Z"
             style="fill:#005b7c;fill-opacity:1;fill-rule:nonzero;stroke:none"
             id="path78" /></g><g
           id="g80"
           transform="translate(243.1418,202.9807)"><path
             d="m 0,0 c -0.8,0.866 -1.942,1.35 -2.768,1.35 -2.874,0 -4.468,-3.463 -4.468,-6.718 0,-3.01 1.142,-5.816 3.636,-5.816 1.869,0 3.6,1.871 3.6,5.505 z m 4.81,-13.086 -1.694,-0.313 c -1.074,0 -2.284,0.484 -2.632,1.973 l -0.105,0.45 H 0.311 c -0.864,-1.626 -2.421,-2.423 -4.084,-2.423 -4.053,0 -6.269,3.739 -6.269,7.962 0,4.432 2.495,8.968 6.926,8.968 1.558,0 2.663,-0.694 3.253,-1.281 L 0.589,3.252 2.7,3.531 V -7.963 c 0,-2.494 0.068,-3.36 1.105,-3.36 l 1.005,0.139 z"
             style="fill:#005b7c;fill-opacity:1;fill-rule:nonzero;stroke:none"
             id="path82" /></g><g
           id="g84"
           transform="translate(259.2251,190.0314)"><path
             d="m 0,0 -2.942,-0.45 c -1.905,0 -4.226,0.797 -4.226,4.431 v 10.005 h -2.8 v 2.216 l 2.8,0.279 0.521,4.776 h 2.184 v -5.055 h 4.016 V 13.986 H -4.463 V 4.779 c 0,-2.355 1.037,-3.013 2.421,-3.013 L 0,2.042 Z"
             style="fill:#005b7c;fill-opacity:1;fill-rule:nonzero;stroke:none"
             id="path86" /></g><g
           id="g88"
           transform="translate(267.6457,189.8946)"><path
             d="m 0,0 -1.695,-0.313 c -1.731,0 -3.115,0.9 -3.115,3.392 v 13.399 l 2.7,0.139 V 5.123 c 0,-2.494 0.068,-3.36 1.073,-3.36 L 0,1.903 Z m -3.426,20.183 c -1.111,0 -2.011,0.9 -2.011,2.008 0,1.108 0.9,2.008 2.011,2.008 1.11,0 1.937,-0.9 1.937,-2.008 0,-1.108 -0.827,-2.008 -1.937,-2.008"
             style="fill:#005b7c;fill-opacity:1;fill-rule:nonzero;stroke:none"
             id="path90" /></g><g
           id="g92"
           transform="translate(279.8398,202.9807)"><path
             d="m 0,0 c -0.8,0.866 -1.942,1.35 -2.768,1.35 -2.874,0 -4.468,-3.463 -4.468,-6.718 0,-3.01 1.142,-5.816 3.636,-5.816 1.868,0 3.6,1.871 3.6,5.505 z M 2.7,-20.773 H 0 v 9.555 c -0.695,-1.247 -2.284,-2.181 -3.842,-2.181 -4.052,0 -6.2,3.739 -6.2,7.962 0,4.432 2.495,8.968 6.926,8.968 1.558,0 2.663,-0.694 3.253,-1.281 L 0.589,3.252 2.7,3.531 Z"
             style="fill:#005b7c;fill-opacity:1;fill-rule:nonzero;stroke:none"
             id="path94" /></g><g
           id="g96"
           transform="translate(302.4964,189.8946)"><path
             d="m 0,0 -1.7,-0.313 c -1.731,0 -3.116,0.9 -3.116,3.392 0,1.179 0.211,4.778 0.211,4.778 H -4.642 L -7.447,2.629 c -0.9,-1.626 -1.905,-2.942 -4.016,-2.942 -2.389,0 -3.462,1.489 -3.462,4.189 v 12.602 l 2.699,0.139 V 4.844 c 0,-1.557 -0.068,-2.836 1.111,-2.836 0.937,0 1.937,1.834 2.7,3.218 l 3.599,6.405 v 4.847 l 2.7,0.139 V 5.123 c 0,-2.494 0.069,-3.36 1.074,-3.36 L 0,1.903 Z"
             style="fill:#005b7c;fill-opacity:1;fill-rule:nonzero;stroke:none"
             id="path98" /></g><g
           id="g100"
           transform="translate(312.0327,204.3306)"><path
             d="m 0,0 c -2.421,0 -4.884,-2.458 -4.779,-6.544 2.526,0.068 7.305,0.555 7.305,4.086 C 2.526,-0.937 1.489,0 0,0 m 5.263,-12.326 c -1.663,-1.66 -3.668,-2.423 -5.542,-2.423 -3.773,0 -7.2,3.115 -7.2,8.31 0,5.747 4.016,8.62 7.479,8.62 2.7,0 5.021,-1.628 5.021,-4.881 0,-2.873 -2.6,-5.886 -9.558,-5.886 0.521,-2.598 2.39,-3.842 4.4,-3.842 1.416,0 2.874,0.587 4.047,1.729 z"
             style="fill:#005b7c;fill-opacity:1;fill-rule:nonzero;stroke:none"
             id="path102" /></g><g
           id="g104"
           transform="translate(335.9419,202.9807)"><path
             d="m 0,0 c -0.8,0.866 -1.942,1.35 -2.768,1.35 -2.874,0 -4.468,-3.463 -4.468,-6.718 0,-3.01 1.142,-5.816 3.636,-5.816 1.868,0 3.6,1.871 3.6,5.505 z m 4.81,-13.086 -1.694,-0.313 c -1.074,0 -2.284,0.484 -2.632,1.973 l -0.105,0.45 H 0.31 c -0.863,-1.626 -2.42,-2.423 -4.083,-2.423 -4.053,0 -6.269,3.739 -6.269,7.962 0,4.432 2.495,8.968 6.926,8.968 1.384,0 2.527,-0.589 3.116,-1.144 v 10.386 l 2.7,0.139 V -7.963 c 0,-2.494 0.068,-3.36 1.105,-3.36 l 1.005,0.139 z"
             style="fill:#005b7c;fill-opacity:1;fill-rule:nonzero;stroke:none"
             id="path106" /></g><g
           id="g108"
           transform="translate(349.978,204.3306)"><path
             d="m 0,0 c -2.421,0 -4.884,-2.458 -4.779,-6.544 2.526,0.068 7.305,0.555 7.305,4.086 C 2.526,-0.937 1.489,0 0,0 m 5.263,-12.326 c -1.663,-1.66 -3.668,-2.423 -5.542,-2.423 -3.773,0 -7.2,3.115 -7.2,8.31 0,5.747 4.016,8.62 7.479,8.62 2.7,0 5.021,-1.628 5.021,-4.881 0,-2.873 -2.6,-5.886 -9.558,-5.886 0.521,-2.598 2.39,-3.842 4.4,-3.842 1.416,0 2.874,0.587 4.047,1.729 z"
             style="fill:#005b7c;fill-opacity:1;fill-rule:nonzero;stroke:none"
             id="path110" /></g><g
           id="g112"
           transform="translate(378.0764,211.2881)"><path
             d="M 0,0 H -9.731 V -8.586 H -1.8 v -2.458 h -7.931 v -10.247 h -2.974 V 2.458 H 0 Z"
             style="fill:#005b7c;fill-opacity:1;fill-rule:nonzero;stroke:none"
             id="path114" /></g><g
           id="g116"
           transform="translate(390.6231,204.0517)"><path
             d="m 0,0 c -0.416,0.071 -0.795,0.139 -1.105,0.139 -1.558,0 -1.869,-1.039 -3.047,-3.184 l -3.569,-6.439 v -4.57 H -10.42 V 2.321 L -7.721,2.46 V -1.418 L -7.926,-5.71 h 0.037 l 0.863,1.8 1.837,3.426 c 0.9,1.663 1.868,2.944 3.805,2.944 0.658,0 1.042,-0.139 1.384,-0.173 z"
             style="fill:#005b7c;fill-opacity:1;fill-rule:nonzero;stroke:none"
             id="path118" /></g><g
           id="g120"
           transform="translate(401.854,202.9807)"><path
             d="m 0,0 c -0.8,0.866 -1.942,1.35 -2.768,1.35 -2.874,0 -4.468,-3.463 -4.468,-6.718 0,-3.01 1.142,-5.816 3.636,-5.816 1.869,0 3.6,1.871 3.6,5.505 z m 4.81,-13.086 -1.694,-0.313 c -1.074,0 -2.284,0.484 -2.632,1.973 l -0.105,0.45 H 0.311 c -0.864,-1.626 -2.421,-2.423 -4.084,-2.423 -4.053,0 -6.269,3.739 -6.269,7.962 0,4.432 2.495,8.968 6.926,8.968 1.558,0 2.663,-0.694 3.253,-1.281 L 0.589,3.252 2.7,3.531 V -7.963 c 0,-2.494 0.068,-3.36 1.105,-3.36 l 1.005,0.139 z"
             style="fill:#005b7c;fill-opacity:1;fill-rule:nonzero;stroke:none"
             id="path122" /></g><g
           id="g124"
           transform="translate(424.5475,189.8946)"><path
             d="m 0,0 -1.7,-0.313 c -1.731,0 -3.116,0.9 -3.116,3.392 v 8.378 c 0,1.558 0.069,2.84 -1.105,2.84 -0.937,0 -1.942,-1.835 -2.7,-3.219 l -3.605,-6.405 v -4.57 h -2.7 v 16.375 l 2.7,0.139 v -3.878 l -0.205,-4.292 h 0.037 l 0.516,1.108 2.284,4.118 c 0.9,1.629 1.905,2.944 4.015,2.944 2.39,0 3.463,-1.489 3.463,-4.189 V 5.123 c 0,-2.494 0.069,-3.36 1.074,-3.36 L 0,1.903 Z"
             style="fill:#005b7c;fill-opacity:1;fill-rule:nonzero;stroke:none"
             id="path126" /></g><g
           id="g128"
           transform="translate(439.3519,192.005)"><path
             d="m 0,0 c -1.663,-1.66 -3.463,-2.424 -5.331,-2.424 -3.774,0 -7.41,3.082 -7.41,8.274 0,5.16 3.426,8.657 7.478,8.657 1.316,0 2.7,-0.381 4.053,-1.179 l -0.8,-2.008 c -1,0.658 -1.974,0.971 -2.905,0.971 -2.842,0 -5.021,-2.839 -5.021,-6.476 0,-3.739 2.252,-5.918 4.778,-5.918 1.279,0 2.632,0.553 3.805,1.729 z"
             style="fill:#005b7c;fill-opacity:1;fill-rule:nonzero;stroke:none"
             id="path130" /></g><g
           id="g132"
           transform="translate(448.7462,204.3306)"><path
             d="m 0,0 c -2.421,0 -4.884,-2.458 -4.779,-6.544 2.526,0.068 7.305,0.555 7.305,4.086 C 2.526,-0.937 1.489,0 0,0 m 5.263,-12.326 c -1.663,-1.66 -3.668,-2.423 -5.542,-2.423 -3.773,0 -7.2,3.115 -7.2,8.31 0,5.747 4.016,8.62 7.479,8.62 2.7,0 5.021,-1.628 5.021,-4.881 0,-2.873 -2.6,-5.886 -9.558,-5.886 0.521,-2.598 2.39,-3.842 4.4,-3.842 1.416,0 2.874,0.587 4.047,1.729 z"
             style="fill:#005b7c;fill-opacity:1;fill-rule:nonzero;stroke:none"
             id="path134" /></g><g
           id="g136"
           transform="translate(301.6132,243.7215)"><path
             d="m 0,0 c -2.239,2.874 -3.576,7.219 -3.969,12.078 -0.462,3.124 -0.549,7.463 -0.549,13.444 l 0.401,98.046 h 26.529 v 13.155 H -4.117 l -1.004,21.993 c -0.803,16.032 6.633,21.376 14.671,21.376 5.225,0 12.862,-1.231 18.892,-3.081 v 12.95 c -6.835,2.26 -15.675,3.698 -22.107,3.698 -15.274,0 -28.337,-10.276 -27.333,-32.271 l 1.206,-24.665 h -18.89 v -13.155 h 18.89 L -20.194,12.571 c 0,-14.8 9.351,-20.057 18.088,-20.144 l 9.672,1.818 C 4.687,-4.575 2.114,-2.713 0,0"
             style="fill:#005b7c;fill-opacity:1;fill-rule:nonzero;stroke:none"
             id="path138" /></g><g
           id="g140"
           transform="translate(174.8393,352.8892)"><path
             d="m 0,0 c -11.708,6.759 -23.957,13.523 -23.957,25.914 0,10.99 8.713,17.469 18.238,17.469 8.167,0 17.692,-3.1 27.764,-8.738 v 18.029 c -8.166,5.358 -18.238,8.737 -29.123,8.737 -16.061,0 -38.382,-10.143 -38.382,-36.057 0,-19.595 17.093,-30.688 31.052,-39.124 21.283,-10.265 34.186,-27.843 29.545,-41.858 -5.225,-15.779 -30.684,-21.044 -56.865,-11.759 -2.111,0.749 -4.138,1.594 -6.124,2.478 10.688,-7.357 24.306,-11.432 36.962,-11.432 21.504,0 41.372,11.55 41.372,38.871 C 30.482,-18.029 14.426,-8.451 0,0"
             style="fill:#005b7c;fill-opacity:1;fill-rule:nonzero;stroke:none"
             id="path142" /></g><g
           id="g144"
           transform="translate(243.8306,393.872)"><path
             d="M 0,0 C 0,5.874 -4.473,10.645 -10.436,10.645 -16.4,10.645 -21.244,5.874 -21.244,0 c 0,-5.873 4.844,-10.645 10.808,-10.645 C -4.473,-10.645 0,-5.873 0,0"
             style="fill:#005b7c;fill-opacity:1;fill-rule:nonzero;stroke:none"
             id="path146" /></g><g
           id="g148"
           transform="translate(245.2763,281.3293)"><path
             d="m 0,0 c -1.784,2.117 -2.94,4.575 -3.678,7.54 -0.978,2.73 -1.121,7.303 -1.121,14.511 V 82.992 L -19.337,82.256 V 11.224 c 0,-13.216 7.455,-17.987 16.772,-17.987 l 8.95,1.619 C 4.009,-3.886 1.855,-2.201 0,0"
             style="fill:#005b7c;fill-opacity:1;fill-rule:nonzero;stroke:none"
             id="path150" /></g><g
           id="g152"
           transform="translate(414.0818,339.3345)"><path
             d="m 0,0 v 0 c -3.305,0.033 -5.924,-2.383 -5.849,-5.397 l 0.428,-17.239 c 0.075,-3.014 2.815,-5.484 6.12,-5.517 3.305,-0.034 5.923,2.383 5.848,5.396 L 6.12,-5.518 C 6.045,-2.504 3.305,-0.033 0,0"
             style="fill:#3baa35;fill-opacity:1;fill-rule:nonzero;stroke:none"
             id="path154" /></g><g
           id="g156"
           transform="translate(410.9003,425.7274)"><path
             d="M 0,0 V 0 C 2.839,0.241 5.001,3.434 4.83,7.13 L 3.85,28.273 c -0.172,3.696 -2.612,6.497 -5.451,6.256 -2.839,-0.241 -5.001,-3.434 -4.83,-7.13 L -5.45,6.256 C -5.279,2.56 -2.839,-0.241 0,0"
             style="fill:#005b7c;fill-opacity:1;fill-rule:nonzero;stroke:none"
             id="path158" /></g><g
           id="g160"><g
             id="g162" /><g
             id="g174"><g
               clip-path="url(#clipPath166)"
               opacity="0.720001"
               id="g172"><g
                 transform="translate(442.9149,362.8594)"
                 id="g170"><path
                   d="m 0,0 v 0 c 0.061,-2.092 2.507,-3.793 5.464,-3.8 l 16.91,-0.039 c 2.956,-0.007 5.304,1.684 5.243,3.776 -0.061,2.092 -2.508,3.793 -5.464,3.8 L 5.243,3.776 C 2.286,3.782 -0.061,2.092 0,0"
                   style="fill:#005b7c;fill-opacity:1;fill-rule:nonzero;stroke:none"
                   id="path168" /></g></g></g></g><g
           id="g176"><g
             id="g178" /><g
             id="g190"><g
               clip-path="url(#clipPath182)"
               opacity="0.699997"
               id="g188"><g
                 transform="translate(380.2475,371.4784)"
                 id="g186"><path
                   d="m 0,0 v 0 c -0.075,3.014 -2.815,5.484 -6.12,5.518 l -18.903,0.19 c -3.305,0.033 -5.924,-2.383 -5.849,-5.397 0.075,-3.014 2.814,-5.484 6.119,-5.517 L -5.849,-5.397 C -2.544,-5.43 0.075,-3.014 0,0"
                   style="fill:#005b7c;fill-opacity:1;fill-rule:nonzero;stroke:none"
                   id="path184" /></g></g></g></g><g
           id="g192"><g
             id="g194" /><g
             id="g206"><g
               clip-path="url(#clipPath198)"
               opacity="0.649994"
               id="g204"><g
                 transform="translate(429.4352,343.8967)"
                 id="g202"><path
                   d="M 0,0 V 0 C -2.745,-1.594 -3.478,-4.96 -1.636,-7.518 L 8.898,-22.15 c 1.841,-2.558 5.56,-3.34 8.305,-1.746 2.746,1.594 3.478,4.96 1.636,7.518 L 8.306,-1.746 C 6.464,0.812 2.745,1.594 0,0"
                   style="fill:#005b7c;fill-opacity:1;fill-rule:nonzero;stroke:none"
                   id="path200" /></g></g></g></g><g
           id="g208"
           transform="translate(394.607,415.6649)"><path
             d="m 0,0 v 0 c 2.92,0.965 4.056,4.105 2.536,7.013 l -8.691,16.632 c -1.519,2.908 -5.119,4.483 -8.039,3.517 -2.92,-0.965 -4.056,-4.105 -2.536,-7.013 L -8.039,3.517 C -6.519,0.609 -2.92,-0.965 0,0"
             style="fill:#005b7c;fill-opacity:1;fill-rule:nonzero;stroke:none"
             id="path210" /></g><g
           id="g212"><g
             id="g214" /><g
             id="g226"><g
               clip-path="url(#clipPath218)"
               opacity="0.610001"
               id="g224"><g
                 transform="translate(437.9127,373.8301)"
                 id="g222"><path
                   d="M 0,0 V 0 C 1.807,-1.989 5.17,-2.858 7.512,-1.941 L 20.907,3.3 c 2.342,0.917 2.775,3.272 0.968,5.26 v 0 c -1.807,1.989 -5.17,2.858 -7.512,1.942 L 0.969,5.26 C -1.373,4.344 -1.807,1.989 0,0"
                   style="fill:#005b7c;fill-opacity:1;fill-rule:nonzero;stroke:none"
                   id="path220" /></g></g></g></g><g
           id="g228"
           transform="translate(385.8849,353.5323)"><path
             d="m 0,0 v 0 c -1.842,2.558 -5.56,3.34 -8.306,1.746 l -15.702,-9.117 c -2.745,-1.594 -3.478,-4.96 -1.636,-7.518 1.841,-2.558 5.56,-3.34 8.305,-1.746 l 15.703,9.117 C 1.109,-5.924 1.842,-2.558 0,0"
             style="fill:#00b1e1;fill-opacity:1;fill-rule:nonzero;stroke:none"
             id="path230" /></g><g
           id="g232"
           transform="translate(385.8849,353.5323)"><path
             d="m 0,0 v 0 c -1.842,2.558 -5.56,3.34 -8.306,1.746 l -15.702,-9.117 c -2.745,-1.594 -3.478,-4.96 -1.636,-7.518 1.841,-2.558 5.56,-3.34 8.305,-1.746 l 15.703,9.117 C 1.109,-5.924 1.842,-2.558 0,0 Z"
             style="fill:none;stroke:#00b1e1;stroke-width:1.446;stroke-linecap:butt;stroke-linejoin:miter;stroke-miterlimit:10;stroke-dasharray:none;stroke-opacity:1"
             id="path234" /></g><g
           id="g236"
           transform="translate(438.9893,351.0918)"><path
             d="m 0,0 v 0 c -1.507,-2.112 -0.536,-4.837 2.169,-6.086 l 15.473,-7.147 c 2.705,-1.25 6.12,-0.551 7.627,1.561 1.507,2.112 0.536,4.836 -2.169,6.086 L 7.627,1.561 C 4.922,2.811 1.507,2.112 0,0"
             style="fill:#ef7731;fill-opacity:1;fill-rule:nonzero;stroke:none"
             id="path238" /></g><g
           id="g240"
           transform="translate(384.2168,395.1662)"><path
             d="m 0,0 v 0 c 1.599,2.595 0.549,5.941 -2.344,7.475 l -16.547,8.774 c -2.894,1.534 -6.535,0.674 -8.134,-1.921 v 0 c -1.599,-2.594 -0.549,-5.941 2.344,-7.475 L -8.133,-1.92 C -5.24,-3.454 -1.599,-2.595 0,0"
             style="fill:#8d1f7f;fill-opacity:1;fill-rule:nonzero;stroke:none"
             id="path242" /></g><g
           id="g244"><g
             id="g246" /><g
             id="g258"><g
               clip-path="url(#clipPath250)"
               opacity="0.270004"
               id="g256"><g
                 transform="translate(428.7516,384.9079)"
                 id="g254"><path
                   d="m 0,0 v 0 c 2.596,-1.294 5.618,-1.53 6.75,-0.527 l 6.478,5.74 C 14.36,6.217 13.174,8.08 10.578,9.374 7.982,10.669 4.96,10.904 3.828,9.901 L -2.65,4.161 C -3.782,3.157 -2.596,1.294 0,0"
                   style="fill:#005b7c;fill-opacity:1;fill-rule:nonzero;stroke:none"
                   id="path252" /></g></g></g></g><g
           id="g260"><g
             id="g262" /><g
             id="g278"><g
               clip-path="url(#clipPath266)"
               opacity="0.759995"
               id="g276"><g
                 transform="translate(397.2328,343.6592)"
                 id="g270"><path
                   d="m 0,0 v 0 c -2.887,1.556 -6.533,0.725 -8.143,-1.857 l -9.211,-14.765 c -1.611,-2.581 -0.576,-5.935 2.311,-7.491 v 0 c 2.888,-1.556 6.533,-0.725 8.144,1.856 L 2.312,-7.492 C 3.922,-4.91 2.887,-1.556 0,0"
                   style="fill:#005b7c;fill-opacity:1;fill-rule:nonzero;stroke:none"
                   id="path268" /></g><g
                 transform="translate(397.2328,343.6592)"
                 id="g274"><path
                   d="m 0,0 v 0 c -2.887,1.556 -6.533,0.725 -8.143,-1.857 l -9.211,-14.765 c -1.611,-2.581 -0.576,-5.935 2.311,-7.491 v 0 c 2.888,-1.556 6.533,-0.725 8.144,1.856 L 2.312,-7.492 C 3.922,-4.91 2.887,-1.556 0,0 Z"
                   style="fill:none;stroke:#005b7c;stroke-width:1.446;stroke-linecap:butt;stroke-linejoin:miter;stroke-miterlimit:10;stroke-dasharray:none;stroke-opacity:1"
                   id="path272" /></g></g></g></g><g
           id="g280"
           transform="translate(409.9324,360.7616)"><path
             d="m 0,0 c -5.433,1.997 -8.861,7.382 -7.656,12.029 1.204,4.647 6.584,6.795 12.017,4.798 C 9.794,14.831 13.221,9.445 12.017,4.799 10.813,0.152 5.433,-1.997 0,0"
             style="fill:#ef7731;fill-opacity:1;fill-rule:nonzero;stroke:none"
             id="path282" /></g></g></g></g></svg>
