<?xml version="1.0" encoding="UTF-8" standalone="no"?>
<svg
   xmlns:dc="http://purl.org/dc/elements/1.1/"
   xmlns:cc="http://creativecommons.org/ns#"
   xmlns:rdf="http://www.w3.org/1999/02/22-rdf-syntax-ns#"
   xmlns:svg="http://www.w3.org/2000/svg"
   xmlns="http://www.w3.org/2000/svg"
   xmlns:xlink="http://www.w3.org/1999/xlink"
   xmlns:sodipodi="http://sodipodi.sourceforge.net/DTD/sodipodi-0.dtd"
   xmlns:inkscape="http://www.inkscape.org/namespaces/inkscape"
   width="1000"
   height="1190.7601"
   id="svg2"
   sodipodi:version="0.32"
   inkscape:version="0.48.1 r9760"
   sodipodi:docname="logo-tux.svg"
   inkscape:output_extension="org.inkscape.output.svg.inkscape"
   version="1.1">
  <metadata
     id="metadata94">
    <rdf:RDF>
      <cc:Work
         rdf:about="">
        <dc:format>image/svg+xml</dc:format>
        <dc:type
           rdf:resource="http://purl.org/dc/dcmitype/StillImage" />
      </cc:Work>
    </rdf:RDF>
  </metadata>
  <sodipodi:namedview
     inkscape:window-height="1023"
     inkscape:window-width="1672"
     inkscape:pageshadow="2"
     inkscape:pageopacity="0.0"
     guidetolerance="10.0"
     gridtolerance="10.0"
     objecttolerance="10.0"
     borderopacity="1.0"
     bordercolor="#666666"
     pagecolor="#ffffff"
     id="base"
     showgrid="false"
     inkscape:zoom="0.67687855"
     inkscape:cx="499.99999"
     inkscape:cy="595.38007"
     inkscape:window-x="0"
     inkscape:window-y="19"
     inkscape:current-layer="svg2"
     fit-margin-top="0"
     fit-margin-left="0"
     fit-margin-right="0"
     fit-margin-bottom="0"
     inkscape:window-maximized="0" />
  <defs
     id="defs4">
    <inkscape:perspective
       sodipodi:type="inkscape:persp3d"
       inkscape:vp_x="0 : 375 : 1"
       inkscape:vp_y="0 : 1000 : 0"
       inkscape:vp_z="625 : 375 : 1"
       inkscape:persp3d-origin="312.5 : 250 : 1"
       id="perspective96" />
    <linearGradient
       id="linearGradient172">
      <stop
         style="stop-color:#3f2600;stop-opacity:0.6;"
         offset="0"
         id="stop173" />
      <stop
         style="stop-color:#3f2600;stop-opacity:0;"
         offset="1"
         id="stop174" />
    </linearGradient>
    <linearGradient
       id="linearGradient167">
      <stop
         style="stop-color:#ffffff;stop-opacity:0.65;"
         offset="0"
         id="stop168" />
      <stop
         style="stop-color:#ffffff;stop-opacity:0;"
         offset="1"
         id="stop169" />
    </linearGradient>
    <linearGradient
       id="linearGradient162">
      <stop
         style="stop-color:#ffa63f;stop-opacity:1;"
         offset="0"
         id="stop163" />
      <stop
         style="stop-color:#ffff00;stop-opacity:1;"
         offset="1"
         id="stop164" />
    </linearGradient>
    <linearGradient
       id="linearGradient153">
      <stop
         style="stop-color:#ffeed7;stop-opacity:1;"
         offset="0"
         id="stop154" />
      <stop
         style="stop-color:#bdbfc2;stop-opacity:1;"
         offset="1"
         id="stop155" />
    </linearGradient>
    <linearGradient
       id="linearGradient138">
      <stop
         style="stop-color:#ffffff;stop-opacity:0.8;"
         offset="0"
         id="stop139" />
      <stop
         style="stop-color:#ffffff;stop-opacity:0;"
         offset="1"
         id="stop140" />
    </linearGradient>
    <linearGradient
       xlink:href="#linearGradient138"
       id="linearGradient141"
       x1="0.47424799"
       y1="0.020191999"
       x2="0.417539"
       y2="0.90125799"
       gradientUnits="objectBoundingBox" />
    <linearGradient
       xlink:href="#linearGradient167"
       id="linearGradient142"
       x1="0.55880702"
       y1="0.031192999"
       x2="0.553922"
       y2="0.94531101"
       gradientUnits="objectBoundingBox" />
    <linearGradient
       xlink:href="#linearGradient167"
       id="linearGradient143"
       x1="0.46557701"
       y1="0.028819799"
       x2="0.41365999"
       y2="0.93366498"
       gradientUnits="objectBoundingBox" />
    <linearGradient
       xlink:href="#linearGradient167"
       id="linearGradient144"
       x1="0.70346397"
       y1="0.059404202"
       x2="0.64553201"
       y2="0.94063401"
       gradientUnits="objectBoundingBox" />
    <linearGradient
       xlink:href="#linearGradient167"
       id="linearGradient145"
       x1="0.46741399"
       y1="-0.036155298"
       x2="0.86741799"
       y2="0.75857902"
       gradientUnits="objectBoundingBox" />
    <linearGradient
       xlink:href="#linearGradient167"
       id="linearGradient146"
       x1="0.57152498"
       y1="0.023441499"
       x2="0.57143003"
       y2="0.71875"
       gradientUnits="objectBoundingBox" />
    <linearGradient
       xlink:href="#linearGradient167"
       id="linearGradient147"
       x1="0.5"
       y1="0.0234362"
       x2="0.5"
       y2="0.8125"
       gradientUnits="objectBoundingBox" />
    <linearGradient
       xlink:href="#linearGradient167"
       id="linearGradient148"
       x1="0.50799799"
       y1="0.37435901"
       x2="0.51599997"
       y2="0.92820501"
       gradientUnits="objectBoundingBox" />
    <linearGradient
       xlink:href="#linearGradient138"
       id="linearGradient149"
       x1="0.5"
       y1="0.131707"
       x2="0.50400001"
       y2="0.94634098"
       gradientUnits="objectBoundingBox" />
    <linearGradient
       xlink:href="#linearGradient167"
       id="linearGradient150"
       x1="-0.30509499"
       y1="0.099496603"
       x2="0.156323"
       y2="0.94191301"
       gradientUnits="objectBoundingBox"
       gradientTransform="matrix(-0.928523,0.283938,0.435332,0.943857,-1.91327e-7,5.49908e-8)" />
    <linearGradient
       xlink:href="#linearGradient167"
       id="linearGradient151"
       x1="0.433979"
       y1="0.022184599"
       x2="0.487055"
       y2="1.02569"
       gradientUnits="objectBoundingBox" />
    <linearGradient
       xlink:href="#linearGradient153"
       id="linearGradient152"
       x1="0.5"
       y1="0.89842999"
       x2="0.5"
       y2="0.40625"
       gradientUnits="objectBoundingBox"
       spreadMethod="reflect" />
    <linearGradient
       xlink:href="#linearGradient153"
       id="linearGradient156"
       x1="0.43568701"
       y1="0.98882002"
       x2="0.453989"
       y2="0.23093501"
       gradientUnits="objectBoundingBox" />
    <linearGradient
       xlink:href="#linearGradient153"
       id="linearGradient157"
       x1="0.49180499"
       y1="1.15284"
       x2="0.49482101"
       y2="0.41252401"
       gradientUnits="objectBoundingBox" />
    <linearGradient
       xlink:href="#linearGradient153"
       id="linearGradient158"
       x1="0.51730198"
       y1="0.85418499"
       x2="0.49843901"
       y2="0.136172"
       gradientUnits="objectBoundingBox" />
    <linearGradient
       xlink:href="#linearGradient153"
       id="linearGradient159"
       x1="0.46201"
       y1="0.87917101"
       x2="0.49215299"
       y2="0.096282303"
       gradientUnits="objectBoundingBox" />
    <linearGradient
       xlink:href="#linearGradient162"
       id="linearGradient161"
       x1="0.50086302"
       y1="0.34872901"
       x2="0.41209599"
       y2="0.98558098"
       gradientUnits="objectBoundingBox" />
    <linearGradient
       xlink:href="#linearGradient162"
       id="linearGradient165"
       x1="0.60399801"
       y1="0.51020199"
       x2="0.46399999"
       y2="0.98367399"
       gradientUnits="objectBoundingBox" />
    <linearGradient
       xlink:href="#linearGradient162"
       id="linearGradient166"
       x1="0.50000501"
       y1="0.191616"
       x2="0.50800002"
       y2="0.97005898"
       gradientUnits="objectBoundingBox" />
    <radialGradient
       xlink:href="#linearGradient172"
       id="radialGradient171"
       cx="0.5"
       cy="0.5"
       fx="0.5"
       fy="0.5"
       r="0.5"
       gradientUnits="objectBoundingBox" />
    <radialGradient
       xlink:href="#linearGradient172"
       id="radialGradient176" />
    <linearGradient
       xlink:href="#linearGradient153"
       id="linearGradient178"
       x1="0.94027299"
       y1="1.2934099"
       x2="0.19452"
       y2="-0.675295"
       gradientUnits="objectBoundingBox" />
    <radialGradient
       xlink:href="#linearGradient172"
       id="radialGradient1399"
       gradientTransform="scale(1.04523,0.956725)"
       cx="446.77762"
       cy="1219.4125"
       fx="446.77762"
       fy="1219.4125"
       r="195.07191"
       gradientUnits="userSpaceOnUse" />
    <linearGradient
       xlink:href="#linearGradient153"
       id="linearGradient1401"
       gradientUnits="userSpaceOnUse"
       x1="400.57785"
       y1="369.53015"
       x2="400.84448"
       y2="304.07886"
       gradientTransform="scale(0.575262,1.73834)" />
    <linearGradient
       xlink:href="#linearGradient138"
       id="linearGradient1403"
       gradientUnits="userSpaceOnUse"
       x1="303.01761"
       y1="237.93179"
       x2="297.0856"
       y2="330.09561"
       gradientTransform="scale(1.11607,0.896001)" />
    <linearGradient
       xlink:href="#linearGradient153"
       id="linearGradient1405"
       gradientUnits="userSpaceOnUse"
       gradientTransform="scale(0.816497,1.22474)"
       x1="378.93771"
       y1="278.60202"
       x2="380.27319"
       y2="243.91606" />
    <linearGradient
       xlink:href="#linearGradient153"
       id="linearGradient1407"
       gradientUnits="userSpaceOnUse"
       x1="381.38742"
       y1="277.495"
       x2="380.5517"
       y2="245.68338"
       gradientTransform="scale(0.816497,1.22474)" />
    <linearGradient
       xlink:href="#linearGradient167"
       id="linearGradient1409"
       gradientUnits="userSpaceOnUse"
       gradientTransform="scale(0.816497,1.22474)"
       x1="379.09573"
       y1="240.92712"
       x2="376.79556"
       y2="281.01636" />
    <linearGradient
       xlink:href="#linearGradient167"
       id="linearGradient1411"
       gradientUnits="userSpaceOnUse"
       x1="389.63535"
       y1="242.28218"
       x2="387.06866"
       y2="281.32513"
       gradientTransform="scale(0.816497,1.22474)" />
    <linearGradient
       xlink:href="#linearGradient153"
       id="linearGradient1413"
       gradientUnits="userSpaceOnUse"
       spreadMethod="reflect"
       x1="437.57941"
       y1="528.87177"
       x2="437.57941"
       y2="394.10361"
       gradientTransform="scale(0.812855,1.23023)" />
    <linearGradient
       xlink:href="#linearGradient153"
       id="linearGradient1415"
       gradientUnits="userSpaceOnUse"
       x1="375.17325"
       y1="419.78485"
       x2="377.48541"
       y2="324.03815"
       gradientTransform="scale(0.649784,1.53897)" />
    <linearGradient
       xlink:href="#linearGradient138"
       id="linearGradient1417"
       gradientUnits="userSpaceOnUse"
       x1="320.75104"
       y1="498.17776"
       x2="321.32224"
       y2="614.50439"
       gradientTransform="scale(1.0748,0.930408)" />
    <linearGradient
       xlink:href="#linearGradient167"
       id="linearGradient1419"
       gradientUnits="userSpaceOnUse"
       x1="322.48257"
       y1="435.26761"
       x2="323.2514"
       y2="488.48251"
       gradientTransform="scale(1.077,0.928504)" />
    <linearGradient
       xlink:href="#linearGradient167"
       id="linearGradient1421"
       gradientUnits="userSpaceOnUse"
       x1="411.2215"
       y1="242.94365"
       x2="411.2215"
       y2="331.44858"
       gradientTransform="scale(0.571707,1.74915)" />
    <linearGradient
       xlink:href="#linearGradient167"
       id="linearGradient1423"
       gradientUnits="userSpaceOnUse"
       x1="867.34546"
       y1="234.73897"
       x2="867.33453"
       y2="314.83911"
       gradientTransform="scale(0.572667,1.74621)" />
    <linearGradient
       xlink:href="#linearGradient162"
       id="linearGradient1425"
       gradientUnits="userSpaceOnUse"
       x1="236.25362"
       y1="657.11133"
       x2="212.5099"
       y2="737.41229"
       gradientTransform="scale(1.01151,0.988617)" />
    <linearGradient
       xlink:href="#linearGradient153"
       id="linearGradient1427"
       gradientUnits="userSpaceOnUse"
       x1="381.56607"
       y1="655.73102"
       x2="279.64313"
       y2="386.66583"
       gradientTransform="scale(1.0655,0.938527)" />
    <linearGradient
       xlink:href="#linearGradient162"
       id="linearGradient1429"
       gradientUnits="userSpaceOnUse"
       x1="218.11714"
       y1="630.30475"
       x2="203.12654"
       y2="737.8537"
       gradientTransform="scale(1.00985,0.990245)" />
    <linearGradient
       xlink:href="#linearGradient167"
       id="linearGradient1431"
       gradientUnits="userSpaceOnUse"
       gradientTransform="scale(1.00772,0.992335)"
       x1="117.88966"
       y1="587.23602"
       x2="182.24524"
       y2="704.73077" />
    <linearGradient
       xlink:href="#linearGradient167"
       id="linearGradient1433"
       gradientUnits="userSpaceOnUse"
       x1="223.10072"
       y1="570.41809"
       x2="230.53499"
       y2="710.97723"
       gradientTransform="scale(0.999504,1.0005)" />
    <linearGradient
       xlink:href="#linearGradient167"
       id="linearGradient1435"
       gradientUnits="userSpaceOnUse"
       x1="316.93988"
       y1="474.01779"
       x2="371.60889"
       y2="582.63507"
       gradientTransform="scale(1.0655,0.938527)" />
    <linearGradient
       xlink:href="#linearGradient162"
       id="linearGradient1437"
       gradientUnits="userSpaceOnUse"
       x1="284.68652"
       y1="410.46326"
       x2="285.45923"
       y2="485.69934"
       gradientTransform="scale(1.21868,0.820557)" />
    <linearGradient
       xlink:href="#linearGradient167"
       id="linearGradient1439"
       gradientUnits="userSpaceOnUse"
       x1="288.82358"
       y1="398.85422"
       x2="288.37628"
       y2="482.55939"
       gradientTransform="scale(1.22194,0.81837)" />
    <radialGradient
       inkscape:collect="always"
       xlink:href="#linearGradient172"
       id="radialGradient3100"
       gradientUnits="userSpaceOnUse"
       gradientTransform="scale(1.04523,0.956725)"
       cx="446.77762"
       cy="1219.4125"
       fx="446.77762"
       fy="1219.4125"
       r="195.07191" />
    <linearGradient
       inkscape:collect="always"
       xlink:href="#linearGradient153"
       id="linearGradient3102"
       gradientUnits="userSpaceOnUse"
       gradientTransform="scale(0.575262,1.73834)"
       x1="400.57785"
       y1="369.53015"
       x2="400.84448"
       y2="304.07886" />
    <linearGradient
       inkscape:collect="always"
       xlink:href="#linearGradient138"
       id="linearGradient3104"
       gradientUnits="userSpaceOnUse"
       gradientTransform="scale(1.11607,0.896001)"
       x1="303.01761"
       y1="237.93179"
       x2="297.0856"
       y2="330.09561" />
    <linearGradient
       inkscape:collect="always"
       xlink:href="#linearGradient153"
       id="linearGradient3106"
       gradientUnits="userSpaceOnUse"
       gradientTransform="scale(0.816497,1.22474)"
       x1="378.93771"
       y1="278.60202"
       x2="380.27319"
       y2="243.91606" />
    <linearGradient
       inkscape:collect="always"
       xlink:href="#linearGradient153"
       id="linearGradient3108"
       gradientUnits="userSpaceOnUse"
       gradientTransform="scale(0.816497,1.22474)"
       x1="381.38742"
       y1="277.495"
       x2="380.5517"
       y2="245.68338" />
    <linearGradient
       inkscape:collect="always"
       xlink:href="#linearGradient167"
       id="linearGradient3110"
       gradientUnits="userSpaceOnUse"
       gradientTransform="scale(0.816497,1.22474)"
       x1="379.09573"
       y1="240.92712"
       x2="376.79556"
       y2="281.01636" />
    <linearGradient
       inkscape:collect="always"
       xlink:href="#linearGradient167"
       id="linearGradient3112"
       gradientUnits="userSpaceOnUse"
       gradientTransform="scale(0.816497,1.22474)"
       x1="389.63535"
       y1="242.28218"
       x2="387.06866"
       y2="281.32513" />
    <linearGradient
       inkscape:collect="always"
       xlink:href="#linearGradient153"
       id="linearGradient3114"
       gradientUnits="userSpaceOnUse"
       gradientTransform="scale(0.812855,1.23023)"
       spreadMethod="reflect"
       x1="437.57941"
       y1="528.87177"
       x2="437.57941"
       y2="394.10361" />
    <linearGradient
       inkscape:collect="always"
       xlink:href="#linearGradient153"
       id="linearGradient3116"
       gradientUnits="userSpaceOnUse"
       gradientTransform="scale(0.649784,1.53897)"
       x1="375.17325"
       y1="419.78485"
       x2="377.48541"
       y2="324.03815" />
    <linearGradient
       inkscape:collect="always"
       xlink:href="#linearGradient138"
       id="linearGradient3118"
       gradientUnits="userSpaceOnUse"
       gradientTransform="scale(1.0748,0.930408)"
       x1="320.75104"
       y1="498.17776"
       x2="321.32224"
       y2="614.50439" />
    <linearGradient
       inkscape:collect="always"
       xlink:href="#linearGradient167"
       id="linearGradient3120"
       gradientUnits="userSpaceOnUse"
       gradientTransform="scale(1.077,0.928504)"
       x1="322.48257"
       y1="435.26761"
       x2="323.2514"
       y2="488.48251" />
    <linearGradient
       inkscape:collect="always"
       xlink:href="#linearGradient167"
       id="linearGradient3122"
       gradientUnits="userSpaceOnUse"
       gradientTransform="scale(0.571707,1.74915)"
       x1="411.2215"
       y1="242.94365"
       x2="411.2215"
       y2="331.44858" />
    <linearGradient
       inkscape:collect="always"
       xlink:href="#linearGradient167"
       id="linearGradient3124"
       gradientUnits="userSpaceOnUse"
       gradientTransform="scale(0.572667,1.74621)"
       x1="867.34546"
       y1="234.73897"
       x2="867.33453"
       y2="314.83911" />
    <linearGradient
       inkscape:collect="always"
       xlink:href="#linearGradient162"
       id="linearGradient3126"
       gradientUnits="userSpaceOnUse"
       gradientTransform="scale(1.01151,0.988617)"
       x1="236.25362"
       y1="657.11133"
       x2="212.5099"
       y2="737.41229" />
    <linearGradient
       inkscape:collect="always"
       xlink:href="#linearGradient153"
       id="linearGradient3128"
       gradientUnits="userSpaceOnUse"
       gradientTransform="scale(1.0655,0.938527)"
       x1="381.56607"
       y1="655.73102"
       x2="279.64313"
       y2="386.66583" />
    <linearGradient
       inkscape:collect="always"
       xlink:href="#linearGradient162"
       id="linearGradient3130"
       gradientUnits="userSpaceOnUse"
       gradientTransform="scale(1.00985,0.990245)"
       x1="218.11714"
       y1="630.30475"
       x2="203.12654"
       y2="737.8537" />
    <linearGradient
       inkscape:collect="always"
       xlink:href="#linearGradient167"
       id="linearGradient3132"
       gradientUnits="userSpaceOnUse"
       gradientTransform="scale(1.00772,0.992335)"
       x1="117.88966"
       y1="587.23602"
       x2="182.24524"
       y2="704.73077" />
    <linearGradient
       inkscape:collect="always"
       xlink:href="#linearGradient167"
       id="linearGradient3134"
       gradientUnits="userSpaceOnUse"
       gradientTransform="scale(0.999504,1.0005)"
       x1="223.10072"
       y1="570.41809"
       x2="230.53499"
       y2="710.97723" />
    <linearGradient
       inkscape:collect="always"
       xlink:href="#linearGradient167"
       id="linearGradient3136"
       gradientUnits="userSpaceOnUse"
       gradientTransform="scale(1.0655,0.938527)"
       x1="316.93988"
       y1="474.01779"
       x2="371.60889"
       y2="582.63507" />
    <linearGradient
       inkscape:collect="always"
       xlink:href="#linearGradient162"
       id="linearGradient3138"
       gradientUnits="userSpaceOnUse"
       gradientTransform="scale(1.21868,0.820557)"
       x1="284.68652"
       y1="410.46326"
       x2="285.45923"
       y2="485.69934" />
    <linearGradient
       inkscape:collect="always"
       xlink:href="#linearGradient167"
       id="linearGradient3140"
       gradientUnits="userSpaceOnUse"
       gradientTransform="scale(1.22194,0.81837)"
       x1="288.82358"
       y1="398.85422"
       x2="288.37628"
       y2="482.55939" />
  </defs>
  <g
     id="g3069"
     transform="matrix(1.7297287,0,0,1.7297287,-40.540881,-53.268154)">
    <g
       inkscape:export-ydpi="31.139999"
       inkscape:export-xdpi="31.139999"
       inkscape:export-filename="D:\Données\Bureau\tux.png"
       transform="translate(-310.752,-64.2527)"
       id="g1369">
      <path
         style="fill:url(#radialGradient3100);stroke:none"
         id="path175"
         d="m 670.88202,1166.6423 a 203.89551,186.63016 0 1 1 -407.79102,0 203.89551,186.63016 0 1 1 407.79102,0 z"
         transform="matrix(1.4177,0,0,0.414745,-38.7944,222.194)"
         inkscape:connector-curvature="0" />
      <path
         style="fill:#000000;stroke:none"
         d="m 223.627,632.24 c -22.388,-32.223 -26.754,-136.984 25.487,-201.43 25.886,-30.918 32.49,-52.465 34.531,-81.393 1.389,-32.979 -23.325,-131.442 69.883,-138.944 94.406,-7.532 89.336,85.66 88.793,134.975 -0.451,41.64 30.574,65.241 51.796,97.695 39.279,59.63 35.957,162.3 -7.399,217.872 -54.917,69.568 -101.953,39.398 -133.19,41.93 -58.493,3.202 -60.427,34.391 -129.901,-70.705 z"
         id="path106"
         transform="matrix(1.25,0,0,1.25,185.454,-167.505)"
         inkscape:connector-curvature="0" />
      <path
         style="fill:url(#linearGradient3102);stroke:none"
         d="m 246.571,470.864 c -12.239,12.496 -44.396,69.092 4.869,105.36 17.369,12.633 -16.377,59.495 -32.005,36.308 -27.57,-41.618 -8.831,-106.941 8.315,-130.188 11.652,-16.487 29.23,-22.676 18.821,-11.48 z"
         id="path113"
         transform="matrix(-1.67739,-0.0224516,-0.0211236,1.4709,1173.58,-293.017)"
         inkscape:connector-curvature="0" />
      <path
         style="fill:#000000;stroke:#000000;stroke-width:0.97729802"
         d="m 256.513,459.837 c -19.915,17.717 -56.176,80.091 -3.288,120.606 17.37,12.632 -15.393,52.463 -33.79,32.089 -63.963,-70.82 1.669,-152.254 24.262,-180.25 20.192,-24.347 38.078,5.752 12.816,27.555 z"
         id="path111"
         transform="matrix(-1.67755,0,0,1.52374,1174.62,-318.082)"
         inkscape:connector-curvature="0" />
      <path
         style="fill:url(#linearGradient3104);stroke:none"
         id="path114"
         d="m 399.56879,258.15753 a 58.37323,46.863022 0 1 1 -116.74646,0 58.37323,46.863022 0 1 1 116.74646,0 z"
         transform="matrix(1.26626,-0.0713667,-0.0459795,1.19574,202.143,-125.761)"
         inkscape:connector-curvature="0" />
      <path
         style="fill:url(#linearGradient3106);stroke:none"
         id="path115"
         d="m 328.86324,320.64151 a 18.08748,27.131196 0 1 1 -36.17496,0 18.08748,27.131196 0 1 1 36.17496,0 z"
         transform="matrix(1.30445,-0.0755326,0.0771251,1.34257,144.757,-177.617)"
         inkscape:connector-curvature="0" />
      <path
         style="fill:url(#linearGradient3108);stroke:none"
         id="path116"
         d="m 328.86324,320.64151 a 18.08748,27.131196 0 1 1 -36.17496,0 18.08748,27.131196 0 1 1 36.17496,0 z"
         transform="matrix(-1.81082,0.0495107,0.0317324,1.55333,1207.46,-284.777)"
         inkscape:connector-curvature="0" />
      <path
         style="fill:#000000;stroke:none"
         id="path117"
         d="m 328.86324,320.64151 a 18.08748,27.131196 0 1 1 -36.17496,0 18.08748,27.131196 0 1 1 36.17496,0 z"
         transform="matrix(-0.823196,-0.00176123,-0.0182321,0.852662,913.674,-37.9902)"
         inkscape:connector-curvature="0" />
      <path
         style="fill:#000000;stroke:none"
         id="path118"
         d="m 328.86324,320.64151 a 18.08748,27.131196 0 1 1 -36.17496,0 18.08748,27.131196 0 1 1 36.17496,0 z"
         transform="matrix(0.59438,-0.0722959,0.0688176,0.705838,367.448,32.4186)"
         inkscape:connector-curvature="0" />
      <path
         style="fill:url(#linearGradient3110);stroke:none"
         id="path121"
         d="m 328.86324,320.64151 a 18.08748,27.131196 0 1 1 -36.17496,0 18.08748,27.131196 0 1 1 36.17496,0 z"
         transform="matrix(-0.480323,-0.036454,-0.0467935,0.475606,813.496,87.0124)"
         inkscape:connector-curvature="0" />
      <path
         style="fill:url(#linearGradient3112);stroke:none"
         id="path122"
         d="m 328.86324,320.64151 a 18.08748,27.131196 0 1 1 -36.17496,0 18.08748,27.131196 0 1 1 36.17496,0 z"
         transform="matrix(0.35691,-0.0408211,0.0413232,0.398544,449.334,114.991)"
         inkscape:connector-curvature="0" />
      <path
         style="fill:url(#linearGradient3114);stroke:none"
         d="m 258.702,495.425 c 12.836,-29.103 40.114,-80.226 40.695,-119.758 0,-31.442 94.179,-38.951 101.737,-7.558 7.558,31.393 26.741,78.483 38.95,101.156 12.208,22.672 47.809,94.695 9.884,157.546 -34.157,55.644 -137.725,99.666 -193.01,-7.557 -18.603,-37.207 -15.285,-83.315 1.744,-123.829 z"
         id="path128"
         transform="matrix(1.25,0,0,1.25,185.454,-168.23)"
         inkscape:connector-curvature="0" />
      <path
         style="fill:url(#linearGradient3116);stroke:none"
         d="m 242.905,473.815 c -11.263,18.967 -35.5,69.309 12.137,102.047 51.311,34.82 46.473,97.062 -15.607,61.955 -56.777,-31.789 -22.845,-137.778 -4.51,-162.266 12.107,-17.214 29.897,-38.031 7.98,-1.736 z"
         id="path112"
         transform="matrix(1.38936,-0.111074,0.102211,1.30214,108.413,-165.938)"
         inkscape:connector-curvature="0" />
      <path
         style="fill:#000000;stroke:#000000;stroke-width:1.25"
         d="m 256.513,449.72 c -17.465,28.508 -59.377,95.813 -3.288,130.723 75.569,46.355 54.173,92.711 -14.799,50.974 -97.109,-58.264 -11.825,-175.616 27.131,-220.338 44.444,-50.2 8.554,9.087 -9.044,38.641 z"
         id="path109"
         transform="matrix(1.25,0,0,1.25,185.454,-167.505)"
         inkscape:connector-curvature="0" />
      <path
         transform="matrix(1.30209,0,0,1.22525,170.042,-153.557)"
         style="font-size:12px;fill:url(#linearGradient3118);stroke:none"
         d="m 421.481,504.727 c 0,32.412 -29.272,74.516 -79.528,74.138 -51.828,0.455 -73.949,-41.726 -73.949,-74.138 0,-32.412 34.379,-58.717 76.739,-58.717 42.359,0 76.738,26.305 76.738,58.717 z"
         id="path125"
         inkscape:connector-curvature="0" />
      <path
         transform="matrix(1.1868,0,0,1.06708,210.623,-100.078)"
         style="font-size:12px;fill:url(#linearGradient3120);stroke:none"
         d="m 398.227,412.292 c -0.612,38.572 -23.18,47.671 -51.74,47.671 -28.561,0 -49.292,-5.694 -51.741,-47.671 0,-26.314 23.18,-41.542 51.741,-41.542 28.56,0 51.74,15.228 51.74,41.542 z"
         id="path127"
         inkscape:connector-curvature="0" />
      <path
         style="fill:url(#linearGradient3122);stroke:none"
         d="m 234.285,456.475 c 17.716,-26.996 55.015,-68.364 6.977,5.813 -38.951,61.043 -14.403,100.273 -1.744,111.039 36.527,32.562 34.966,54.349 6.395,37.206 -61.625,-36.626 -48.835,-98.248 -11.628,-154.058 z"
         id="path129"
         transform="matrix(1.25,0,0,1.25,185.454,-167.505)"
         inkscape:connector-curvature="0" />
      <path
         style="fill:url(#linearGradient3124);stroke:none"
         d="m 490.662,467.52 c -15.319,-31.701 -64.134,-111.902 2.326,-18.603 60.461,84.297 18.022,143.013 10.464,148.827 -7.557,5.813 -33.137,17.44 -25.579,-2.907 7.557,-20.347 45.234,-58.973 12.789,-127.317 z"
         id="path131"
         transform="matrix(1.25,0,0,1.25,185.454,-167.505)"
         inkscape:connector-curvature="0" />
      <path
         style="fill:url(#linearGradient3126);stroke:#e68c3f;stroke-width:6.25"
         d="m 220.915,716.921 c -40.442,-21.416 -99.252,4.124 -77.902,-54.066 4.276,-13.238 -6.375,-33.008 0.581,-45.926 8.139,-15.698 25.58,-12.209 36.045,-22.674 10.318,-10.891 16.859,-29.649 36.044,-26.742 19.184,2.907 31.945,26.461 45.344,55.229 9.883,20.638 44.941,49.664 42.65,72.758 -2.696,35.5 -43.027,42.19 -82.762,21.421 z"
         id="path132"
         transform="matrix(1.25,0,0,1.25,185.454,-167.505)"
         inkscape:connector-curvature="0" />
      <path
         transform="matrix(0.598206,0.268584,-0.239623,0.617213,700.568,140.464)"
         style="font-size:12px;fill:url(#linearGradient3128);stroke:none"
         d="m 415.072,495.764 c -3.007,24.906 -35.813,76.627 -69.518,81.534 -34.26,5.336 -66.432,-34.06 -74.147,-71.114 -9.889,-41.206 22.587,-57.6 71.938,-56.627 53.301,1.654 74.121,13.891 71.727,46.207 z"
         id="path177"
         inkscape:connector-curvature="0" />
      <path
         style="fill:url(#linearGradient3130);stroke:#e68c3f;stroke-width:6.25067997"
         d="m 220.274,718.402 c -41.327,-23.59 -99.894,5.605 -77.261,-55.547 4.736,-13.068 -6.596,-33.552 0.36,-46.47 8.139,-15.698 25.801,-11.665 36.266,-22.13 10.318,-10.891 18.827,-27.868 38.012,-24.961 19.184,2.907 29.977,24.68 43.376,53.448 9.883,20.638 43.415,48.971 41.124,72.065 -2.696,35.5 -42.724,45.471 -81.877,23.595 z"
         id="path133"
         transform="matrix(-1.1685,0.423145,0.475283,1.16478,728.343,-213.821)"
         inkscape:connector-curvature="0" />
      <path
         style="fill:url(#linearGradient3132);stroke:none"
         d="m 216.482,675.68 c -86.531,-57.503 -47.308,-70.96 -36.843,-81.425 10.318,-10.891 18.827,-27.868 38.012,-24.961 19.184,2.907 29.977,24.68 43.376,53.448 9.883,20.638 43.06,48.918 41.124,72.065 -2.616,27.11 -48.19,5.487 -85.669,-19.127 z"
         id="path134"
         transform="matrix(-0.945096,0.343745,0.424076,0.956058,714.328,-64.342)"
         inkscape:connector-curvature="0" />
      <path
         style="fill:url(#linearGradient3134);stroke:none"
         d="m 216.506,677.071 c -86.531,-57.503 -46.797,-73.57 -33.946,-81.28 15.399,-9.942 15.158,-30.831 34.343,-27.924 19.184,2.907 30.725,26.107 44.124,54.875 9.883,20.638 43.06,48.918 41.124,72.065 -2.616,27.11 -48.166,6.878 -85.645,-17.736 z"
         id="path135"
         transform="matrix(1.00431,-0.052286,-0.0174,1.04575,244.191,-28.4653)"
         inkscape:connector-curvature="0" />
      <path
         transform="matrix(0.515584,0.215259,-0.206526,0.49467,713.3,222.559)"
         style="font-size:12px;fill:#000000;stroke:none"
         d="m 415.072,495.764 c -3.007,24.906 -35.813,76.627 -69.518,81.534 -34.26,5.336 -66.432,-34.06 -74.147,-71.114 -9.889,-41.206 22.587,-57.6 71.938,-56.627 53.301,1.654 74.121,13.891 71.727,46.207 z"
         id="path136"
         inkscape:connector-curvature="0" />
      <path
         transform="matrix(0.351231,0.149463,-0.128856,0.343469,724.522,318.291)"
         style="font-size:12px;fill:url(#linearGradient3136);stroke:none"
         d="m 415.072,495.764 c -3.007,24.906 -35.813,76.627 -69.518,81.534 -34.26,5.336 -66.432,-34.06 -74.147,-71.114 -9.889,-41.206 22.587,-57.6 71.938,-56.627 53.301,1.654 74.121,13.891 71.727,46.207 z"
         id="path137"
         inkscape:connector-curvature="0" />
      <path
         style="fill:url(#linearGradient3138);stroke:#e68c3f;stroke-width:3.75"
         d="m 309.954,338.729 c 7.147,-6.77 24.811,-27.066 57.961,-5.755 6.162,4.01 11.162,4.377 23.021,9.455 23.726,9.749 12.382,33.259 -12.744,41.108 -10.758,3.489 -20.536,16.556 -40.129,15.439 -16.734,-0.977 -21.119,-11.874 -31.398,-17.906 -18.269,-10.311 -20.965,-24.254 -11.1,-31.653 9.866,-7.399 13.725,-10.059 14.389,-10.688 z"
         id="path119"
         transform="matrix(1.25,0,0,1.25,185.454,-167.505)"
         inkscape:connector-curvature="0" />
      <path
         style="fill:none;stroke:#e68c3f;stroke-width:2.5"
         d="m 391.251,357.645 c -9.883,0.581 -31.393,22.091 -54.066,22.091 -22.673,0 -36.044,-20.929 -39.532,-20.929"
         id="path120"
         transform="matrix(1.25,0,0,1.25,185.454,-167.505)"
         inkscape:connector-curvature="0" />
      <path
         style="fill:url(#linearGradient3140);stroke:none"
         d="m 309.954,338.729 c 7.147,-6.77 29.691,-25.348 59.588,-6.328 6.299,3.766 12.804,7.865 22.478,13.464 19.162,11.748 9.671,28.678 -13.286,39.39 -10.418,4.495 -27.593,14.415 -40.671,13.721 -14.533,-1.408 -23.935,-11.399 -33.567,-17.906 -17.67,-12.303 -16.597,-22.237 -8.389,-30.508 6.205,-5.679 13.183,-11.204 13.847,-11.833 z"
         id="path123"
         transform="matrix(0.627885,0,0,0.595666,392.366,51.8173)"
         inkscape:connector-curvature="0" />
    </g>
  </g>
</svg>
